<svg width="86" height="86" viewBox="0 0 96 96" fill="none" data-testid="couple_with_umbrella_svg"><path d="M42.385 93.18c2.872.018 28.098-.567 32.295-.387 1.29.054 2.62.104 3.831-.402 1.212-.505 2.289-1.71 2.342-3.167.076-2.16-1.927-3.579-3.685-4.441-1.757-.862-3.812-2.03-4.025-4.178-.148-1.502.711-2.912.79-4.416.108-2.062-1.303-3.916-2.967-4.76-3.112-1.573-7.192-.762-10.487-.517l-15.69 1.172c-1.016.076-2.09.138-2.996-.388-1.846-1.07-2.064-3.858-2.728-6.08-.644-2.149-1.872-4.014-3.508-5.33-.834-.665-1.868-1.194-2.856-.898-1.162.348-1.84 1.686-2.305 2.937a30.61 30.61 0 00-1.837 8.557c-.113 1.633-.104 3.32-.655 4.835-.826 2.273-2.812 3.799-4.902 4.48-2.83.92-7.552.935-7.98 5.21-.358 3.56 2.78 5.787 5.547 6.38 7.014 1.494 14.698 1.347 21.816 1.392z" fill="#CCC"></path><path d="M35.38 59.805c.93.676 1.749 1.529 2.421 2.52a11.52 11.52 0 011.547 3.273c.339 1.17.542 2.356.914 3.451.17.54.415 1.046.724 1.502.305.437.705.78 1.16.995a3.7 3.7 0 001.48.29c.515.01 1.048-.04 1.584-.077l3.205-.232 6.402-.457 4.68-.346a82.482 82.482 0 002.332-.195c.777-.078 1.556-.158 2.34-.213 1.38-.1 2.778-.135 4.17.072a9.857 9.857 0 012.052.537c.334.137.661.296.979.476.633.38 1.2.889 1.669 1.5.232.31.436.646.608 1.003a5.3 5.3 0 01.38 1.144c.078.403.104.816.076 1.226-.06.823-.318 1.57-.515 2.299-.197.728-.365 1.465-.241 2.176.03.177.073.351.129.52.06.168.132.33.214.485.037.08.08.157.129.23.049.072.094.145.145.219.106.14.22.275.338.403.116.133.25.245.375.367s.266.228.409.328c.28.211.572.405.872.58.3.178.609.341.92.5.31.16.632.313.944.488.315.175.622.37.92.58.3.207.588.44.859.694.276.258.526.55.745.87.225.324.4.689.515 1.078a3.419 3.419 0 01-.181 2.406 4.057 4.057 0 01-1.515 1.694 4.98 4.98 0 01-2.026.691c-.617.072-1.237.094-1.856.065a71.068 71.068 0 00-1.832-.052c-1.222-.011-2.449 0-3.668 0-2.449.017-4.886.057-7.31.096-6.231.101-12.486.271-18.716.306-.97 0-1.393-.038-1.365-.087.028-.05.505-.115 1.325-.192 1.642-.145 4.666-.328 8.256-.394l9.546-.163c3.182-.046 6.366-.088 9.556-.094.796 0 1.594.003 2.394.01.4 0 .803.02 1.204.03.401.01.793.034 1.185.035a6.942 6.942 0 002.27-.335 3.753 3.753 0 001.839-1.352 3.072 3.072 0 00.555-1.362c.012-.1.018-.2.02-.3v-.3l-.042-.3c-.154-.792-.644-1.481-1.23-2.03a9.137 9.137 0 00-1.995-1.354 17.345 17.345 0 01-2.174-1.228 6.713 6.713 0 01-1.18-1.028 4.164 4.164 0 01-.853-1.437c-.037-.145-.08-.281-.112-.423a3.522 3.522 0 01-.063-.436 4.505 4.505 0 01.02-.87c.082-.556.209-1.102.377-1.632.161-.505.284-1.024.367-1.551a4.054 4.054 0 00-.084-1.537c-.258-1.004-.851-1.886-1.594-2.546-.742-.66-1.653-1.058-2.59-1.315a12.073 12.073 0 00-2.886-.37c-1.954-.034-3.908.25-5.874.405l-12.928.945-3.232.232a7.035 7.035 0 01-1.654-.046 3.43 3.43 0 01-1.017-.34 1.626 1.626 0 01-.19-.115 2.638 2.638 0 01-.358-.264 4.292 4.292 0 01-1.07-1.462 10.388 10.388 0 01-.604-1.73c-.32-1.172-.526-2.366-.947-3.458a10.702 10.702 0 00-2.242-3.572 9.038 9.038 0 00-.751-.705 6.196 6.196 0 00-.814-.595c-.564-.338-1.197-.567-1.813-.476a1.908 1.908 0 00-.861.355 3.14 3.14 0 00-.695.714 7.974 7.974 0 00-.937 1.904 30.203 30.203 0 00-1.726 7.559c-.116 1.117-.129 2.25-.247 3.389-.057.573-.158 1.14-.302 1.693a7.095 7.095 0 01-.644 1.577 7.36 7.36 0 01-2.192 2.395 8.94 8.94 0 01-2.816 1.306c-.983.27-1.974.451-2.944.715-.969.264-1.933.594-2.755 1.181a4.13 4.13 0 00-1.064 1.096c-.28.44-.475.943-.572 1.474-.16.828-.11 1.69.146 2.488.273.788.712 1.49 1.28 2.044a7.321 7.321 0 001.897 1.364 8.433 8.433 0 002.143.747c1.503.312 3.016.537 4.535.714 1.518.177 3.042.302 4.572.38 1.346.07 2.665.116 4.026.145l5.355.088c1.168.031 1.841.075 2.384.146.246.032.572.065.715.097.483.106-1.574.19-5.273.198-1.373 0-2.754-.011-4.145-.043-1.39-.032-2.79-.091-4.197-.181a70.537 70.537 0 01-4.234-.404l-1.06-.145c-.355-.05-.708-.114-1.061-.17l-.532-.09-.53-.104c-.355-.072-.703-.128-1.066-.22a8.751 8.751 0 01-2.088-.822 7.568 7.568 0 01-1.851-1.413 5.77 5.77 0 01-1.29-2.11 5.464 5.464 0 01-.21-2.579c.06-.435.177-.859.345-1.258.173-.399.401-.765.675-1.085a5.494 5.494 0 011.925-1.39c1.4-.628 2.86-.87 4.262-1.219.515-.12 1.023-.278 1.52-.475a8.227 8.227 0 001.417-.739 7.026 7.026 0 002.25-2.337c.28-.48.497-1.003.645-1.553.144-.564.242-1.143.293-1.727.057-.592.087-1.195.122-1.804.035-.61.083-1.227.15-1.838.27-2.45.828-4.848 1.659-7.132.2-.59.448-1.157.74-1.695a3.99 3.99 0 011.234-1.395 2.35 2.35 0 01.86-.347c.3-.052.604-.048.902.011a4.23 4.23 0 011.601.726l.01.019z" fill="#CCC"></path><path d="M31.879 84.224a1.487 1.487 0 01.727 1.308c0 .907-3.94 4.66-4.626 3.393-.121-.222-.057-.494.029-.727.472-1.308 1.358-2.429 2.133-3.563a1.271 1.271 0 011.737-.412z" fill="#000"></path><path d="M28.607 88.012c-.039.079-.074.159-.107.239-.034.08-.069.158-.089.22a.805.805 0 00-.04.163v.034a.06.06 0 000 .023.083.083 0 00.078.066.926.926 0 00.376-.069c.229-.093.448-.208.655-.343a10.353 10.353 0 002.166-1.755c.14-.15.27-.31.39-.478.11-.15.197-.317.258-.493 0-.02.012-.042.015-.058.003-.016 0-.03 0-.047a1.407 1.407 0 00-.12-.474 1.848 1.848 0 00-.373-.525c-.095-.091 0-.271.235-.347a.673.673 0 01.437.03.837.837 0 01.421.389 2.055 2.055 0 01.218.805v.154a1.333 1.333 0 01-.026.205 3.027 3.027 0 01-.052.17l-.06.133c-.04.083-.083.157-.126.228a3.928 3.928 0 01-.275.384 7.63 7.63 0 01-1.266 1.225c-.553.425-1.085.908-1.733 1.264a3.407 3.407 0 01-.573.251 1.986 1.986 0 01-.327.085c-.061 0-.12.016-.183.017a1.108 1.108 0 01-.214-.014.795.795 0 01-.217-.066l-.1-.05a.803.803 0 01-.087-.07.457.457 0 01-.08-.079l-.064-.091a.671.671 0 01-.1-.2.872.872 0 01-.038-.22 1.08 1.08 0 01.007-.197 1.68 1.68 0 01.081-.334c.175-.454.388-.892.637-1.309.365-.622.797-1.195 1.19-1.774.075-.112.145-.225.219-.338l.106-.172c.036-.06.063-.11.11-.18a1.575 1.575 0 011.183-.73c.2-.024.402.02.574.125a.307.307 0 01.145.28.59.59 0 01-.01.155c-.05.161-.25.174-.481.177a.925.925 0 00-.803.474c-.126.2-.272.425-.413.631l-.426.622c-.424.587-.795 1.211-1.109 1.864h-.009z" fill="#000"></path><path d="M29.11 79.875c.06 1.17.25 2.328.568 3.456.17.613.475 2.02 1.205 2.242a.86.86 0 00.856-.291c.198-.253.332-.55.39-.865.186-.788.21-1.6.234-2.415l.055-1.961" fill="#fff"></path><path d="M32.44 85.019a2.003 2.003 0 01-.329.526c-.152.174-.343.31-.558.396-.233.095-.49.113-.736.053a1.319 1.319 0 01-.594-.37 2.5 2.5 0 01-.451-.694 7.157 7.157 0 01-.355-1.239l-.13-.6c-.041-.204-.08-.408-.115-.612l-.203-1.085c-.082-.46-.187-.929-.13-1.403.017-.145.218-.135.418-.026a.795.795 0 01.436.567c.1.906.232 1.8.378 2.723.043.28.108.556.194.826.078.254.181.5.307.734.126.243.298.428.447.455a.598.598 0 00.544-.244c.194-.234.29-.602.377-.971a9.269 9.269 0 00.18-1.736c0-.457-.036-.91-.058-1.364 0-.1-.016-.198-.018-.3 0-.373.054-.49.262-.565.047-.019.096-.035.146-.048.16-.032.29.124.327.398.056.415.088.832.097 1.25.009.421 0 .853-.02 1.298-.019.336-.056.67-.114 1.002-.056.353-.149.7-.276 1.035l-.026-.006zM42.441 84.773c-.355-.28-.714-.553-1.073-.811-.615-.437-1.673-1.037-2.043 0-.235.658-.322 1.557.342 1.907 1.048.554 2.856 1.406 4.055 1.28.268-.03.593-.104.666-.364.064-.236-.13-.456-.31-.62a31.65 31.65 0 00-1.637-1.392z" fill="#000"></path><path d="M41.89 87.364a14.4 14.4 0 01-1.995-.916c-.115-.064-.232-.12-.35-.182l-.044-.022-.022-.011-.029-.018-.117-.073a1.109 1.109 0 01-.207-.188 1.31 1.31 0 01-.243-.418 1.687 1.687 0 01-.087-.436 2.52 2.52 0 01.081-.786c.032-.123.07-.243.114-.361l.033-.087.044-.096c.028-.067.063-.13.105-.19a.985.985 0 01.145-.18l.087-.083c.034-.024.07-.046.105-.068a.854.854 0 01.224-.099c.076-.02.154-.033.232-.039.246-.001.489.048.714.145.202.082.396.179.582.291.238.146.45.291.661.436.215.15.414.319.598.505.225.236-.566.573-1.03.233-.206-.146-.42-.322-.609-.448a3.115 3.115 0 00-.574-.32 1.147 1.147 0 00-.24-.071.562.562 0 00-.145 0c-.013.011-.037.008-.055.029-.02.02-.024.01-.034.023a1.077 1.077 0 00-.179.294 1.644 1.644 0 00-.145.793.802.802 0 00.096.323c.049.086.12.156.205.205.603.349 1.229.658 1.873.925.389.163.793.29 1.206.376.3.064.606.081.91.05a.436.436 0 00.26-.105.21.21 0 00.021-.261.471.471 0 00-.067-.086 1.144 1.144 0 00-.094-.084c-.095-.078-.197-.157-.291-.233-.2-.145-.403-.3-.605-.45-.09-.065-.182-.123-.269-.191-.327-.252-.397-.374-.339-.59a.906.906 0 01.042-.146c.067-.145.291-.145.553.01.407.243.796.516 1.163.816.095.077.18.145.282.235l.04.038.059.057c.041.041.08.086.116.132.072.089.132.186.178.29.088.204.099.432.03.642a.92.92 0 01-.41.5 1.559 1.559 0 01-.491.175l-.095.014-.083.01c-.053 0-.109 0-.162.01-.054.01-.11 0-.163 0l-.157-.007c-.106 0-.205-.017-.307-.029a6.484 6.484 0 01-1.133-.275l.012-.008z" fill="#000"></path><path d="M42.315 78.495a15.822 15.822 0 01-.568 3.456c-.17.614-.476 2.02-1.206 2.242a.86.86 0 01-.856-.29 1.985 1.985 0 01-.39-.866c-.186-.788-.21-1.6-.233-2.415l-.056-1.961" fill="#fff"></path><path d="M38.986 83.64a2 2 0 00.329.526c.152.174.343.31.558.395.233.095.49.114.735.054.228-.067.434-.196.595-.37a2.5 2.5 0 00.45-.694c.156-.401.275-.816.355-1.239l.13-.6c.042-.204.08-.409.116-.612l.202-1.085c.083-.46.188-.929.131-1.403-.017-.145-.218-.135-.419-.026a.796.796 0 00-.436.567c-.1.906-.23 1.8-.378 2.723-.043.28-.107.556-.193.826-.079.254-.181.5-.307.734-.126.243-.298.427-.448.455a.596.596 0 01-.543-.244c-.194-.234-.291-.602-.377-.971a9.278 9.278 0 01-.18-1.736c0-.457.036-.91.058-1.364 0-.1.016-.198.017-.3 0-.373-.053-.491-.261-.565a1.156 1.156 0 00-.146-.048c-.161-.032-.29.124-.327.398-.056.414-.088.831-.097 1.25-.009.42 0 .853.02 1.297.018.336.056.67.114 1.002.056.354.149.7.276 1.035l.026-.005z" fill="#000"></path><path d="M42.731 79.61a23.1 23.1 0 01-.122.708c-.07.444-.193.879-.37 1.292a.67.67 0 01-.244.313.872.872 0 01-.312.093 11.32 11.32 0 01-2.44.116 1.14 1.14 0 01-.455-.096c-.253-.13-.344-.414-.404-.671-.284-1.245-.18-2.508-.278-3.766-.103-1.33-.123-2.665-.218-3.997-.145-1.955-.436-3.9-.727-5.843-.346-2.272-.692-4.548-1.257-6.784-.064-.253-.165-.467-.451-.545-.303.355-.116 1.535-.154 2.017-.076.923-.146 1.847-.204 2.77-.126 1.849-.24 3.698-.384 5.544a95.32 95.32 0 01-.632 6.03 59.452 59.452 0 01-.513 3.068c-.182.92-.436 1.8-.697 2.7-.088.292-.187.612-.429.805-.215.146-.467.23-.726.241a7.926 7.926 0 01-1.965-.022.986.986 0 01-.421-.129.902.902 0 01-.253-.3c-.678-1.13-.678-2.586-.823-3.862a52.644 52.644 0 01-.298-4.566c-.08-3.053.024-6.106.03-9.16.007-3.12.013-6.251.291-9.363.243-2.685.321-7.269 3.148-8.922.98-.573 2.146-.823 3.3-.984 1.695-.239 3.584-.272 5.096.562 1.035.57 1.486 2.16 1.798 3.147 1.302 4.092 1.6 8.384 1.7 12.64.074 3.048.052 6.097-.064 9.146-.099 2.604-.112 5.236-.522 7.818z" fill="#000"></path><path d="M28.756 56.265c-.319 3.363-.31 6.76-.338 10.177-.027 3.418-.165 6.813.013 10.19.032.617.078 1.232.136 1.846.029.308.062.607.097.921l.089.932c.04.594.137 1.183.29 1.758.079.27.186.531.32.778.043.093.101.179.172.253a.54.54 0 00.241.07 7.58 7.58 0 001.541.06c.238-.007.475-.04.706-.097a.517.517 0 00.2-.113.673.673 0 00.146-.218c.092-.238.17-.48.235-.727.078-.257.152-.515.223-.775.145-.518.271-1.034.376-1.556.425-2.112.717-4.255.94-6.407.222-2.152.361-4.317.526-6.48l.242-3.25.064-.81.03-.405c.008-.109 0-.243 0-.375-.008-.268-.024-.544-.017-.83.003-.15.015-.299.038-.447l.024-.117.036-.125c.016-.044.038-.09.057-.133.027-.05.058-.099.091-.145l.102-.146.189.051c.11.029.214.078.305.146a.814.814 0 01.184.205c.044.068.08.142.106.22.052.145.07.261.103.38a48.543 48.543 0 01.467 2.152c.186.961.346 1.924.498 2.886.291 1.924.612 3.838.833 5.766a47.16 47.16 0 01.26 3.38c.03.563.056 1.123.092 1.681l.063.842c.017.29.026.571.035.855.016.564.023 1.12.077 1.662.025.269.064.536.116.8.048.273.12.504.222.582a.272.272 0 00.083.05.64.64 0 00.137.03c.109.015.257.02.391.028.273.013.547.013.82 0 .273-.013.545-.025.817-.052.135-.013.272-.03.407-.05.067-.008.138-.017.19-.027a.367.367 0 00.104-.034.319.319 0 00.116-.145c.047-.095.089-.192.125-.291.077-.204.14-.414.188-.627.058-.314.14-.624.244-.927.066-.146.115-.132.145.019.04.281.051.566.032.85-.009.238-.036.475-.081.708a3.28 3.28 0 01-.112.419 1.427 1.427 0 01-.106.243.809.809 0 01-.236.257.827.827 0 01-.178.09c-.054.02-.109.038-.165.051l-.273.066a9.866 9.866 0 01-1.85.22h-.344c-.13 0-.26-.007-.39-.021a1.314 1.314 0 01-.257-.06 1.038 1.038 0 01-.282-.145 1.213 1.213 0 01-.377-.458 2.233 2.233 0 01-.154-.436c-.029-.128-.06-.256-.083-.386a7.799 7.799 0 01-.104-.783c-.077-.88-.054-1.726-.108-2.533l-.045-.63-.036-.636-.058-1.265a48.742 48.742 0 00-.16-2.495 60.559 60.559 0 00-.291-2.486c-.113-.83-.237-1.66-.36-2.495-.124-.835-.25-1.665-.383-2.494a65.888 65.888 0 00-.444-2.471c-.084-.41-.17-.819-.266-1.224l-.07-.304c-.026-.1-.052-.218-.07-.272a.338.338 0 00-.043-.1c-.007 0 0-.008-.04-.02l.4-.236c.02.019.04.036.062.052.019.013.052.032.042.023v.016l-.012.03c-.004.015-.008.025-.011.043-.017.079-.028.16-.034.24a4.88 4.88 0 000 .581c.01.202.018.416.016.657 0 .056 0 .137-.008.192l-.014.159-.026.317c-.067.845-.134 1.69-.203 2.537a5535.4 5535.4 0 00-.4 5.102c-.263 3.043-.589 6.158-1.195 9.254a22.635 22.635 0 01-.582 2.31l-.167.57a2.23 2.23 0 01-.283.638 1.22 1.22 0 01-.291.29c-.11.078-.232.139-.36.18-.215.061-.434.1-.656.115a8.05 8.05 0 01-1.229.024 7.891 7.891 0 01-.612-.055 2.16 2.16 0 01-.34-.064.978.978 0 01-.402-.218 1.385 1.385 0 01-.242-.31c-.054-.094-.108-.187-.156-.29a4.51 4.51 0 01-.24-.582 6.862 6.862 0 01-.276-1.202 21.474 21.474 0 01-.138-1.3l-.061-.633-.067-.644a50.338 50.338 0 01-.177-2.585 94.227 94.227 0 01-.059-5.165c.02-1.719.06-3.435.072-5.147.011-1.713.016-3.433.066-5.154.031-1.059.08-2.117.155-3.176.037-.527.084-1.061.132-1.583l.135-1.58c.088-1.052.256-2.096.502-3.122.128-.527.3-1.042.514-1.541.214-.508.495-.985.833-1.419a4.69 4.69 0 01.908-.88c.341-.245.711-.449 1.102-.606a10.252 10.252 0 012.377-.612 14.138 14.138 0 012.434-.183c.829.004 1.651.152 2.43.436.196.075.387.161.572.259a2.324 2.324 0 01.542.376c.306.3.557.648.743 1.033.377.745.595 1.525.83 2.287.236.762.437 1.548.604 2.326.167.778.312 1.57.436 2.36.37 2.455.516 4.908.599 7.348.083 2.44.11 4.874.068 7.319a197.23 197.23 0 01-.075 3.21c-.095 4.017-.327 5.317-.642 6.144a4.79 4.79 0 01-.22.544c-.23.349-.033-1.262.046-4.185.032-1.084.044-2.18.07-3.287a165.095 165.095 0 00-.028-10.061 61.132 61.132 0 00-.545-6.774 34.078 34.078 0 00-.648-3.334 29.843 29.843 0 00-.457-1.635 16.324 16.324 0 00-.555-1.585 4.04 4.04 0 00-.57-.974 1.771 1.771 0 00-.362-.334l-.098-.061-.126-.066a2.379 2.379 0 00-.26-.122 6.243 6.243 0 00-2.314-.458c-.828-.01-1.655.055-2.471.195a8.685 8.685 0 00-2.326.654c-.347.16-.67.367-.957.618a4.233 4.233 0 00-.747.872 7.639 7.639 0 00-.927 2.219c-.203.813-.349 1.639-.436 2.472-.096.84-.145 1.69-.23 2.557l-.018.003z" fill="#000"></path><path d="M65.749 44.968c.256 2.175.578 4.342.964 6.5.242 1.36.516 2.732 1.112 3.978.276.582.622 1.13.782 1.745.16.615.093 1.35-.365 1.798-.186.182-.478.307-.707.18-.228-.126-.191-.568.07-.57-.17.206-.535.06-.645-.182-.11-.243-.064-.525-.069-.793-.013-.794-.482-1.497-.907-2.168-1.97-3.111-3.36-6.78-2.895-10.434" fill="#fff"></path><path d="M66.95 56.133c.124.246.225.503.3.769a2.763 2.763 0 01.099.864c0 .13-.013.24-.009.322a.758.758 0 00.022.137v.009l-.046.021.03-.017h.009s0 .007.008.01a.258.258 0 00.022.016c0-.013-.009.036-.009.063a.212.212 0 000 .043.17.17 0 000 .037c.01.043.025.043 0 .016l.223.413c0-.028-.012-.053 0-.035.018.022.04.04.065.052.036.018.075.03.115.033a.224.224 0 00-.12.061c-.069.123.091-.167.075-.136v-.015a.258.258 0 00.154-.055.767.767 0 00.2-.212c.118-.189.183-.405.189-.627.009-.242-.02-.484-.088-.717a8.039 8.039 0 00-.574-1.333 10.078 10.078 0 01-.582-1.471 22.885 22.885 0 01-.635-3.03c-.145-.893-.3-1.79-.446-2.677-.19-1.137-.403-2.28-.458-3.434-.032-.727.81.099.991 1.403a398.372 398.372 0 00.768 5.22c.09.581.185 1.148.311 1.71.148.68.383 1.338.7 1.958.16.318.341.645.49 1.006.078.184.142.373.193.566.05.201.078.408.083.616a2.3 2.3 0 01-.128.837c-.05.14-.117.274-.2.397a1.659 1.659 0 01-.306.345c-.132.11-.287.188-.454.23a.775.775 0 01-.606-.09.605.605 0 01-.237-.291.705.705 0 01-.044-.326.634.634 0 01.132-.337c.05-.06.11-.11.18-.146a.832.832 0 01.114-.039.979.979 0 01.114-.012l.692-.03-.445.552a.603.603 0 01-.436.21.811.811 0 01-.795-.686 2.146 2.146 0 01-.023-.543c.01-.14.004-.279-.015-.417a3.597 3.597 0 00-.503-1.258c-.245-.41-.515-.836-.76-1.265a21.92 21.92 0 01-1.017-2.007c-.31-.684-.58-1.385-.812-2.098a15.913 15.913 0 01-.769-3.378 8.296 8.296 0 01-.058-.763c-.014-.963.1-1.267.319-1.444a.79.79 0 01.145-.115c.083-.035.145.047.19.218.046.252.07.507.073.762A15.69 15.69 0 0063.768 49c.237 1.005.558 1.99.96 2.941.3.714.64 1.416 1.017 2.102l.291.51c.099.17.202.335.302.504.2.333.437.677.63 1.066l-.019.01z" fill="#000"></path><path d="M29.25 56.844c.067.769.727 1.138.873 1.804.157.727-.243.497-.624.436.01.508.29 1.1.436 1.6.098.32.194.668.07.978-.346.01-.551-.38-.63-.718-.027-.116-.103-.266-.215-.228.018.379-.001.758-.056 1.134-.092.077-.208-.063-.246-.178l-.337-1.03c-.018-.056-.046-.121-.104-.145-.107-.029-.16.127-.16.239v.88a.301.301 0 01-.045.196c-.103.122-.306.009-.382-.133-.21-.39-.036-.898-.234-1.293-.02-.043-.055-.088-.102-.082a.108.108 0 00-.071.063c-.076.145-.061.31-.108.46-.046.152-.218.291-.353.21a.323.323 0 01-.115-.231c-.192-1.1-.272-2.617.207-3.657" fill="#fff"></path><path d="M27.944 61.43v-.09c0-.021.008-.036.01-.053l.02-.103.041-.204.08-.406.04-.202.008-.05c0-.017.01-.014.014-.021a.316.316 0 01.198-.093.218.218 0 01.145.028c.007 0 .01 0 .019.017l.024.05.048.103.096.202.188.403.184.4.024.049c.009.02.017.039.023.06l.025.072v.028l-.018.019a.307.307 0 00-.075.13c0 .022 0 .008-.02-.02l-.19.051a6.01 6.01 0 00.061-.9v-.36l.182-.07a.376.376 0 01.304.033c.015.01.029.02.042.032h.01l.008.012a.175.175 0 01.016.05c.007.04.02.08.036.117.018.042.045.08.078.112a.2.2 0 00.095.048.065.065 0 00.013-.022.488.488 0 00-.013-.323l-.026-.096-.025-.078-.04-.115a6.925 6.925 0 01-.145-.471 2.86 2.86 0 01-.117-.682v-.22l.215.035.128.024.107.021a.496.496 0 00.112.014.084.084 0 00.082-.066.303.303 0 000-.109 1.18 1.18 0 00-.133-.385 3.68 3.68 0 00-.264-.397 3.671 3.671 0 01-.291-.445 1.538 1.538 0 01-.176-.54c-.019-.247.124-.201.273-.058.083.07.168.157.27.253.114.112.22.233.315.362.19.274.456.596.535 1.076l.016.096v.125a.903.903 0 01-.02.245.535.535 0 01-.291.338.79.79 0 01-.474.022c-.1-.019-.124-.026-.166-.036l-.108-.022.389-.343c.02.31.084.614.19.906l.079.245c.045.137.094.3.133.436.037.133.064.27.08.406.01.105.01.21 0 .314-.023.172-.068.34-.132.5l-.063.037c-.036 0-.074 0-.109-.008a.823.823 0 01-.19-.036.748.748 0 01-.29-.186 1.25 1.25 0 01-.23-.314 2.871 2.871 0 01-.131-.29l-.035-.095c0-.015-.015-.035-.012-.044l.07-.106c.022-.035 0-.04.017 0l.201-.131a5.26 5.26 0 01-.065 1.186l-.013.083-.066.058a.327.327 0 01-.234.075.374.374 0 01-.18-.073.582.582 0 01-.146-.182.8.8 0 01-.032-.106l-.065-.225-.037-.123a.185.185 0 00-.024-.06.043.043 0 00-.024-.018.043.043 0 00-.03.002.109.109 0 00-.04.095V61.858l-.01.023a.333.333 0 01-.233.177.435.435 0 01-.346-.101.583.583 0 01-.15-.182l-.028-.06a1.055 1.055 0 01-.071-.245 1.195 1.195 0 01-.018-.12v-.073a1.849 1.849 0 00-.023-.354.704.704 0 00-.029-.087c-.01-.026-.033-.061-.065-.052-.032.008-.057.097-.069.145a.406.406 0 01-.046.173.22.22 0 01-.03.035l-.017.016a.201.201 0 01-.032.02.33.33 0 01-.488-.145.707.707 0 01-.054-.195 8.616 8.616 0 01-.052-.327 9.863 9.863 0 01-.133-2.035c.012-.153.02-.303.045-.455.014-.208.061-.411.141-.602a.385.385 0 01.224-.205.493.493 0 01.117-.035c.12 0 .097.227.03.594a7.415 7.415 0 00-.06 1.745c.02.3.053.599.097.9l.036.225.019.112c.003.02.007.04.013.06l-.019.009-.061.029a.404.404 0 00-.061.043l-.015.012s0 .009 0 0a.24.24 0 00-.032-.106l-.008-.016v-.008l-.03-.043v-.01c0-.03.014-.054.02-.089.008-.074.023-.145.04-.233a.82.82 0 01.115-.258.49.49 0 01.186-.152.424.424 0 01.284-.014.455.455 0 01.215.148c.092.13.151.28.174.436.033.221.05.444.053.668v.09c0 .023.007.043.01.065a.629.629 0 00.03.108l.018.038.008.008v.013a.307.307 0 00-.023.059.22.22 0 00-.013.104c0 .025.009.02 0 0H28.1l.01.009h-.01a.079.079 0 00-.022-.01l-.135-.057v-.009-.215h.001z" fill="#000"></path><path d="M32.414 30.796c1.053-.496 2.698-.51 3.844-.362a6.026 6.026 0 013.263 1.481c.952.865 1.813 1.93 2.346 3.106.362.8.596 2.563 1.639 2.762.455.087.833.023 1.058-.179a3.56 3.56 0 00.626-.757c.49-.788.872-1.685 1.308-2.517.208-.44.475-.849.794-1.215.334-.35.794-.612 1.28-.6a.854.854 0 01.719.357c.074.137.116.29.12.445.086 1.052-.931 5.38-1.199 6.467-.488 1.992-1.09 4.155-2.762 5.339a4.361 4.361 0 01-3.589.64" fill="#666"></path><path d="M48.894 34.025c.016-.121.032-.243.038-.358a2.77 2.77 0 00.011-.317.672.672 0 00-.039-.217.183.183 0 00-.074-.087.49.49 0 00-.185-.067.813.813 0 00-.244 0c-.188.03-.367.104-.522.215-.336.226-.6.605-.842 1.035a35.5 35.5 0 00-.708 1.353c-.17.337-.34.679-.527 1.017-.093.17-.19.336-.291.506a3.762 3.762 0 01-.573.697c-.033.033-.068.064-.103.096a1.3 1.3 0 01-.156.113c-.198.115-.422.18-.651.19-.2.01-.4-.007-.596-.05l-.165-.05-.08-.026-.076-.04-.146-.08c-.045-.031-.087-.066-.13-.1a2.436 2.436 0 01-.657-.947 9.089 9.089 0 01-.34-.976l-.145-.467c-.026-.072-.05-.145-.077-.216a2.513 2.513 0 00-.09-.213 7.651 7.651 0 00-.45-.84 9.792 9.792 0 00-1.786-2.127 5.136 5.136 0 00-.67-.505 5.582 5.582 0 00-1.53-.668 6.109 6.109 0 00-1.057-.185 11.371 11.371 0 00-1.09-.04 8.235 8.235 0 00-2.122.261c-.206.061-.312.055-.341-.019-.03-.074.03-.212.19-.372.313-.33 1.072-.692 1.985-.715a10.77 10.77 0 011.205.029c.41.031.816.095 1.215.19.81.201 1.573.556 2.248 1.047.168.124.33.256.484.397.154.138.291.276.436.42.275.288.533.59.775.904a8.782 8.782 0 011.229 2.085c.097.247.161.476.228.7.067.224.13.443.205.654.07.204.155.404.255.596.087.166.205.314.347.436.03.028.063.05.099.069.032.02.067.035.103.046l.054.016c.02.008.04.013.061.016.05.009.099.016.145.02.168.023.339 0 .495-.066a.385.385 0 00.075-.051 2.441 2.441 0 00.323-.34 4.5 4.5 0 00.368-.544c.515-.86.922-1.822 1.454-2.744.138-.242.299-.47.48-.683.192-.226.421-.416.678-.563.27-.157.574-.243.886-.25.166-.004.331.024.487.08.167.06.317.16.436.29a.919.919 0 01.176.292c.035.096.058.196.07.298.01.09.015.182.013.273.001.087-.003.174-.012.26-.023.337-.074.654-.125.976a43.79 43.79 0 01-.365 1.89c-.203.948-.424 1.89-.655 2.835-.217.95-.485 1.886-.801 2.807a8.477 8.477 0 01-1.036 2.036 5.63 5.63 0 01-.779.872 4.545 4.545 0 01-.968.663 4.474 4.474 0 01-.982.358 3.72 3.72 0 01-.82.102 2.62 2.62 0 01-.56-.047.936.936 0 01-.565-.29.843.843 0 01-.135-.178c-.036-.092.076-.137.29-.145.216-.01.537-.015.943-.056a4.196 4.196 0 001.711-.555 3.9 3.9 0 00.718-.551c.224-.213.425-.448.602-.7a7.443 7.443 0 00.873-1.722c.228-.637.422-1.286.581-1.944.249-.995.484-2.005.708-3.014.224-1.01.436-2.025.566-3.015h.02z" fill="#000"></path><path d="M44.484 43.269c.29-.014.58.046.84.173a.531.531 0 01.273.351.507.507 0 01-.19.451c-.136.105-.29.184-.455.233-.438.155-.886.279-1.341.37-.426.103-.866.13-1.302.083a1.726 1.726 0 01-1.127-.605c-.172-.22-.363-.683-.226-.966.152-.311.543-.2.839-.19l2.69.1z" fill="#CCC"></path><path d="M47.927 39.676a89.854 89.854 0 01-7.896 2.26c.127.408.268.812.423 1.21a.951.951 0 00.305.467.97.97 0 00.498.127c3.562.241 7.14.144 10.684-.291" fill="#fff"></path><path d="M43.668 44.328a50.829 50.829 0 01-1.483-.091l-.74-.061c-.126-.012-.236-.018-.39-.037a1.19 1.19 0 01-.53-.19 1.044 1.044 0 01-.317-.372 4.696 4.696 0 01-.243-.608l-.1-.29-.146-.446-.145-.429-.035-.106a.21.21 0 01-.015-.05l.057-.014.224-.05.806-.164 1.017-.222a67.82 67.82 0 002.026-.487c.597-.154 1.19-.336 1.77-.526.748-.246 1.48-.54 2.251-.711.481-.108.132.802-.737 1.09a37.48 37.48 0 01-4.708 1.243c-.48.093-.962.21-1.454.326l-.182.043-.058.014c-.017 0-.05 0-.03.029.04.123.083.245.123.367.054.16.105.325.16.48a.64.64 0 00.156.275c.114.057.24.084.368.08l.555.047c.37.026.74.053 1.11.074.668.038 1.337.065 2.006.074 1.018.013 2.035.013 3.036-.053.78-.047 1.54-.16 2.305-.266.17-.023.333-.053.503-.075.63-.077.836-.055.996.135.04.04.077.083.108.13.08.145-.163.312-.625.412-1.427.28-2.875.437-4.328.467a48.34 48.34 0 01-3.31-.013v-.025zM56.37 84.556c.19.006.378.039.558.098 1.286.436 1.416 4.07 1.35 4.25a.377.377 0 01-.447.248c-.166-.064-.225-.263-.263-.436l-.29-1.343c-.582.815-1.184 1.644-2.019 2.194-.962.635-.917-.418-.8-1.059a33.08 33.08 0 01.71-3.039c.177-.63.506-.936 1.207-.913" fill="#000"></path><path d="M55 89.155c.342-.218.656-.478.934-.775.072-.075.145-.154.215-.232l.104-.121.187-.233c.245-.315.484-.642.716-.958l.311-.436c.083.346.165.71.239 1.077l.251 1.26c.008.03.018.059.03.087l-.022.02a.108.108 0 00-.018.019l-.009.011s0 .01 0 0l-.008.024a.142.142 0 000-.042c0-.012 0-.025-.01-.038-.01-.013 0 0 0-.007a.07.07 0 00.036-.025.048.048 0 00.009-.009l.276.106h-.009l-.035-.014c-.023-.008-.046-.016-.071-.022a.713.713 0 00-.145-.019h-.027v-.01a.256.256 0 000-.04c0-.059.008-.127.01-.194v-.413a10.01 10.01 0 00-.063-.833 5.858 5.858 0 00-.34-1.42 2.473 2.473 0 00-.437-.728.949.949 0 00-.267-.209l-.034-.017-.046-.02-.095-.031a2.645 2.645 0 00-.199-.058c-.169-.037-.161-.237.036-.418a.785.785 0 01.794-.133c.125.046.24.117.336.209.155.149.286.32.391.507.096.167.178.342.246.522.124.337.218.685.28 1.038a8.87 8.87 0 01.126 2.08l-.014.168v.048l-.007.06a.658.658 0 01-.067.194.83.83 0 01-.417.371.672.672 0 01-.333.044.646.646 0 01-.321-.146.873.873 0 01-.272-.436l-.025-.093-.017-.075-.015-.064-.027-.127a8.365 8.365 0 01-.054-.264l-.012-.072-.007-.035v-.019s0-.013 0 0l-.122.146-.172.198a7.2 7.2 0 01-.872.882c-.112.093-.23.18-.35.265-.063.042-.117.078-.188.123a1.821 1.821 0 01-.262.134.769.769 0 01-.571.04.638.638 0 01-.355-.435 1.238 1.238 0 01-.044-.224 1.682 1.682 0 01-.01-.216 3.94 3.94 0 01.079-.667l.062-.31.268-1.228c.071-.317.134-.632.198-.947l.097-.47.025-.12.033-.13c.026-.09.058-.18.095-.265.07-.172.175-.326.31-.454.114-.104.25-.182.396-.23a.794.794 0 01.291-.034.373.373 0 01.182.06c.047.03.086.073.112.123.03.045.055.094.074.145.05.166-.192.265-.412.387-.07.041-.13.1-.173.17a.982.982 0 00-.112.259c-.017.055-.03.11-.042.167l-.045.208c-.032.145-.064.283-.094.427-.127.57-.26 1.147-.377 1.727l-.13.649c-.037.183-.058.37-.062.557 0 .016-.007.017 0 .027a.012.012 0 00.006.002c.002 0 .004 0 .006-.002.01 0-.009.012.062-.033l-.007.01z" fill="#000"></path><path d="M54.442 74.068c.032 2.018.2 4.03.426 6.035.112.987.238 1.973.37 2.957.115.86.337 1.67.088 2.511-.186.634-.346 1.36 0 1.92a.29.29 0 00.176.145.31.31 0 00.25-.118c1.32-1.246 1.6-3.517 2.11-5.18.306-.937.565-1.888.774-2.851.375-1.875.72-3.58.738-5.525" fill="#fff"></path><path d="M57.696 84.843a9.963 9.963 0 01-.685 1.7c-.07.144-.159.272-.237.408a2.746 2.746 0 01-.28.39l-.078.094c-.035.04-.077.097-.12.145-.09.092-.185.16-.277.242l-.145.116a.483.483 0 01-.07.055l-.07.03a.599.599 0 01-.306.028.59.59 0 01-.372-.241l-.05-.058-.042-.072a1.7 1.7 0 01-.23-.657c-.012-.06-.012-.107-.016-.145-.004-.038 0-.08 0-.12v-.232c.01-.146.028-.292.055-.436.027-.145.06-.28.096-.413l.102-.362c.085-.409.097-.83.035-1.243-.025-.221-.058-.45-.089-.682-.03-.233-.052-.468-.077-.698l-.29-2.762-.243-2.459c-.1-1.047-.213-2.102-.146-3.156.02-.329.22-.291.419-.015.267.407.418.878.436 1.364.115 2.113.316 4.227.49 6.373.025.32.055.644.09.968.035.324.092.638.138.978.054.354.069.712.045 1.069a2.783 2.783 0 01-.094.55c-.025.098-.047.164-.068.242-.022.079-.042.146-.06.226-.07.253-.1.515-.089.777a.287.287 0 000 .053v.039a.493.493 0 00.022.08c.022.048.042.113.1.13a.126.126 0 00.102-.047l.089-.086.145-.18.17-.244c.217-.343.4-.707.544-1.085.319-.806.528-1.668.765-2.534.179-.665.407-1.309.595-1.945a17.3 17.3 0 00.491-1.952c.193-1.01.334-2.029.423-3.053.015-.222.03-.436.044-.666.053-.83.1-1.092.312-1.269a.8.8 0 01.146-.118c.158-.081.29.27.306.907.004.962-.072 1.922-.228 2.87-.074.48-.161.96-.251 1.437-.047.237-.09.478-.146.727a25.388 25.388 0 01-.481 1.79l-.163.523-.083.26-.075.25c-.198.675-.367 1.389-.582 2.104l-.017.005zM64.45 84.29c-.352-.347-.881-.245-1.175.096-1.079 1.25-2.316 2.95-2.762 4.563a.402.402 0 000 .279.366.366 0 00.145.134 1.348 1.348 0 001.326.027c.219-.133.415-.3.581-.496.582-.628 1.062-1.326 1.574-2.006l.08 1.163c-.002.13.028.26.087.377a.279.279 0 00.33.133c.118-.052.157-.197.18-.324a8.951 8.951 0 00.02-3.018c-.058-.336-.144-.69-.386-.928z" fill="#000"></path><path d="M63.714 88.262l-.022.015-.015.01a.303.303 0 00-.027.03l-.221.262c-.079.092-.157.184-.238.272a9.173 9.173 0 01-.513.532 2.036 2.036 0 01-.727.466 1.804 1.804 0 01-1.137.023.86.86 0 01-.078-.03c-.026-.01-.076-.028-.106-.044a.93.93 0 01-.458-.391.824.824 0 01.011-.649l.075-.22.078-.198c.103-.264.227-.515.353-.762.262-.486.553-.955.873-1.405.31-.436.625-.884.948-1.308l.312-.409.16-.202.04-.05.021-.026.03-.032a1.111 1.111 0 01.753-.38c.24-.022.48.05.668.2.114.093.11.182.054.231a.954.954 0 01-.284.121.85.85 0 00-.297.166 1.76 1.76 0 01-.194.171.349.349 0 00-.083.072l-.155.181-.323.388c-.214.261-.424.525-.628.791-.412.53-.796 1.08-1.149 1.65a5.184 5.184 0 00-.38.764c-.05.132-.102.266-.146.401l-.015.048a.194.194 0 00-.008.035.096.096 0 000 .07c.026.031.06.055.098.068h.01l.031.012a1.06 1.06 0 00.712-.012c.176-.079.334-.191.466-.331.157-.154.314-.323.464-.495l.222-.26.11-.134.146-.176.794-1.033.382-.498.025-.03v.122l.01.164.02.327.06.975.015.24.008.122a.626.626 0 00.012.097c.005.03.015.058.028.084a.105.105 0 00.032.035h.014a.06.06 0 000 .024c0 .008.007.024 0 0 0 0-.017-.02-.01-.016a.435.435 0 00.058-.192c.038-.21.066-.42.084-.63a7.332 7.332 0 00-.12-1.932c-.026-.146-.061-.276-.089-.41-.052-.246-.092-.377-.102-.478-.007-.1.012-.201.057-.291.022-.05.032-.105.054-.146.036-.075.12-.102.245-.04.167.1.296.254.365.436.066.157.12.319.159.484a7.067 7.067 0 01.208 1.435 7.771 7.771 0 01-.079 1.486c-.011.083-.026.164-.039.247-.021.14-.066.273-.134.397a.747.747 0 01-.986.31.848.848 0 01-.345-.291 1.018 1.018 0 01-.146-.337l-.011-.056v-.01a.17.17 0 000-.038h-.015l.015-.022z" fill="#000"></path><path d="M62.68 70.644c1.496 3.967 1.435 7.895 1.622 12.012.066 1.454.194 2.517-.832 3.663-.28.313-.57.615-.873.906a1.017 1.017 0 01-.436.29.36.36 0 01-.436-.199.436.436 0 01.018-.257c.122-.381.417-.68.581-1.041.506-1.096.045-2.315-.29-3.377a94.898 94.898 0 00-1.164-3.345c-.712-1.924-1.427-3.874-2.316-5.728" fill="#fff"></path><path d="M62.924 85.823c-.036.119-.08.236-.131.349l-.02.042-.01.014c-.015.02-.036.043-.054.069-.02.026-.044.062-.034.099a.054.054 0 00.03.032.056.056 0 00.044 0 .3.3 0 00.077-.057l.041-.035.022-.019.01-.008.038-.038.216-.218c.067-.073.125-.146.188-.216a3.03 3.03 0 00.302-.46c.253-.471.309-1.018.313-1.6 0-.514-.026-1.066-.034-1.6l-.031-1.622a69.93 69.93 0 00-.115-3.227 23.379 23.379 0 00-.352-2.828c-.221-1.19-.575-2.345-.903-3.504-.1-.36.1-.388.391-.145.424.389.725.895.864 1.454.335 1.232.56 2.491.673 3.764.122 1.264.158 2.53.157 3.793 0 .756.017 1.524.048 2.293l.052 1.163c.024.405.014.81-.03 1.214a3.5 3.5 0 01-.436 1.329c-.118.2-.254.389-.405.565l-.113.13-.114.116-.267.272c-.214.24-.45.46-.702.66-.17.131-.375.21-.59.227a.646.646 0 01-.338-.09.488.488 0 01-.227-.274.736.736 0 01-.014-.29c.015-.109.042-.215.083-.316.064-.164.144-.321.24-.47l.168-.261c.028-.044.056-.088.08-.131l.035-.067a2.072 2.072 0 00.205-.717 4.071 4.071 0 00-.157-1.454c-.099-.37-.22-.743-.342-1.12l-.38-1.12c-.255-.746-.508-1.489-.776-2.225a71.103 71.103 0 00-1.376-3.335l-.326-.715c-.4-.899-.491-1.198-.394-1.479a.937.937 0 01.067-.187c.1-.156.401.152.743.804.507.987.965 2 1.37 3.034.21.522.414 1.051.614 1.58.201.53.384 1.078.575 1.618l.418 1.209.208.605.195.609c.142.43.247.873.314 1.321.035.24.047.484.037.727-.01.253-.05.504-.123.746l-.024-.01z" fill="#000"></path><path d="M64.45 84.09c-.352-.347-.881-.245-1.175.096-1.079 1.25-2.316 2.95-2.762 4.562a.402.402 0 000 .279.369.369 0 00.145.135 1.351 1.351 0 001.326.026c.219-.133.415-.3.581-.495.582-.627 1.062-1.325 1.574-2.007l.08 1.163c-.002.131.028.26.087.377a.279.279 0 00.33.134c.118-.053.157-.198.18-.325a8.951 8.951 0 00.02-3.018c-.058-.334-.144-.688-.386-.927z" fill="#000"></path><path d="M63.713 88.062l-.021.014-.015.01a.281.281 0 00-.027.03l-.221.265-.238.272a9.191 9.191 0 01-.513.531 2.035 2.035 0 01-.727.465 1.843 1.843 0 01-.977.067 1.516 1.516 0 01-.16-.043l-.078-.028c-.032-.015-.076-.03-.106-.047a.923.923 0 01-.458-.39.823.823 0 01.011-.648l.075-.222.078-.198c.103-.263.227-.513.353-.762.262-.485.553-.954.873-1.404.31-.436.625-.883.948-1.309l.312-.408.16-.202.04-.051.021-.025.03-.032a1.122 1.122 0 01.753-.381.95.95 0 01.668.2c.114.095.11.182.054.232a.955.955 0 01-.284.12.871.871 0 00-.298.166 1.77 1.77 0 01-.193.172.386.386 0 00-.083.071l-.155.182-.323.388c-.214.26-.423.525-.628.791-.412.53-.796 1.081-1.149 1.652a5.111 5.111 0 00-.38.761c-.05.133-.102.267-.146.402l-.015.048a.302.302 0 00-.008.035.1.1 0 000 .07c.026.032.06.055.098.07h.01l.031.01a1.078 1.078 0 00.202.048.999.999 0 00.51-.059c.176-.079.334-.191.466-.331a8.79 8.79 0 00.464-.493l.222-.262.11-.134.146-.175.794-1.033.382-.498.025-.031v.122l.01.164.02.328.06.975.015.24.008.12a.67.67 0 00.012.1.345.345 0 00.028.082.106.106 0 00.032.035c.004.004.009.006.014.008a.068.068 0 000 .024c0 .009.007.023 0 0 0 0-.017-.02-.01-.016a.436.436 0 00.058-.192c.038-.209.066-.418.084-.63a7.328 7.328 0 00-.12-1.931c-.026-.137-.061-.277-.089-.409-.052-.247-.092-.376-.102-.48a.56.56 0 01.057-.29c.022-.049.032-.105.054-.146.036-.076.12-.102.245-.04.167.1.296.254.365.436.066.156.12.317.159.482a7.085 7.085 0 01.208 1.435 7.792 7.792 0 01-.079 1.486c-.011.083-.026.164-.039.247-.021.14-.066.274-.134.397a.75.75 0 01-.986.311.871.871 0 01-.345-.29 1.034 1.034 0 01-.146-.338l-.012-.056v-.01a.197.197 0 000-.038H63.7l.014-.032z" fill="#000"></path><path d="M62.68 70.45c1.497 3.965 1.435 7.894 1.622 12.011.066 1.454.194 2.517-.832 3.664-.224.249-1.579 1.7-2.051 1.01a.193.193 0 01-.016-.146c.126-.778.785-1.355 1.01-2.104.252-.829-2.17-6.008-3.862-11.516" fill="#fff"></path><path d="M62.511 85.823c-.161.26-.32.49-.436.71l-.044.08-.008.018-.014.025a.136.136 0 00-.017.06c.017.043.07.043.11.026l.032-.015c.051-.029.1-.062.146-.097.102-.07.202-.146.302-.231.2-.17.392-.35.572-.541.168-.182.318-.382.444-.595.274-.467.345-1.009.355-1.6.01-.514-.023-1.068-.03-1.613l-.032-1.634a73.068 73.068 0 00-.114-3.253 23.75 23.75 0 00-.352-2.846c-.219-1.2-.581-2.363-.907-3.529-.102-.365.1-.393.393-.145.425.394.726.904.865 1.467.336 1.24.563 2.509.676 3.79.12 1.273.156 2.549.153 3.82 0 .761.019 1.535.05 2.31.018.387.035.775.051 1.163.023.41.007.82-.046 1.227-.06.413-.195.813-.396 1.179a4.233 4.233 0 01-.75.956c-.279.286-.587.54-.919.762l-.067.041-.093.055c-.067.034-.132.069-.199.095a1.288 1.288 0 01-.401.099.797.797 0 01-.374-.069.728.728 0 01-.29-.253.374.374 0 01-.051-.186V87a.32.32 0 01.008-.103c.028-.15.071-.296.13-.436.024-.054.046-.11.071-.163l.06-.115c.04-.073.08-.145.123-.214.083-.145.169-.269.252-.397.16-.234.291-.488.39-.754a.63.63 0 000-.217 2.78 2.78 0 00-.049-.29 8.149 8.149 0 00-.16-.607 45.854 45.854 0 00-.769-2.243c-.27-.746-.545-1.482-.821-2.22-.436-1.146-.904-2.258-1.332-3.398-.094-.252-.192-.495-.282-.75-.329-.947-.37-1.271-.237-1.537a.952.952 0 01.093-.176c.125-.138.368.21.635.888.797 2.01 1.614 4.13 2.428 6.278.258.682.512 1.368.754 2.067.119.35.237.703.34 1.07.052.184.102.371.145.573.021.11.037.219.047.329.016.152.005.306-.032.455l-.042.12a2.098 2.098 0 01-.132.308c-.063.13-.133.25-.201.365l-.028-.01z" fill="#000"></path><path d="M62.993 73.86c.213-.338.185-.766.146-1.163a.969.969 0 00-.131-.483.826.826 0 00-.551-.275c-1.072-.18-3.187.545-2.805 1.973.383 1.428 2.738.912 3.341-.052zM58.398 74.828c.192-.337.167-.764.137-1.163 0-.168-.04-.334-.12-.483a.725.725 0 00-.5-.274c-.977-.18-2.907.545-2.554 1.973.353 1.427 2.486.911 3.037-.053z" fill="#CCC"></path><path d="M61.5 46.277c4.811 7.729 7.415 16.5 7.541 25.39.028 1.955-1.55.824-2.625.418a6.134 6.134 0 00-1.09-.337 3.126 3.126 0 00-2.036.352c-.582.318-.756.818-1.211 1.214-1.057.914-3.032 1.067-4.349 1.263-2.074.311-4.235.62-6.222.128-.624-.154-1.23-.391-1.687-.778-.835-.707-1.051-1.784-1.163-2.797-.403-3.529-.055-7.124.544-10.66.844-4.983 2.398-10.249 6.717-13.792" fill="#fff"></path><path d="M50.595 73.86c.401.204.83.351 1.272.436.458.098.923.16 1.391.185.961.04 1.924-.003 2.877-.128.485-.057.97-.125 1.454-.195.485-.07.986-.128 1.464-.2.471-.068.937-.165 1.396-.29a4.087 4.087 0 001.216-.55c.06-.047.125-.091.178-.145.057-.05.11-.104.16-.161.106-.118.21-.256.33-.404.13-.164.276-.314.437-.447.085-.07.175-.133.27-.189a3.587 3.587 0 011.436-.467c.406-.04.817-.005 1.21.102.321.093.637.204.945.332.317.13.6.273.873.397.245.122.508.207.779.253a.678.678 0 00.136 0 .223.223 0 00.075-.03.35.35 0 00.112-.19c.058-.274.074-.555.049-.834l-.022-.945c0-.314-.023-.63-.042-.944l-.054-.944a47.558 47.558 0 00-1.147-7.471 45.29 45.29 0 00-2.027-6.397c-.519-1.33-1.132-2.625-1.76-3.908l-.49-.954c-.083-.159-.16-.319-.246-.476l-.244-.46-.508-.944-.529-.93c-.436-.777-.206-.784.35-.233a9.918 9.918 0 01.746.845c.093.117.183.247.28.38.19.27.39.566.591.887.202.322.388.678.582 1.049a47.954 47.954 0 013.302 8.25c.056.176.107.355.154.535l.145.537.145.538c.05.179.095.36.136.54.167.726.343 1.453.475 2.18.29 1.454.492 2.936.643 4.419.039.436.077.89.116 1.337.04.448.054.9.08 1.352.026.453.036.908.05 1.363 0 .226.015.455.021.683.013.264-.016.529-.085.784-.045.16-.125.31-.235.436a.923.923 0 01-.476.279 1.324 1.324 0 01-.47.012 2.356 2.356 0 01-.39-.092c-.48-.156-.887-.374-1.288-.542a11.715 11.715 0 00-.613-.232 4.014 4.014 0 00-.602-.16 2.688 2.688 0 00-1.187.07 2.807 2.807 0 00-.61.25c-.181.102-.342.236-.474.396-.146.171-.291.384-.495.581-.199.198-.423.369-.666.51a5.814 5.814 0 01-1.48.56 15.29 15.29 0 01-1.5.274c-.497.07-.983.128-1.479.202-.495.074-.99.137-1.49.189a15.439 15.439 0 01-3.037.068 8.34 8.34 0 01-1.863-.369c-.31-.1-.61-.235-.89-.401a2.929 2.929 0 01-.769-.65 3.368 3.368 0 01-.51-.856c-.12-.301-.21-.612-.272-.93a9.581 9.581 0 01-.133-.931c-.03-.307-.063-.615-.082-.924a33.49 33.49 0 01.108-5.6c.183-1.858.464-3.693.814-5.509a37.673 37.673 0 011.035-4.161 21.18 21.18 0 011.678-3.944l.235-.412c.079-.137.155-.275.243-.404.175-.263.339-.534.528-.793l.496-.65c.155-.196.31-.361.448-.517.224-.257.467-.498.727-.72.103-.09.197-.17.29-.238a2.31 2.31 0 01.252-.169c.132-.08.272-.147.419-.199.11-.046.224-.083.34-.11.134-.012.043.164-.23.482-.134.162-.326.346-.53.595-.203.248-.466.506-.726.836a17.082 17.082 0 00-2.051 3.123 22.66 22.66 0 00-1.443 3.549 35.048 35.048 0 00-.95 3.794 60.712 60.712 0 00-.632 3.926 37.863 37.863 0 00-.337 5.874c.013.49.042.977.08 1.465.038.489.084.979.172 1.43.07.432.217.848.436 1.228.215.35.523.635.89.822l-.003.014zM57.145 22.282a4.442 4.442 0 012.742.346c1.13.519 1.983 1.442 2.634 2.483.509.814.914 1.714 1.005 2.67.081.864-.092 1.782.26 2.576.31.697.967 1.163 1.454 1.754.648.79 1.362 2.526.775 3.509a2.55 2.55 0 01-.902.826c-.356.216-.759.402-1.173.367-.547-.046-1.038-.468-1.582-.397-.599.079-.968.713-1.532.932-1.043.409-1.432-.539-1.69-1.315-.462-1.393-.35-2.908-.232-4.362-.122 1.093-.255 2.221-.81 3.17-.436.726-1.149 1.34-1.993 1.439-.845.099-1.773-.43-1.951-1.26-.203-.949.527-1.769.497-2.7-.03-.983-.825-1.878-1.163-2.811a5.88 5.88 0 01.107-4.181c.665-1.598 2-2.741 3.553-3.046z" fill="#000"></path><path d="M58.038 33.759c.204-.7.339-1.417.404-2.142l.919.089c-.09.993-.173 1.97-.084 2.908.042.467.137.928.283 1.374.067.214.153.422.258.62a.892.892 0 00.334.378.535.535 0 00.436.01.955.955 0 00.252-.111c.09-.057.178-.121.26-.19.204-.183.424-.349.656-.495a1.48 1.48 0 01.476-.176c.172-.032.347-.032.518 0 .243.054.48.134.707.238.165.078.34.13.522.157.3.03.661-.125 1.017-.344.357-.22.649-.468.778-.77.128-.355.152-.74.069-1.107a4.493 4.493 0 00-.393-1.17 3.894 3.894 0 00-.7-1.015c-.324-.321-.629-.66-.912-1.018-.147-.2-.267-.42-.355-.652-.084-.23-.14-.47-.166-.713a11.127 11.127 0 01-.033-1.214c.009-.376-.025-.75-.102-1.118a7.21 7.21 0 00-2.893-4.103 4.652 4.652 0 00-2.677-.71c-.29.016-.428 0-.436-.086-.009-.085.12-.207.384-.331.366-.16.763-.237 1.163-.227.58.013 1.149.162 1.66.436.497.265.954.6 1.357.993.392.386.742.811 1.045 1.27.306.45.57.93.788 1.429.228.516.378 1.063.446 1.622.064.582.018 1.105.032 1.582.001.224.025.448.072.668.043.2.12.393.23.568.219.365.58.705.947 1.105.09.1.182.208.27.317l.13.177.116.18a5.546 5.546 0 01.692 1.702c.08.343.106.697.08 1.05-.015.189-.056.375-.12.553a1.878 1.878 0 01-.284.51 3.141 3.141 0 01-.813.698c-.3.203-.633.35-.984.437a1.679 1.679 0 01-.603.016 2.644 2.644 0 01-.53-.156c-.31-.124-.574-.237-.777-.233a.626.626 0 00-.3.076 1.976 1.976 0 00-.33.221c-.241.188-.501.45-.898.608a1.68 1.68 0 01-.612.116 1.221 1.221 0 01-.646-.202 1.532 1.532 0 01-.436-.45 2.95 2.95 0 01-.258-.49 7.112 7.112 0 01-.177-.488c-.052-.16-.1-.331-.145-.498a8.44 8.44 0 01-.2-2.036c0-.672.06-1.333.118-1.987l.59.056-.057.474c-.112.854-.265 1.745-.684 2.562-.207.413-.49.783-.833 1.092-.35.32-.775.546-1.236.657-.359.084-.734.074-1.087-.032a2.126 2.126 0 01-.937-.557 1.767 1.767 0 01-.322-.46 1.733 1.733 0 01-.154-.543 2.546 2.546 0 01.145-1.054c.102-.323.225-.62.305-.913.04-.143.067-.289.08-.436.01-.143.003-.286-.023-.426a3.162 3.162 0 00-.3-.85c-.136-.28-.298-.556-.452-.844a6.106 6.106 0 01.051-5.95c.228-.402.507-.773.83-1.103.426-.451.95-.8 1.531-1.018.263-.105.551-.126.826-.06.09.017.176.045.259.084.092.062-.02.157-.273.29-.38.186-.745.399-1.094.637a4.896 4.896 0 00-1.567 1.873 5.432 5.432 0 00-.538 2.43c.003.423.056.843.159 1.253.021.103.055.202.082.303.028.102.066.205.104.291.078.196.169.387.27.572.245.418.466.85.663 1.294.108.256.182.526.22.802l.018.221v.227c0 .081-.013.145-.021.22l-.038.209c-.092.354-.202.704-.33 1.047a3.613 3.613 0 00-.117.436 1.574 1.574 0 00-.018.373.941.941 0 00.29.594c.184.175.411.296.659.351.483.118 1.042-.074 1.479-.456a2.83 2.83 0 00.565-.676c.157-.267.284-.551.378-.846h.022z" fill="#000"></path><path d="M59.092 34.03c-2.326-.484-4.767.332-6.638 1.722-1.872 1.39-3.66 2.576-5.961 3.18-.255.066-.55.158-.637.407a.765.765 0 00.03.465c.582 2.005 1.9 3.824 3.716 4.853 1.6.904 3.86 1.26 5.582.473.901-.412 1.745-1.309 2.498-1.947a68.416 68.416 0 002.559-2.267" fill="#fff"></path><path d="M48.707 44.653a8.814 8.814 0 01-3.086-4.37l-.073-.236c-.023-.079-.048-.146-.073-.249a1.247 1.247 0 01-.037-.377.823.823 0 01.126-.383.945.945 0 01.378-.342l.074-.036c.05-.022.096-.04.146-.056.09-.032.178-.055.254-.075l.22-.058a13.115 13.115 0 002.977-1.219c.95-.54 1.866-1.134 2.745-1.78.822-.588 1.72-1.06 2.668-1.405a8.347 8.347 0 011.89-.454 5.815 5.815 0 011.95.096c.4.096.29.28-.061.416a6.38 6.38 0 01-1.586.317 8.77 8.77 0 00-3.42 1.048c-.132.076-.266.145-.397.225-.13.08-.26.157-.387.243-.247.165-.514.357-.782.538-.535.367-1.084.727-1.654 1.047a21.24 21.24 0 01-2.138 1.093 12.8 12.8 0 01-1.721.611c-.1.03-.193.05-.269.076a1.016 1.016 0 00-.151.058l-.023.011a.157.157 0 00-.08.134v.066c.013.074.049.183.078.282.03.098.058.199.095.29.134.395.298.779.49 1.149a8.007 8.007 0 001.467 2.014 6.737 6.737 0 002.583 1.62c.369.127.747.225 1.131.291a6.51 6.51 0 001.163.088 4.52 4.52 0 002.207-.57 8.4 8.4 0 001.393-1.146c.221-.21.436-.427.676-.64l.67-.63c.197-.185.384-.37.58-.553.747-.679 1.018-.853 1.324-.846.068-.004.136-.001.203.008.182.053-.038.424-.565.953a47.93 47.93 0 01-1.204 1.179c-.204.192-.417.4-.618.581l-.618.582c-.436.428-.914.81-1.426 1.143a4.973 4.973 0 01-1.83.638c-.93.13-1.879.071-2.786-.174a7.715 7.715 0 01-1.309-.473 7.366 7.366 0 01-1.202-.706l.008-.02z" fill="#000"></path><path d="M49.292 38.42c.247-.232.528-.423.834-.567a.375.375 0 01.256-.048c.324.094.199 1.53.21 1.836l.086 2.203a1.59 1.59 0 00.09.561.545.545 0 00.416.352c.145.016.304-.048.436.019a.476.476 0 01.2.352c.086.314.11.643.07.966a.98.98 0 01-.546.756c-.481.194-1.146-.327-1.498-.612-.49-.395-.99-.94-1.036-1.599a32.883 32.883 0 01-.098-2.518c0-.444.076-1.149.375-1.489a2.58 2.58 0 01.205-.212z" fill="#CCC"></path><path d="M57.58 33.715c1.6.074 3.053.048 4.564.669 1.67.686 2.672 1.454 3.65 2.953 1.32 2.026 1.612 4.943 1.77 7.336.02.305.03.63-.118.897-.462.833-1.948.016-2.65.164-.382.08-.727.291-1.093.418-.727.25-1.512.174-2.274.096-.291-.03-.662-.169-.617-.453" fill="#fff"></path><path d="M66.942 43.02a16.968 16.968 0 00-.65-3.671 6.032 6.032 0 00-.231-.63 6.885 6.885 0 00-.282-.602c-.082-.177-.18-.343-.276-.511a6.708 6.708 0 00-.32-.498 7.089 7.089 0 00-.739-.907 6.653 6.653 0 00-1.925-1.342c-.158-.078-.323-.145-.487-.22l-.246-.095-.248-.083a6.863 6.863 0 00-1.018-.236c-.89-.145-1.813-.097-2.742-.22-.29-.039-.24-.236.012-.42.37-.243.81-.36 1.253-.333.492.02.983.07 1.47.146.5.08.991.209 1.467.384.119.042.235.094.355.145l.335.154c.224.108.445.22.663.346a6.77 6.77 0 011.232.889c.451.413.86.872 1.217 1.37.367.495.674 1.031.916 1.599.52 1.235.764 2.54.921 3.829.096.797.146 1.6.195 2.386a2.72 2.72 0 01-.054.984c-.056.19-.167.36-.318.487-.154.12-.338.195-.532.217a3.157 3.157 0 01-.968-.077 6.944 6.944 0 00-.854-.146h-.145a.736.736 0 00-.13.024c-.1.027-.196.061-.29.103-.198.084-.399.196-.626.29-.46.186-.95.281-1.446.28-.212 0-.419 0-.627-.01-.096 0-.183-.015-.262-.024l-.113-.013-.054-.007-.064-.01a1.064 1.064 0 01-.39-.145c-.204-.129-.292-.355-.219-.496a.223.223 0 01.13-.131c.08-.02.145.064.212.04.04-.01.08-.01.12 0 .084.011.168.02.252.022l.592.01c.2 0 .397 0 .581-.015a3.043 3.043 0 001.057-.24c.172-.075.362-.175.59-.268.122-.05.246-.09.373-.123.076-.024.153-.041.232-.051.075-.005.15-.005.226 0 .242.015.483.049.72.102.213.042.415.082.6.106.119.017.24.022.359.013a.33.33 0 00.17-.051.148.148 0 00.038-.042.365.365 0 00.04-.092c.029-.106.04-.215.034-.324 0-.131-.014-.298-.023-.458l-.03-.478a34.067 34.067 0 00-.078-.951l.025-.006z" fill="#000"></path><path d="M55.9 24.384c-1.125.567-1.503 1.813-1.683 2.969a5.002 5.002 0 001.057 3.902c.395.48.872.872 1.294 1.34.285.306.517.656.688 1.037.116.275.161.502.423.668.55.346 1.429.203 1.826-.313.253-.326.28-.904.391-1.298.117-.444.285-.874.5-1.28.925-1.664 1.807-3.704.791-5.571-.38-.7-1.163-1.201-1.899-1.47-1.09-.401-2.35-.507-3.389.016z" fill="#fff"></path><path d="M61.228 30.867c-.085.167-.175.327-.264.488l-.135.24c-.046.08-.081.145-.119.215-.148.299-.272.61-.368.93-.099.29-.126.646-.272 1.062a1.393 1.393 0 01-.398.612c-.175.158-.38.28-.602.356a2.049 2.049 0 01-.974.1 1.804 1.804 0 01-.491-.145 1.623 1.623 0 01-.236-.145 1.107 1.107 0 01-.214-.222 1.64 1.64 0 01-.196-.402 3.1 3.1 0 00-.432-.823 9.183 9.183 0 00-.891-.99c-.161-.167-.327-.34-.484-.526a5.462 5.462 0 01-.436-.593 5.343 5.343 0 01-.598-1.337 6.023 6.023 0 01-.224-1.274 5.81 5.81 0 01.07-1.286 5.983 5.983 0 01.436-1.587 2.725 2.725 0 011.157-1.275c.336-.16.354.06.229.353-.03.077-.064.161-.105.245-.04.085-.083.178-.125.277-.09.192-.186.397-.307.62a4.86 4.86 0 00-.448 1.358 6.77 6.77 0 00-.065.37l-.025.176-.016.177a4.71 4.71 0 001.079 3.377c.385.472.903.9 1.34 1.473.223.289.402.608.533.948a.887.887 0 00.158.307c.08.068.174.117.275.145.27.08.56.06.817-.052a.927.927 0 00.321-.225.888.888 0 00.178-.355c.045-.145.08-.321.116-.502a4.41 4.41 0 01.145-.555c.112-.364.258-.717.437-1.053.224-.395.436-.769.617-1.163.188-.389.345-.792.47-1.205.191-.61.25-1.255.173-1.89a3.854 3.854 0 00-.096-.464l-.078-.224-.04-.11-.05-.108-.102-.214a2.312 2.312 0 00-.417-.54c-.707-.668-1.709-.966-2.658-1.04a4.448 4.448 0 00-.624.009c-.385.027-.628.083-.808.099a1.117 1.117 0 01-.233 0 .754.754 0 01-.189-.059 1.053 1.053 0 01-.167-.078c-.074-.054-.048-.145.08-.27.203-.166.442-.285.698-.345a4.295 4.295 0 011.523-.108 5.556 5.556 0 011.505.367c.508.198.975.49 1.376.86.214.2.398.431.546.685.073.128.125.25.188.375.062.125.099.26.145.391.128.393.196.803.204 1.216.007.402-.032.803-.118 1.196a9.024 9.024 0 01-.801 2.158l-.01-.02z" fill="#000"></path><path d="M55.085 24.585c.012.094.034.186.065.276.156.455.525.802.913 1.086.992.727 2.167 1.153 3.325 1.567.46.19.945.311 1.44.357 3.248.138-.057-3.696-1.229-4.34-.63-.345-1.422-.692-2.18-.639-.93.064-2.48.557-2.334 1.693z" fill="#000"></path><path d="M61.293 24.385c.328.385.62.8.872 1.239.134.231.245.474.332.727.108.29.145.6.107.907-.011.063-.032.13-.05.194a1.042 1.042 0 01-.36.502c-.187.144-.41.238-.647.271l-.145.022-.132.009a2.216 2.216 0 01-.26 0 3.123 3.123 0 01-.517-.047 5.159 5.159 0 01-.946-.28c-.582-.226-1.15-.448-1.723-.704a14.855 14.855 0 01-1.499-.75 5.212 5.212 0 01-.903-.639 2.163 2.163 0 01-.377-.46 1.544 1.544 0 01-.212-.58c-.017-.132.035-.196.112-.2.103.009.203.04.291.095.113.058.238.126.356.196.126.07.242.16.343.263.224.22.471.414.736.582.279.182.567.35.864.501.602.311 1.244.582 1.897.872a4.6 4.6 0 001.163.381c.364.046.826.03 1.061-.097a.32.32 0 00.2-.29 1.293 1.293 0 00-.102-.56 5.014 5.014 0 00-.672-1.17 8.166 8.166 0 00-1.151-1.27 3.148 3.148 0 00-.5-.37 5.561 5.561 0 00-.582-.29 3.227 3.227 0 00-1.208-.311c-.078-.003-.156 0-.233.008-.08.01-.16.018-.24.035-.158.03-.314.07-.466.12a3 3 0 00-.828.412 1.41 1.41 0 00-.145.121c-.042.044-.079.087-.12.13a2.4 2.4 0 00-.225.348.436.436 0 01-.093.107.64.64 0 01-.123.091c-.047.026-.092.066-.146.089-.077.038-.145 0-.215-.12a.477.477 0 01-.044-.109.957.957 0 01.042-.509c.154-.364.417-.673.754-.882.303-.195.636-.342.984-.436.172-.05.347-.09.523-.116.088-.018.18-.025.27-.035.098-.009.195-.012.292-.01.376.011.747.081 1.102.207.248.087.491.19.727.307.114.058.228.118.338.18a3.05 3.05 0 01.362.24c.406.322.78.68 1.116 1.073l.02.006z" fill="#000"></path><path d="M62.75 39.033c.236 1.102-.236 2.066-.582 3.08-.291.859-.333 1.824-.243 2.73.1.999.323 1.566-.6 2.25-1 .744-2.253 1.087-3.496 1.181-.872.067-2.27.045-3.076-.388-.957-.515-.656-2.108-.816-2.995-.193-1.07-.852-1.993-1.225-3.014a5.905 5.905 0 01-.174-3.49" fill="#fff"></path><path d="M54.898 47.404l.057.037.026.022.042.022.084.044.092.037c.129.054.262.097.398.13.29.071.586.12.884.145a9.009 9.009 0 001.847-.026 7.397 7.397 0 001.308-.29c.372-.114.73-.267 1.07-.454.167-.093.328-.196.481-.31.14-.097.262-.217.363-.353a.898.898 0 00.145-.43c.014-.186.01-.373-.013-.56-.05-.421-.076-.846-.079-1.271A8.228 8.228 0 0161.68 43a5.93 5.93 0 01.274-1.129c.145-.452.305-.89.413-1.323a4.47 4.47 0 00.145-1.275c-.019-.257.177-.29.414-.064.143.153.243.34.291.544.07.272.073.557.009.83-.122.486-.275.963-.46 1.428-.04.109-.082.222-.116.324a5.439 5.439 0 00-.217.95 7.643 7.643 0 00-.055 1.344c.009.229.03.457.048.707.029.277.021.556-.022.832a1.64 1.64 0 01-.202.535c-.093.157-.21.3-.344.424a4.633 4.633 0 01-.788.57 6.3 6.3 0 01-1.745.698c-.66.152-1.334.23-2.01.231a7.67 7.67 0 01-2.019-.227 3.038 3.038 0 01-.615-.235 1.423 1.423 0 01-.546-.487 2.666 2.666 0 01-.357-1.274c-.024-.315-.024-.622-.032-.92a3.545 3.545 0 00-.107-.85 8.226 8.226 0 00-.68-1.629 11.621 11.621 0 01-.59-1.301 6.106 6.106 0 01-.325-1.416 5.25 5.25 0 01-.04-.643 2.58 2.58 0 01.127-.843.53.53 0 01.275-.325.83.83 0 01.163-.072c.177-.026.206.29.193.815a6.452 6.452 0 00.36 2.308c.26.736.728 1.465 1.075 2.35.136.341.23.697.282 1.06.047.382.04.706.051 1.024.002.293.032.585.087.873a1 1 0 00.291.553l-.01.017z" fill="#000"></path><path d="M49.405 12.504c.035 1.243.022 2.488.028 3.73.01 2.592.017 5.181.02 7.77.007 3.28.083 4.134.016 9.84-.019 1.53-.019 3.054-.013 4.587 0 1.492.103 2.984.122 4.48a1.07 1.07 0 00.099.53.53.53 0 00.907.014c.035-.068.073-.134.115-.198.29-.364.267.307.275.436.02.36.023.742-.16 1.05-.223.37-.673.55-1.104.568-.453.026-.9-.127-1.241-.426-.55-.507-.4-1.202-.437-1.87a49.947 49.947 0 01-.08-2.68c-.01-1.761.043-3.522.034-5.282-.035-7.302-.164-14.624.074-21.92" fill="#fff"></path><path d="M48.432 39.808c0 .207-.008.415 0 .618l.013.612.026 1.226.014.613c0 .096.008.22.008.328v.317c-.006.18.004.36.028.538a.89.89 0 00.145.38c.189.233.46.383.758.42.155.025.314.025.47 0a.971.971 0 00.394-.162.565.565 0 00.215-.291c.047-.151.067-.31.06-.468V43.629c.001-.08-.004-.16-.015-.238v-.013c.016 0 .035-.015.046-.018a.536.536 0 00.146-.058.23.23 0 00.085-.058.101.101 0 00.018-.016s.009-.023 0-.012c-.009.012 0 0 0 .04.004.014.01.027.017.039l.015.017.017.034a.533.533 0 00.096.116c.061.054.034.04.037.045.003.006 0 0-.008.007-.09-.071-.023-.017-.042-.032l.02.015c.027.02.014.008.017.013v.009c-.014.02-.034.07-.085.145a.936.936 0 01-1.6-.028 1.246 1.246 0 01-.145-.581l-.008-.425-.023-.823-.056-1.656a54.618 54.618 0 01-.021-1.696l.018-1.687.045-3.371c.047-2.245.075-4.486.059-6.73l-.037-5.978-.042-3.816a114.86 114.86 0 01.018-3.81c.039-1.583.802.402.83 3.345.013 2.595.013 5.192 0 7.788 0 1.3-.003 2.6-.008 3.901 0 1.309-.032 2.617-.068 3.926-.05 1.566-.062 3.159-.067 4.763 0 .8-.013 1.608 0 2.403.013.795.053 1.6.076 2.402l.02.93v.461a.675.675 0 00.047.282.188.188 0 00.322.008c.042-.084.09-.164.146-.239l.065-.07a.938.938 0 01.115-.088.634.634 0 01.176-.062.427.427 0 01.096 0c.06.006.116.027.164.062a.488.488 0 01.105.093.492.492 0 01.08.145 1.18 1.18 0 01.054.259c.009.094.011.184.013.263a2.58 2.58 0 01-.114 1.069 1.32 1.32 0 01-.36.51 1.563 1.563 0 01-.515.29 2.092 2.092 0 01-1.108.072 1.91 1.91 0 01-.994-.516 1.502 1.502 0 01-.33-.492 1.928 1.928 0 01-.133-.548c-.034-.356 0-.676-.021-.968l-.022-.955-.04-1.635c0-.542.012-1.083.017-1.625.011-1.084.023-2.167.036-3.25.012-3.278-.009-6.574-.03-9.83-.02-2.532-.073-5.014-.076-7.519 0-.552-.007-1.092 0-1.648.026-2.062.105-2.718.323-3.153.039-.1.088-.198.145-.29.167-.192.267.65.28 2.156l.107 13.912.026 5.287c0 1.763-.032 3.528-.047 5.29l-.013.016z" fill="#000"></path><path d="M32.149 31.027a16.384 16.384 0 00-3.225 1.787c-1.108.808-1.731 1.571-2.256 2.829-1.038 2.486-1.573 5.166-1.723 7.851-.175 3.15.171 6.31.785 9.403.257 1.29.582 2.608 1.34 3.678.215.333.516.603.871.78.361.16.818.146 1.111-.117.191-.2.323-.45.381-.72.66-2.255.858-4.667 1.383-6.965.234-1.135.566-2.248.991-3.326 1.521-3.634 5.157-6.06 4.707-10.38a2.745 2.745 0 00-.307-1.113 1.227 1.227 0 00-.919-.64" fill="#666"></path><path d="M30.467 54.126c-.146.714-.291 1.43-.493 2.142l-.077.266a5.716 5.716 0 01-.086.276 1.953 1.953 0 01-.33.622 1.266 1.266 0 01-.688.428c-.245.06-.5.06-.746 0a2.131 2.131 0 01-1.109-.743 4.512 4.512 0 01-.35-.481 7.245 7.245 0 01-.291-.504 9.347 9.347 0 01-.745-2.13c-.125-.524-.225-1.045-.325-1.564-.1-.519-.192-1.04-.265-1.566-.275-1.85-.41-3.72-.405-5.59.005-1.874.2-3.742.581-5.577a24.883 24.883 0 011.037-3.594c.072-.195.152-.387.227-.582.074-.195.165-.387.261-.581.241-.496.55-.957.916-1.368.37-.404.78-.767 1.226-1.084.87-.626 1.81-1.144 2.804-1.544.617-.244.608-.022.185.377-.423.398-1.236.997-2.192 1.646a8.97 8.97 0 00-1.181.938c-.35.338-.649.723-.89 1.145-.122.217-.233.44-.331.667-.1.232-.202.479-.291.72-.19.486-.36.981-.512 1.482a26.483 26.483 0 00-1.081 6.225c-.146 2.545.145 5.207.593 7.785.257 1.416.488 2.85 1.163 4.049.157.292.353.562.581.802.106.106.227.195.36.263a.9.9 0 00.39.098.676.676 0 00.357-.086.644.644 0 00.238-.28 2.66 2.66 0 00.165-.463c.049-.172.098-.342.145-.516.448-1.704.676-3.476 1.018-5.234.129-.67.283-1.333.453-1.993.167-.666.37-1.321.607-1.965.248-.646.553-1.27.908-1.864a25.84 25.84 0 011.113-1.706c.596-.86 1.195-1.697 1.689-2.58.504-.859.852-1.8 1.03-2.781.063-.425.084-.856.065-1.285a6.365 6.365 0 00-.104-.993 2.259 2.259 0 00-.194-.582 4.088 4.088 0 00-.389-.573 1.934 1.934 0 00-.191-.189c-.038-.045-.027-.081.049-.109a.695.695 0 01.398.025c.23.078.434.216.592.4.21.248.36.542.436.86.063.241.105.488.128.738a6.903 6.903 0 01-.102 2.227 9.324 9.324 0 01-1.134 2.784c-1.004 1.713-2.29 3.189-3.12 4.86-.615 1.228-.967 2.618-1.288 4.015-.321 1.397-.513 2.828-.785 4.273l-.02-.006z" fill="#000"></path><path d="M40.362 35.147c.898 2.648.695 5.317.92 8.01.115 1.382.477 2.724.5 4.13.009.547-.022 1.123-.307 1.59-.285.466-.75.74-1.22.98a12.892 12.892 0 01-9.236.943c-.8-.221-1.657-.596-1.98-1.361-.184-.436-.157-.926-.13-1.397.227-3.81.317-7.56.383-11.379" fill="#666"></path><path d="M31.491 50.42a12.01 12.01 0 007.937-.615c.582-.258 1.197-.516 1.565-.904.184-.195.31-.436.367-.698.062-.296.09-.599.083-.901 0-1.271-.3-2.558-.421-3.898-.096-1.184-.124-2.361-.194-3.514a28.285 28.285 0 00-.216-2.203 21.698 21.698 0 00-.418-2.147c-.11-.437.095-.454.399-.133.304.322.686 1.01.818 1.89.243 1.556.247 3.102.303 4.61.012.379.03.754.052 1.127.022.37.06.727.106 1.11.093.746.214 1.513.263 2.304.013.237.025.476.026.717a7.11 7.11 0 01-.026.739 3.048 3.048 0 01-.167.779c-.096.266-.244.51-.436.718-.368.363-.8.655-1.275.86-.22.107-.436.212-.663.302-.112.046-.223.097-.336.138l-.34.123a13.18 13.18 0 01-8.167.18 4.853 4.853 0 01-.927-.393 2.505 2.505 0 01-.799-.69 1.89 1.89 0 01-.327-.757 3.308 3.308 0 01-.048-.778l.09-1.454c.057-.96.102-1.916.134-2.871.048-1.483.035-2.938.035-4.405 0-.325-.008-.64 0-.966.01-1.208.069-1.59.28-1.846a1.02 1.02 0 01.146-.169c.162-.113.291.381.314 1.266.089 2.63.038 5.403-.096 8.186-.024.517-.052 1.034-.084 1.551-.032.518-.086 1.027 0 1.387.043.174.126.336.243.471.133.152.291.28.468.378.196.113.403.207.618.28.11.04.225.074.342.108l.359.093-.008.025z" fill="#000"></path><path d="M49.494 31.75c-.562.083-1.163.178-1.674.435-.212.105-.499.262-.565.514-.136.51.533.359.872.373.097 0 .228.045.215.145-.007.054-.06.09-.108.114-.267.135-.581.195-.812.384a.238.238 0 00-.089.115c-.033.13.137.224.272.218.178-.029.354-.067.528-.115.179-.025.397.036.452.208-.2.145-.461.17-.688.267-.099.042-.29.146-.314.27-.097.444.705.212.909.187a.125.125 0 01.112.022c.033.035.016.091-.008.133a1.705 1.705 0 00-.183.329.239.239 0 00.134.307c.06.006.12-.004.175-.03 1.401-.54 2.316-1.744 2.258-3.247 0-.19-.034-.38-.1-.559-.193-.465-.734-.613-1.116-.894" fill="#fff"></path><path d="M48.44 35.95a.495.495 0 01-.303-.29.614.614 0 01-.01-.423c.045-.118.106-.229.181-.33l.015-.022.007-.011.06.023c.019.009.039.016.06.022.03.01.063.013.095.01h.012a.117.117 0 00-.012.027l-.05.197v.007h-.036a1.978 1.978 0 01-.689.04.631.631 0 01-.352-.167.396.396 0 01-.104-.215.564.564 0 01.025-.238.549.549 0 01.1-.164c.116-.127.26-.226.418-.291.102-.045.234-.083.358-.122a1.378 1.378 0 00.163-.064.44.44 0 00.058-.035l-.087.29c-.013.01-.01.01-.013 0a.077.077 0 00-.022-.015.237.237 0 00-.122-.01c-.07.013-.146.034-.231.05a.955.955 0 01-.34.018 1.974 1.974 0 01-.16-.026.662.662 0 01-.13-.038.402.402 0 01-.145-.105.325.325 0 01-.083-.208.314.314 0 01.06-.176c.079-.11.18-.2.299-.264.178-.098.364-.18.557-.245.05-.021.104-.042.145-.065l.013.014a.13.13 0 00.02.02.16.16 0 00.048.036h.01a.085.085 0 00-.028.02.24.24 0 00-.028.034l-.019.029h-.013a.209.209 0 00-.05-.01H47.642a1.02 1.02 0 01-.25-.035.48.48 0 01-.223-.12.359.359 0 01-.11-.224.473.473 0 010-.128.653.653 0 01.022-.127.72.72 0 01.123-.236c.094-.107.205-.198.329-.268a3.91 3.91 0 011.804-.533c.19-.012.183.123.045.276a1.506 1.506 0 01-.72.397 3.346 3.346 0 00-.783.29c-.055.029-.107.06-.157.095a.723.723 0 00-.058.047c-.02.016-.034.033-.031.029a.014.014 0 00-.01.012.015.015 0 000 .01h.499a.625.625 0 01.094.01.609.609 0 01.218.077.449.449 0 01.138.127.395.395 0 01-.007.462.483.483 0 01-.115.109l-.022.013h.006-.012c-.03 0-.07.012-.125.025a.33.33 0 00-.158.077.047.047 0 00-.008.036.045.045 0 00.007.017c.004.006.009.01.014.014a.098.098 0 00.071.013c.051 0 .1-.03.154-.035a.126.126 0 01.041 0 .079.079 0 01.025 0 .53.53 0 01.38.347l.054.172-.145.096a.963.963 0 01-.081.052c-.024.015-.064.034-.063.034l-.045.016a.641.641 0 00-.259.104c-.045.034-.046.117 0 .133a.323.323 0 00.146.011c.053 0 .107-.019.167-.02h.022a.27.27 0 01.198.21.318.318 0 01-.027.194v.012c-.014.026-.035.052-.052.078l-.018.026a.145.145 0 000 .17c.048.048.114.008.168-.01l.087-.035.132-.064c.11-.056.216-.12.319-.187a2.995 2.995 0 001.298-1.745c.072-.276.098-.562.078-.846-.011-.29-.06-.555-.209-.718a1.223 1.223 0 00-.25-.202 3.486 3.486 0 01-.419-.28.346.346 0 01-.133-.242.454.454 0 010-.117c.013-.056.072-.072.16-.06.135.026.265.069.388.127.134.06.263.13.386.211a1.24 1.24 0 01.554.857 3.752 3.752 0 01.026.923 3.578 3.578 0 01-.084.458 3.27 3.27 0 01-.353.872 3.568 3.568 0 01-.92 1.035c-.09.074-.188.133-.281.2-.093.066-.198.117-.298.172l-.18.09a1.115 1.115 0 01-.146.063c-.053.019-.087.025-.132.04l-.26.07a.29.29 0 01-.218 0l.008.02zM36.525 34.135c.91 4.324 1.822 8.664 2.13 13.07.029.243.02.488-.026.727-.084.281-.224.542-.41.768-.19.256-.806 1.264-1.163 1.223-.304-.034-.85-.676-1.062-.891a.538.538 0 01-.168-.653c1.115-4.728-.208-9.652-.3-14.509" fill="#000"></path><path d="M36.43 46.822l-.073.47-.037.236a6.378 6.378 0 01-.05.233l-.1.467-.049.232a.953.953 0 00-.033.172.098.098 0 00.011.064c.028.045.06.086.1.122l.319.345c.105.109.21.213.314.306.07.066.15.121.236.165.01.003.022.003.033 0l.022-.012.048-.036c.074-.061.143-.128.206-.201.14-.161.272-.33.393-.506l.132-.189.068-.097.07-.098c.085-.112.16-.23.227-.355.059-.111.098-.231.118-.356a2.06 2.06 0 00.013-.407 61.922 61.922 0 00-.727-6.467 67.969 67.969 0 00-.532-2.844c-.25-1.205-.54-2.407-.74-3.624-.124-.76.565.09.859 1.481.52 2.472.987 4.944 1.264 7.485.085.757.17 1.53.248 2.309.036.39.073.779.102 1.17.014.196.033.387.038.598.01.223-.021.446-.093.657a2.424 2.424 0 01-.335.599c-.067.092-.12.163-.18.248l-.18.258c-.126.176-.26.346-.405.507a1.954 1.954 0 01-.257.24.587.587 0 01-.08.055.562.562 0 01-.11.057c-.04.012-.079.025-.12.035a1.158 1.158 0 01-.123 0 .658.658 0 01-.127-.035.517.517 0 01-.113-.052 1.41 1.41 0 01-.161-.106 3.25 3.25 0 01-.268-.233c-.164-.159-.315-.327-.462-.486a1.456 1.456 0 01-.24-.29.567.567 0 01-.07-.237.837.837 0 01.013-.214l.146-.65c.207-1.02.325-2.055.353-3.095A37.136 37.136 0 0035.87 40c-.125-1.22-.29-2.413-.42-3.624-.025-.268-.058-.528-.077-.798-.074-1.004-.035-1.328.091-1.544a.794.794 0 01.089-.146c.105-.097.202.307.265 1.03.197 2.147.533 4.406.705 6.715.036.428.054.86.077 1.29l.016.648.007.325v.325c-.001.87-.058 1.739-.17 2.601l-.023-.001z" fill="#000"></path><path d="M35.93 32.975a1.039 1.039 0 00-.453.035c-.38.087-.29.535-.099.786.166.218.55.514.847.477.296-.036.282-.39.279-.666-.006-.364-.23-.556-.575-.632z" fill="#000"></path><path d="M36.461 34.442a.527.527 0 01-.27.065.747.747 0 01-.221-.036 1.22 1.22 0 01-.332-.175 1.602 1.602 0 01-.207-.16 1.348 1.348 0 01-.146-.174 1.056 1.056 0 01-.123-.211.872.872 0 01-.07-.491.488.488 0 01.317-.378c.053-.02.083-.028.123-.041.041-.013.08-.022.122-.03a.527.527 0 01.275.017c.06.024.02.117-.032.208-.05.09-.094.181-.16.192-.065.01-.135.026-.195.039a.425.425 0 00-.049.014s-.025.027-.032.073a.532.532 0 000 .164.414.414 0 00.099.203c.056.063.117.123.183.177a.816.816 0 00.46.227c.075 0 .12-.028.154-.134.023-.087.035-.175.037-.265v-.145a.368.368 0 00-.254-.364l-.076-.023c-.094-.032-.122-.06-.123-.169v-.072c0-.08.071-.137.182-.125.187.02.36.112.48.257.121.158.182.353.174.551a1.75 1.75 0 01-.026.365.806.806 0 01-.073.221.55.55 0 01-.202.22h-.015z" fill="#000"></path><path d="M43.383 81.84c-.033.162-.027.331.018.492.078.406.369.612.802.573a.69.69 0 00.53-.416c.199-.436.049-1.053-.556-.96" fill="#CCC"></path><path d="M39.644 78.088l.21-.06a.207.207 0 00-.038-.342c-.04-.021-.086-.029-.131-.021a.208.208 0 00-.042.398" fill="#000"></path><path d="M39.546 77.368a.455.455 0 01.471.146.374.374 0 01.12.354.428.428 0 01-.166.297l-.025.025-.044.011a.274.274 0 00-.064.028c-.04.023-.075.073-.135.032-.038-.026-.138-.515-.087-.535a.397.397 0 01.145-.026l-.016.199c.018.016 0 0-.039 0h-.033c-.012 0 0 0 0 0v-.009a.347.347 0 00.032-.04c.01-.018.008-.035.01-.02.001.014 0-.014 0 0l.007.008c-.01 0-.04.02-.03.046.008.026.014.018.027.02h.018a.05.05 0 00-.02.01.023.023 0 00-.01.01.743.743 0 00-.034.078l-.032.089c-.032.1-.09.176-.17.161a.362.362 0 01-.25-.216.477.477 0 01-.02-.291.526.526 0 01.347-.374l-.002-.003zM41.955 70.935l.21-.06a.208.208 0 10-.21.035" fill="#000"></path><path d="M41.86 70.215a.469.469 0 01.471.15.438.438 0 01.087.114.5.5 0 01.032.24.436.436 0 01-.107.237c-.018.022-.04.041-.06.06l-.025.025-.043.011a.29.29 0 00-.065.028c-.04.023-.075.071-.135.03-.037-.024-.137-.514-.087-.533a.38.38 0 01.145-.026l-.014.197c.017.018 0 0-.041 0h-.032c-.013 0 0 0 0 0v-.008a.232.232 0 00.032-.041c.011-.019.01-.036.01-.02 0 .016 0-.014 0 0 0 .013.013.017 0 .01-.013-.007-.04.02-.03.046.002.006.006.01.01.014a.03.03 0 00.017.005h.019l-.02.012-.01.009s0-.01 0 0c0 .008-.02.046-.034.078l-.032.089c-.032.102-.09.177-.17.163a.364.364 0 01-.247-.217.468.468 0 01-.022-.298.549.549 0 01.109-.215.541.541 0 01.237-.16h.004zM37.514 70.663l.21-.06a.208.208 0 10-.21.035" fill="#000"></path><path d="M37.417 69.943a.459.459 0 01.471.146.54.54 0 01.09.115.48.48 0 01.03.24.42.42 0 01-.105.238c-.019.02-.04.04-.061.058l-.026.025-.042.011a.273.273 0 00-.064.028c-.043.023-.076.071-.136.032-.037-.026-.138-.515-.088-.535a.38.38 0 01.145-.026l-.016.197c.018.018 0 0-.04 0h-.033c-.011 0 0 0 0 0v-.008a.339.339 0 00.032-.04c.01-.018.01-.036.01-.021 0 .014 0-.013 0 0s.014.016 0 .008c-.015-.007-.039.02-.031.047.002.005.006.01.01.013.006.004.011.005.017.006h.02a.073.073 0 00-.021.011.027.027 0 00-.01.01.913.913 0 00-.035.078l-.032.088c-.03.1-.09.176-.17.162a.36.36 0 01-.248-.217.477.477 0 01-.02-.298.536.536 0 01.346-.375l.007.007zM55.371 28.15a.68.68 0 00-.263-.088c-.033 0-.067.01-.1.01a.698.698 0 00-.36.12.34.34 0 00-.108.132c-.032.067-.027.134-.078.193a.307.307 0 01-.213-.036c-.092-.04-.175-.12-.146-.192a.753.753 0 01.5-.492c.125-.05.256-.088.39-.111a.95.95 0 01.436.067c.08.031.158.07.23.117.105.072.202.154.29.244.07.066.146.125.218.2a.478.478 0 01.044.05c.047.067.032.105-.053.162-.02.013-.04.028-.06.04a.181.181 0 01-.183.01 3.662 3.662 0 01-.31-.264 1 1 0 00-.234-.16v-.003zM59.097 28.402a.525.525 0 00-.236-.102.846.846 0 00-.103 0 1.018 1.018 0 00-.391.044.543.543 0 00-.161.087c-.064.048-.112.115-.2.131-.056.012-.238-.323-.145-.394.16-.123.355-.196.557-.21.122 0 .243-.043.37-.037a.945.945 0 01.616.246c.096.083.178.182.242.29.062.085.111.177.146.275a.293.293 0 01.017.072c.01.091-.029.119-.13.117a.58.58 0 01-.07 0 .233.233 0 01-.162-.078c-.067-.099-.103-.17-.171-.256a.699.699 0 00-.18-.164v-.02zM56.313 29.344c0-.134.018-.241.025-.356v-.123c.016-.146.036-.291.048-.437a.955.955 0 00-.008-.193.423.423 0 010-.247c.025-.053.4 0 .406.097.013.17-.003.343-.05.508a1.398 1.398 0 00-.015.312l-.022.34a1.029 1.029 0 000 .19c.003.082.038.16.097.218a.163.163 0 00.153.018.08.08 0 00.02-.013c.018-.01.025.013.09.095l.047.055a.119.119 0 01-.017.193.436.436 0 01-.378.03.582.582 0 01-.291-.239.916.916 0 01-.118-.443l.013-.005zM57.622 30.89a1.4 1.4 0 01-.377.07 1.06 1.06 0 01-.136.011 1.386 1.386 0 01-.454-.122c-.063-.027-.127-.05-.19-.074a.348.348 0 01-.217-.145c-.013-.028.055-.1.13-.165.076-.063.155-.122.184-.106.105.06.208.12.328.195.076.034.16.046.242.035a.965.965 0 00.436-.09.705.705 0 00.218-.156.523.523 0 00.089-.186c0-.013 0-.029.011-.042.022-.048.05-.05.146-.017l.068.021c.074.03.122.082.118.146a.68.68 0 01-.258.436c-.101.083-.215.15-.337.198l-.001-.009z" fill="#000"></path><path d="M33.472 29.499a1.698 1.698 0 00-1.018 1.092c-.408 1.372.897 2.45 1.978 2.986.171.084.383.155.546.055.071-.05.13-.115.172-.19.167-.255.313-.522.436-.8.235.2.496.37.775.502a.41.41 0 00.256.053.398.398 0 00.174-.11c.89-.833.983-2.377.198-3.31" fill="#666"></path><path d="M35.784 33.38l-.023-.032c-.013 0-.029.02-.05.043a.397.397 0 00-.031.046l-.042.066-.088.129-.068.098a1.116 1.116 0 01-.08.1.816.816 0 01-.2.161.856.856 0 01-.736.04 1.912 1.912 0 01-.133-.053l-.093-.047-.163-.082a3.239 3.239 0 01-.313-.185 4.923 4.923 0 01-.972-.856 2.909 2.909 0 01-.628-1.182 2.366 2.366 0 01.047-1.217c.08-.256.214-.493.39-.697.177-.204.41-.352.67-.427.168-.042.196.163.173.382-.012.111-.03.222-.057.33a.56.56 0 01-.125.253 1.28 1.28 0 00-.305.502l-.031.12a.517.517 0 00-.023.121c0 .04-.015.082-.015.122-.004.17.017.339.064.502.06.182.141.357.24.522.26.419.727.736 1.18 1.005.057.034.117.066.175.1.058.033.11.058.125.065a.165.165 0 00.154 0 .261.261 0 00.07-.068l.03-.042.033-.05.065-.101c.016-.024.058-.095.089-.146.03-.05.065-.118.096-.177l.177-.365c.026-.063.057-.123.092-.182.203.186.416.36.638.524l.128.081.1.061.071.04c.02.01.04.02.06.027a.145.145 0 00.112 0 1.07 1.07 0 00.208-.19 1.957 1.957 0 00.43-.882c.039-.2.046-.405.022-.607a2.626 2.626 0 00-.145-.57c-.038-.077-.073-.153-.114-.226a.967.967 0 01-.122-.31.347.347 0 01.071-.245c.028-.044.05-.092.079-.13a.193.193 0 01.215-.068c.052.016.101.04.145.072.055.042.104.09.146.145.296.387.468.855.494 1.342a2.829 2.829 0 01-.624 1.95 3.064 3.064 0 01-.242.26.903.903 0 01-.381.23.787.787 0 01-.436-.008 1.2 1.2 0 01-.213-.086l-.1-.049-.061-.034-.116-.068-.059-.013-.008-.011.008-.032z" fill="#000"></path><path d="M40.522 23.753c-.103.727.022 1.423-.206 2.149a4.01 4.01 0 01-1.09 1.744c-.752.697-1.785 1.119-2.312 1.997-.262.436-.373.94-.582 1.4-.21.46-.581.903-1.083.974-.692.097-1.28-.563-1.454-1.237-.175-.675-.093-1.393-.212-2.08-.27-1.527-1.521-2.836-1.434-4.374.089-1.572 1.527-2.712 2.944-3.398.69-.333 1.424-.617 2.19-.654a3.567 3.567 0 013.735 3.876" fill="#fff"></path><path d="M32.705 23.905a2.336 2.336 0 00-.054 1.018c.066.37.175.729.327 1.072.298.726.727 1.468.935 2.35.071.317.115.64.13.965.017.31.023.603.046.872.014.227.057.452.13.669.074.198.187.38.332.535a.896.896 0 00.477.273.692.692 0 00.502-.125 1.51 1.51 0 00.426-.48c.118-.216.218-.442.3-.674.093-.263.204-.518.332-.765.144-.255.323-.488.534-.69a9.18 9.18 0 011.15-.892 5.284 5.284 0 001.018-.865 3.77 3.77 0 00.753-1.454c.145-.51.093-1.095.18-1.723.03-.195.1-.273.176-.256.075.018.158.122.243.282.106.206.186.424.24.649.085.332.098.68.037 1.017-.067.345-.18.68-.334.995a4.403 4.403 0 01-1.284 1.6c-.262.206-.526.379-.776.549-.502.336-.945.658-1.211 1.073-.14.24-.259.492-.354.753-.056.145-.117.29-.189.446-.074.161-.161.315-.261.461-.127.186-.28.352-.455.494a1.56 1.56 0 01-.663.316 1.406 1.406 0 01-.756-.066 1.697 1.697 0 01-.595-.392 2.326 2.326 0 01-.628-1.163 6.296 6.296 0 01-.113-1.188 8.494 8.494 0 00-.035-.595 3.617 3.617 0 00-.104-.556 7.211 7.211 0 00-.415-1.108c-.168-.373-.352-.748-.514-1.145a4.766 4.766 0 01-.347-1.272 2.87 2.87 0 01-.019-.419 2.9 2.9 0 01.036-.42c.045-.276.129-.545.248-.8.235-.492.566-.932.972-1.296a7.666 7.666 0 012.005-1.29c.711-.327 1.484-.606 2.307-.616a4.082 4.082 0 011.83.413 3.85 3.85 0 011.85 1.965c.15.346.224.72.215 1.098a.69.69 0 01-.194.489.778.778 0 01-.146.129c-.083.04-.145-.044-.2-.208-.056-.164-.105-.413-.192-.72a3.457 3.457 0 00-.649-1.247 3.157 3.157 0 00-1.105-.855 3.197 3.197 0 00-1.37-.308 4.12 4.12 0 00-1.433.304c-.363.14-.718.303-1.061.488-.34.181-.664.39-.97.624-.599.46-1.096 1.04-1.275 1.697l-.03-.008z" fill="#000"></path><path d="M35.386 20.976c-.817 1.084-1.398 2.405-2.364 3.37-.783.784-1.627.525-1.763-.766-.146-1.42.495-2.844 1.483-3.876.634-.663 1.454-1.206 2.362-1.294 1.335-.13 2.779.443 4.095.636 1.315.194 2.907-.23 3.979.828a1.927 1.927 0 01.573 1.673 2.231 2.231 0 01-.649 1.142c-.129.13-.27.248-.418.354-2.359 1.663-5.611-.344-7.298-2.067z" fill="#000"></path><path d="M41.922 19.72a5.428 5.428 0 00-1.18-.146c-.425-.014-.873-.013-1.334-.06-.45-.061-.895-.149-1.333-.264-.426-.105-.84-.215-1.252-.304a5.778 5.778 0 00-1.754-.132c-.492.065-.961.25-1.366.538-.429.298-.81.659-1.13 1.071-.648.822-1.076 1.847-1.051 2.886.004.223.036.445.096.66a.872.872 0 00.29.464.396.396 0 00.212.07c.039.004.078.004.117 0 .043-.01.085-.023.127-.038.187-.085.354-.209.49-.363.83-.873 1.324-2.05 2.14-3.062.26-.314.38-.146.346.237a3.908 3.908 0 01-.57 1.599 10.56 10.56 0 01-1.186 1.641l-.184.19c-.072.068-.145.138-.225.202a2.075 2.075 0 01-.581.322c-.255.087-.53.094-.789.02a1.296 1.296 0 01-.648-.456 2.299 2.299 0 01-.397-1.163 4.39 4.39 0 01.044-1.08 5.21 5.21 0 01.763-1.962c.224-.352.48-.684.763-.991.285-.315.604-.598.95-.843a4.029 4.029 0 011.17-.582 3.2 3.2 0 01.66-.125c.215-.015.43-.015.644 0 .932.055 1.789.319 2.628.516.407.106.821.18 1.24.221.416.035.85.03 1.298.048.576 0 1.146.113 1.68.332.27.127.52.299.735.507.217.213.39.465.51.745.191.429.226.911.1 1.363-.142.43-.393.817-.728 1.121-.157.152-.33.287-.514.403l-.137.089-.146.077c-.094.053-.194.096-.29.145-.4.17-.825.268-1.258.29a5.54 5.54 0 01-1.935-.262 8.65 8.65 0 01-1.756-.785c-.243-.146-.48-.291-.711-.453a4.553 4.553 0 01-.832-.758.805.805 0 01-.218-.488.865.865 0 010-.202c.05-.183.416.032 1 .458a9.916 9.916 0 002.853 1.504c.496.159 1.017.232 1.538.216a2.908 2.908 0 001.845-.757c.13-.12.247-.255.348-.402.092-.133.162-.28.206-.436.04-.145.05-.298.03-.448a1.51 1.51 0 00-.424-.856 1.959 1.959 0 00-.902-.5l.008-.017zM39.826 25.217a.145.145 0 01.166-.06c.02.006.04.016.055.03.102.098-.03.246-.145.225a.12.12 0 01-.095-.088.126.126 0 01.019-.107z" fill="#000"></path><path d="M39.916 25.246c-.014-.026-.008 0 .03.013.01.005.02.008.031.009.014 0 0 0-.029.022.012-.012.01-.016.008 0a.059.059 0 000 .027c0 .009 0 0-.014-.011a1.642 1.642 0 01-.188-.146c-.098-.087-.155-.213-.107-.253a.397.397 0 01.448-.04.35.35 0 01.117.116c.03.05.056.101.08.154.025.06.031.128.017.192a.348.348 0 01-.205.227.37.37 0 01-.17.03.274.274 0 01-.137-.042.4.4 0 01-.102-.089.575.575 0 01-.07-.09.29.29 0 01-.044-.116.27.27 0 010-.06c.014-.074.065-.077.181-.007.028.016.056.032.08.05l.096.068h.003l-.03.008v.01-.015a.105.105 0 00-.008-.041l.013-.016zM36.057 24.221c.05-.084.124-.177.22-.115.154.1.014.338-.145.278a.114.114 0 01-.075-.163z" fill="#000"></path><path d="M36.165 24.22c-.016-.017 0 0 .029 0h.017a.146.146 0 00-.032.036c.047-.067.032-.086.036-.07a.143.143 0 00.022.046l.02.026c0 .016.022.048-.037.043-.038 0-.465-.264-.425-.335a.436.436 0 01.406-.2.314.314 0 01.182.085c.046.05.077.08.116.13.04.048.065.106.074.168a.368.368 0 01-.123.301.374.374 0 01-.163.086.291.291 0 01-.146 0 .497.497 0 01-.128-.045.348.348 0 01-.21-.254c0-.093.058-.112.183-.057l.084.04.067.038h.012s.014.01.029-.04v.01a.057.057 0 00-.013-.025v.016zM38.846 26.053c.326.33.764.526 1.227.547.158 0 .315-.034.46-.098a.91.91 0 00.334-.226c.1-.104.18-.226.233-.36.116-.284.15-.597.094-.9a1.746 1.746 0 00-.318-.761 1.486 1.486 0 00-.374-.348 1.746 1.746 0 00-.436-.21c-.096-.034-.086-.166.042-.275a.482.482 0 01.278-.114.573.573 0 01.184.01c.066.017.13.042.19.074.204.13.383.297.527.492.137.188.244.396.317.616a2.312 2.312 0 01.11 1.015 2.158 2.158 0 01-.473 1.083c-.194.223-.451.381-.737.453-.3.07-.611.065-.908-.015a2.382 2.382 0 01-.798-.37 2.19 2.19 0 01-.403-.358 1.907 1.907 0 01-.302-.453 1.524 1.524 0 01-.145-.817 1.89 1.89 0 01.264-.77 2.2 2.2 0 01.865-.897c.087-.046.177-.083.27-.11a.728.728 0 01.393-.018.218.218 0 01.154.145.455.455 0 01.03.1c0 .112-.126.162-.301.208-.275.077-.52.233-.707.448-.202.22-.35.481-.436.766-.05.196-.039.401.029.59.075.205.197.389.356.537l-.019.016z" fill="#000"></path><path d="M36.922 25.108a1.89 1.89 0 00.582-1.406 1.175 1.175 0 00-.509-.842 1.43 1.43 0 00-.455-.217 2.056 2.056 0 00-1.054 0 1.538 1.538 0 00-.794.468c-.262.291-.384.716-.635 1.097-.079.119-.188.039-.252-.122a.799.799 0 01.025-.643c.107-.232.244-.448.408-.643.179-.205.398-.371.645-.487.468-.22.994-.288 1.504-.196.31.053.607.167.873.336.28.171.498.425.628.727.065.166.105.34.116.519.008.172-.006.345-.04.514a2.541 2.541 0 01-.402.91c-.23.338-.542.612-.906.799a1.7 1.7 0 01-.916.18 1.815 1.815 0 01-.872-.321 2.415 2.415 0 01-.936-1.044 1.51 1.51 0 01-.1-.313.85.85 0 01.015-.436.243.243 0 01.169-.16.495.495 0 01.105-.024c.114 0 .145.152.173.362.053.326.21.627.445.859.123.127.26.24.407.338.134.091.28.16.436.206.23.056.471.04.692-.044.24-.09.455-.234.63-.422l.018.005z" fill="#000"></path><path d="M37.702 24.334c.055.012.112.025.17.041h.065c.077.033.15.076.214.13.029.02.06.034.094.043.044.013.107.016.1.087-.055.075-.12.142-.192.2l-.128.124-.059.057c-.017 0 0-.022-.014-.099-.007-.046-.036-.027-.06-.039a.573.573 0 00-.17-.05.25.25 0 00-.113 0c-.03.012-.05.053-.076.082a.143.143 0 01-.016.022c-.025.014-.04-.018-.074-.145l-.022-.092a.58.58 0 01-.022-.226.172.172 0 01.146-.145.758.758 0 01.154-.007l.003.017z" fill="#000"></path><path d="M37.576 26.016c.022-.047.042-.096.06-.145l.056-.169c.015-.04.016-.084.03-.127.05-.145.105-.29.146-.436.019-.066.032-.134.04-.203 0-.044 0-.089.012-.133a.292.292 0 01.016-.06l.02-.028a.373.373 0 01.206-.009c.052.009.1.036.133.077a.387.387 0 01.034.06c.008.01.01.024.009.038a1.73 1.73 0 01-.172.507c-.04.103-.07.21-.09.32-.034.119-.073.235-.113.353a.939.939 0 01-.118.24.511.511 0 01-.382.206.842.842 0 01-.395-.055c-.077-.04-.08-.081-.03-.171.012-.02.023-.041.036-.061a.185.185 0 01.154-.095c.08.017.164.017.245 0a.174.174 0 00.087-.106l.016-.003zM37.036 27.529a1.21 1.21 0 01-.171-.073 1.342 1.342 0 01-.159-.092.715.715 0 01-.114-.07 1.092 1.092 0 01-.291-.372c-.034-.06-.063-.125-.095-.186-.032-.06-.038-.084-.05-.128a.264.264 0 01.008-.138c.012-.029.11-.022.21 0 .098.022.196.035.199.061.025.105.055.21.091.311.025.077.102.115.164.163.034.028.075.05.111.076.036.026.08.045.123.06.053.024.108.04.165.052a.668.668 0 00.257.013.425.425 0 00.167-.096c.012-.009.02-.02.03-.028.037-.029.062-.013.13.067l.047.055a.146.146 0 01.026.18.623.623 0 01-.474.21 1.232 1.232 0 01-.38-.05l.006-.015z" fill="#000"></path><path d="M79.487 19.19c-2.095-.436-4.48-1.353-6.705-.88-1.726.364-3.282 1.181-4.631 2.057a1.298 1.298 0 01-.573.248c-.282.024-.542-.128-.778-.272-1.477-.897-3.06-1.728-4.82-2.007-2.9-.463-5.201.921-7.14 2.653a.518.518 0 01-.629.02 16.324 16.324 0 00-2.05-1.26 8.756 8.756 0 00-3.274-.711c-1.865-.034-4.439 1.026-5.816 2.278a.331.331 0 01-.4.019c-2.814-2.124-7.329-2.688-11.163.39a.657.657 0 01-.727.039 6.856 6.856 0 00-2.035-.872c-2.617-.655-5.558.037-8.034.774-.333.1-.76.18-1.008-.01-.22-.171-.157-.452-.077-.686 1.335-3.9 4.645-7.48 8.655-10.142 4.42-2.936 9.768-4.915 15.22-6.483 1.804-.518 3.723-.835 5.652-.69 1.875.14 3.741.386 5.59.733A49.374 49.374 0 0165.01 7.497c3.184 1.363 6.23 2.964 8.868 4.879 1.309.947 2.591 1.926 3.657 3.037.651.68 1.33 1.354 1.836 2.107.234.35 1.322 1.915.117 1.666l-.002.005z" fill="#ff3e3e"></path><path d="M33.241 8.615a37.543 37.543 0 00-4.282 2.34 28.2 28.2 0 00-3.869 2.94 26.862 26.862 0 00-1.705 1.725 19.97 19.97 0 00-1.498 1.897c-.458.66-.867 1.352-1.224 2.072-.094.177-.167.363-.251.545l-.122.275-.107.279-.106.28-.052.146c-.014.04-.029.087-.035.11a.107.107 0 00.03.127c.049.023.046.032.227.016.08-.01.157-.024.235-.044l.125-.035.145-.04a26.94 26.94 0 013.78-.864c1.288-.18 2.617-.22 3.933.045a7.33 7.33 0 012.543 1.01c.04.025.088.035.135.031a.231.231 0 00.134-.042 10.548 10.548 0 012.822-1.6 9.35 9.35 0 013.198-.591 9.181 9.181 0 014.673 1.243l.35.208.335.234.116.081c.019.017.04.029.064.035a.146.146 0 00.136-.046l.1-.086c.044-.039.093-.076.145-.113.096-.072.19-.146.291-.214l.29-.2.303-.188a11.018 11.018 0 012.59-1.114 8.752 8.752 0 011.392-.29c.24-.027.48-.041.72-.041a9.103 9.103 0 013.438.721c.114.05.224.108.332.17l.302.171c.201.117.399.234.597.358a11.42 11.42 0 01.846.57l.075.057a.195.195 0 00.083.029.246.246 0 00.197-.058c.642-.58 1.334-1.1 2.068-1.556.374-.228.763-.43 1.163-.608a7.99 7.99 0 011.25-.422 7.058 7.058 0 012.617-.155c.863.112 1.708.34 2.51.68.598.248 1.18.53 1.745.845.282.155.56.316.835.481.124.08.253.15.385.215.095.048.201.07.308.066a.757.757 0 00.313-.127l.395-.253c.272-.173.548-.34.829-.5a14.973 14.973 0 011.745-.854 11.398 11.398 0 011.872-.582 7.123 7.123 0 011.985-.11c1.308.1 2.557.46 3.78.783.759.204 1.077.32 1.04.394-.035.074-.435.09-1.111.022-.676-.068-1.62-.233-2.732-.355a10.71 10.71 0 00-1.771-.052l-.233.016-.23.03c-.158.015-.31.051-.468.08-.318.067-.65.159-.981.26-.711.231-1.4.523-2.062.873-.333.175-.662.362-.985.561-.162.099-.323.2-.483.304a1.98 1.98 0 01-.717.326c-.164.03-.333.026-.496-.01a1.744 1.744 0 01-.395-.146 3.373 3.373 0 01-.3-.167l-.247-.146a25.24 25.24 0 00-.993-.565 12.97 12.97 0 00-2.054-.906c-1.403-.48-2.89-.581-4.282-.145a8.27 8.27 0 00-1.992.93c-.314.2-.623.412-.921.644-.146.112-.291.234-.444.354-.074.058-.145.122-.218.183l-.225.205c-.192.164-.439.25-.69.241a.987.987 0 01-.555-.187l-.083-.063c-.181-.145-.392-.28-.602-.416-.209-.135-.429-.267-.647-.395l-.328-.19-.163-.09-.079-.043-.058-.03a8.358 8.358 0 00-2.848-.681c-.954-.06-1.935.156-2.877.486a9.494 9.494 0 00-2.627 1.395c-.035.027-.067.057-.102.085l-.146.126a.727.727 0 01-.901.066l-.22-.153-.3-.212c-.105-.067-.213-.127-.317-.19-.105-.065-.211-.133-.323-.185l-.335-.163-.165-.083c-.057-.026-.117-.047-.173-.07l-.348-.138a8.286 8.286 0 00-2.942-.52 8.578 8.578 0 00-2.96.546 9.8 9.8 0 00-2.638 1.51 1.018 1.018 0 01-1.141.063 6.678 6.678 0 00-2.441-.929 10.473 10.473 0 00-2.658-.103 18.49 18.49 0 00-2.847.468c-.47.112-.938.239-1.406.37l-.35.103c-.112.032-.25.072-.386.098a1.95 1.95 0 01-.446.041.994.994 0 01-.557-.18.741.741 0 01-.29-.665 1.49 1.49 0 01.07-.343c.028-.09.058-.155.087-.235.114-.304.223-.61.363-.903.067-.145.13-.29.2-.443l.22-.437c.146-.29.314-.567.473-.847a19.567 19.567 0 012.313-3.091 27.75 27.75 0 015.924-4.87 39.408 39.408 0 012.85-1.599 48.73 48.73 0 012.96-1.374 68.107 68.107 0 016.118-2.23 89.76 89.76 0 012.36-.71 21.203 21.203 0 012.422-.568c.821-.143 1.653-.22 2.486-.231.416 0 .836.015 1.25.048a51.855 51.855 0 0110.865 2.057c1.215.37 2.41.781 3.586 1.235 1.176.455 2.326.952 3.466 1.48a43.419 43.419 0 016.551 3.698c.906.639 1.786 1.27 2.65 1.997.4.334.752.66 1.067.97.314.31.581.594.825.857.422.434.808.9 1.155 1.396.23.332.425.686.581 1.058.058.144.1.294.125.447a.768.768 0 01-.037.436.346.346 0 01-.146.16.38.38 0 01-.19.03.604.604 0 01-.27-.081c-.09-.057-.046-.086.09-.102a.9.9 0 00.109-.022.157.157 0 00.084-.042c.011-.017 0-.012 0-.04a.607.607 0 00-.037-.156 2.746 2.746 0 00-.261-.51c-.12-.192-.266-.397-.436-.627-.394-.515-.825-1-1.289-1.454l-.581-.595c-.192-.193-.393-.38-.596-.565A20.867 20.867 0 0075.355 14a47.124 47.124 0 00-2.745-1.966 46.697 46.697 0 00-6.008-3.281 50.159 50.159 0 00-17.188-4.546c-.22-.02-.436-.032-.64-.044a11.3 11.3 0 00-.632-.013c-.85.01-1.698.09-2.534.243-.42.075-.838.165-1.255.27-.416.103-.83.225-1.253.349a79.393 79.393 0 00-4.997 1.617 56.277 56.277 0 00-4.839 1.996l-.023-.01z" fill="#ff3e3e"></path><path d="M34.997 12.87a21.918 21.918 0 012.549-3.191c.172-.18.34-.363.518-.536.177-.173.349-.354.538-.515a24.636 24.636 0 014.264-3.002c.34-.182.672-.38 1.018-.56l.507-.272.253-.137.256-.13.654-.335c.218-.11.436-.212.664-.316.444-.209.9-.388 1.369-.535.29-.091.325.11.161.387-.104.169-.234.32-.385.447-.195.163-.41.3-.641.405l-.668.303c-.222.101-.436.21-.661.315-.445.204-.873.436-1.309.651-.863.457-1.717.937-2.554 1.454a17.446 17.446 0 00-2.8 2.26c-.483.45-.928.94-1.369 1.435-.44.494-.843 1.017-1.222 1.567-.472.67-.908 1.362-1.309 2.076a35.985 35.985 0 00-1.653 3.344c-.382.886-.702 1.78-1.054 2.672-.077.197-.145.392-.23.582-.1.262-.228.513-.38.749a.974.974 0 01-.082.099l-.096.093a.356.356 0 01-.169.093.232.232 0 01-.09 0 .198.198 0 01-.088-.037.145.145 0 01-.057-.125.055.055 0 01.029-.045.026.026 0 01.03.016.077.077 0 01.01.03.054.054 0 00-.015-.036.037.037 0 00.017 0 .072.072 0 00.03-.016l-.011-.058v.01a.145.145 0 00-.03-.034c-.017-.02-.126-.08-.1-.073.005-.05.014-.098.027-.146a3.42 3.42 0 01.11-.367 58.623 58.623 0 012.004-4.944 30.508 30.508 0 011.962-3.604l.003.026z" fill="#000"></path><path d="M43.368 13.892c.212-.96.452-1.917.727-2.865.103-.348.187-.695.3-1.035.388-1.211.868-2.39 1.434-3.529.259-.503.516-1.018.81-1.493.37-.621.768-1.25 1.32-1.732.17-.145.29.01.313.28.01.153-.007.308-.051.456a1.328 1.328 0 01-.24.49c-.836 1.103-1.498 2.338-2.108 3.635-.365.779-.607 1.647-.873 2.496-.29.928-.539 1.867-.756 2.82-.133.582-.258 1.171-.373 1.769-.175.895-.352 1.8-.505 2.696-.12.694-.173 1.38-.225 2.07-.012.146-.015.302-.028.456-.05.565-.113.741-.33.846-.046.027-.095.05-.145.07-.163.04-.276-.205-.28-.633-.004-.648.036-1.297.117-1.94.04-.328.09-.658.145-.983l.169-.972c.169-.965.353-1.936.553-2.907l.026.005z" fill="#000"></path><path d="M52.976 14.205c-.12-.464-.233-.929-.38-1.384-.15-.455-.299-.91-.46-1.362a5.404 5.404 0 00-.201-.486 8.192 8.192 0 01-.206-.483 32.689 32.689 0 00-1.6-3.361c-.133-.243-.266-.487-.413-.727-.147-.24-.298-.465-.447-.695l-.291-.436-.303-.436a7.945 7.945 0 01-.548-.908c-.199-.396.727-.35 1.188.338l.303.455c.1.145.193.31.29.465.194.312.381.627.561.944.348.647.697 1.292.986 1.974.089.202.186.403.284.605.097.202.189.408.29.612.102.204.201.407.291.614l.266.626c.2.455.354.93.525 1.394.083.236.146.474.227.711.081.237.145.474.21.716.076.29.162.581.23.887l.203.892c.177.906.325 1.82.453 2.725.106.7.237 1.385.345 2.077.023.153.055.302.073.456.07.571.036.759-.157.901a.827.827 0 01-.133.095c-.154.07-.308-.146-.395-.563-.262-1.226-.419-2.521-.63-3.805a29.38 29.38 0 00-.581-2.837l.02-.004z" fill="#000"></path><path d="M61.935 12.101c-1.003-.994-2.012-1.976-3.072-2.894-.388-.333-.793-.646-1.192-.963a23.252 23.252 0 00-4.52-2.908 14.745 14.745 0 00-2.229-.852c-.975-.29-1.976-.46-2.967-.669-.308-.066-.247-.26.048-.417.188-.095.393-.156.603-.179.132-.016.265-.023.398-.021.147.007.293.025.437.053a17.286 17.286 0 015.96 2.484 37.535 37.535 0 013.21 2.278c1.116.911 2.167 1.89 3.198 2.889l.944.925c.31.31.628.63.923.963a20.758 20.758 0 012.35 3.266 37.51 37.51 0 011.484 2.694c.102.202.2.398.29.605.345.767.393 1.035.27 1.28a.89.89 0 01-.083.162c-.12.135-.368-.13-.646-.673-.827-1.6-1.652-3.298-2.711-4.839a18.045 18.045 0 00-1.261-1.653c-.11-.135-.228-.261-.345-.39-.116-.13-.232-.26-.356-.38l-.36-.374-.384-.372.011-.015z" fill="#000"></path><path d="M47.637 4.148c0-.254.048-1.973.582-1.682.455.252.597 1.06.605 1.528a.13.13 0 01-.013.074.12.12 0 01-.102.038c-.268 0-.544-.218-.78-.091-.095.049-.18.154-.292.133z" fill="#000"></path><path d="M48.262 3.445a.26.26 0 00.02-.074.261.261 0 00-.015-.111.051.051 0 00-.018-.023.08.08 0 01-.03-.03.125.125 0 00-.069-.06.096.096 0 00-.066.01.282.282 0 00-.102.135.349.349 0 00-.022.1v.186c0 .18.047.361-.038.533-.026.049-.227.049-.42 0-.193-.05-.38-.156-.378-.27a2.797 2.797 0 01.042-.45l.015-.087.027-.137c.072-.36.207-.68.387-.827.101-.096.218-.174.346-.229a.483.483 0 01.337.01c.036.012.07.028.102.049l.061.037c.271.226.459.536.53.881.057.228.089.46.095.694a.954.954 0 01-.052.384.19.19 0 01-.058.096.257.257 0 01-.108.05.908.908 0 01-.228.017 4.248 4.248 0 01-.363-.038.8.8 0 00-.104-.012H48.1c-.018.009-.02.023-.018.028.003.004.018.017-.007.036a.329.329 0 01-.22.087.196.196 0 01-.19-.167.365.365 0 01-.013-.145c0-.04.014-.077.02-.112a.187.187 0 00-.016-.064l-.016-.04c-.009-.021-.014-.028-.029-.059l-.016-.03V3.8a.265.265 0 01.074-.11.691.691 0 01.239-.145.898.898 0 01.264-.046h.051V3.49c.007-.02 0-.029 0-.029a.016.016 0 00.02.005.016.016 0 00.006-.005l.013-.017z" fill="#000"></path><path d="M35.385 25.092a.366.366 0 00.1.161c.403.389 1.029-.254.514-.543-.287-.155-.715.014-.614.382zM39.353 26.111a.404.404 0 00.132.097.316.316 0 00.391-.17c.329-.652-.79-.25-.523.073zM58.127 29.63c.03.1.085.189.161.26.655.63 1.667-.412.832-.88-.464-.259-1.159.025-.993.62zM54.868 29.304a.58.58 0 00.113.247c.22.273.666.321.85 0a.51.51 0 00-.116-.659c-.25-.21-.748-.215-.843.163a.565.565 0 00-.004.249z" fill="#FFD6D6"></path><path d="M63.635 43.34c.11.343.257.672.436.984.091.156.162.323.21.497.041.212.043.16-.1.29-.26.232-1.073.665-1.419.457a.426.426 0 01-.158-.29 5.575 5.575 0 010-2.392c.068-.372.177-.735.324-1.083.145-.343.257-.69.407-1.034h.058a9.68 9.68 0 00.242 2.572z" fill="#CCC"></path><path d="M53.617 53.517c.131-.462.268-.922.412-1.378.05-.168.081-.34.138-.506a50.33 50.33 0 01.63-1.735c.095-.254.175-.516.248-.776.096-.334.158-.683.355-.98.12-.186.727.328.606.698a17.29 17.29 0 01-.766 1.952c-.182.386-.268.817-.394 1.229a54.48 54.48 0 00-.403 1.364c-.078.282-.155.564-.222.847-.104.437-.21.864-.277 1.299-.05.337-.052.676-.068 1.017 0 .075 0 .146-.007.223-.026.276-.09.356-.303.387a1.32 1.32 0 01-.145.02c-.163 0-.276-.125-.29-.336a7.23 7.23 0 01.145-1.91c.088-.474.205-.947.32-1.416l.021.001zM56.333 57.93l.038-2.444c0-.299-.013-.595 0-.893.029-1.047.075-2.094.113-3.14.016-.466.013-.933 0-1.394-.01-.591-.056-1.187.037-1.778.058-.367.796.114.792.793 0 1.207-.045 2.409-.145 3.626-.064.727-.027 1.483-.037 2.227l-.026 2.456c0 .504-.007 1.007 0 1.512 0 .762 0 1.53.044 2.285.03.582.106 1.163.166 1.745.013.128.033.252.042.381.035.478-.01.632-.211.744a.93.93 0 01-.138.076c-.157.054-.298-.135-.36-.486a22.521 22.521 0 01-.292-3.237c-.026-.822-.03-1.646-.038-2.472h.015z" fill="#000"></path></svg>
