<svg width="86" height="86" viewBox="0 0 96 96" fill="none" data-testid="couple_svg"><path d="M34.89 45.728c.104-.4.2-.8.278-1.2.524-2.771.116-7.901-2.557-9.646-2.092-1.37-6.178-.064-8.275.675-3.038 1.072-6.872 3.55-7.68 6.868-.408 1.683-.189 3.448-.31 5.174-.14 1.884-.723 4.733-1.877 6.275-1.075 1.44-3.27 1.735-4.136 3.397-.357.685-.279 1.601.268 2.152.29.294.679.47 1.057.639 3.003 1.335 4.777 1.952 5.696 5.237.76 2.72.86 5.89-2.171 7.344-1.07.514-2.301.642-3.338 1.22-1.038.576-1.845 1.911-1.255 2.939.687 1.185 2.745 1.171 3.137 2.483.361 1.21-1.075 2.169-2.305 2.455-1.23.285-2.734.542-3.188 1.72-.343.894.168 1.937.943 2.498.775.56 1.756.746 2.702.89 4.937.704 10.144.45 15.115.533 8.673.15 17.348.218 26.023.267 6.377.036 12.753.323 19.132.162 4.912-.126 14.417.871 16.77-4.443a7.46 7.46 0 00.031-5.889c-2.139-4.99-7.996-3.935-12.508-4.313-2.843-.236-4.507-.877-4.511-3.681 0-2.743 0-3.032-1.954-5.147-.869-.94 0 0-1.645-.94-2.35-1.175-1.2-.135-2.35-1.175-3.435-3.11 0-.47-2.585-2.8-.125.475-1.453-.945-1.792-.595-.438.447-1.172.477-1.753.242-.58-.236-1.041-.687-1.487-1.126-.613-.603-1.232-1.217-1.674-1.952-.726-1.228-.892-2.725-.733-4.144.164-1.478.782-2.881.931-4.323.154-1.482.061-3.01.248-4.512.376-3.005 1.168-8.437-2.114-10.254-2.44-1.35-5.464.558-7.1 2.817-.898 1.241-1.619 2.634-1.91 4.137-.648 3.347.888 6.705 2.574 9.668 1.363 2.4 2.853 5.454 1.269 7.714-.876 1.255-2.5 1.8-4.023 1.76-1.524-.04-2.987-.584-4.407-1.14-3.158-1.239-6.693-3.062-7.336-6.393-.36-1.871.311-3.727.8-5.593z" fill="#CCC"></path><path d="M95.33 42.766c.482.578.763 1.255.463 2.049-.598 1.592-2.172.544-3.037-.166-1.15-.947-18.774-14.752-26.558-20.592C62.726 21.451 52.414 13.4 50.52 12.262c-2.294-1.382-3.765-1.607-6.004-.026-7.083 5-13.747 10.672-20.533 16.1l-11.602 9.28-5.801 4.641c-1.127.901-3.326 3.397-4.854 3.468C.51 45.78-.16 44.26.379 43.284c.244-.442.638-.778 1.029-1.1 1.534-1.254 3.175-2.333 4.714-3.565l6.015-4.81 11.846-9.476c6.786-5.428 13.45-11.1 20.533-16.1 2.238-1.581 3.71-1.357 6.004.025 1.894 1.14 12.206 9.19 15.678 11.796 4.78 3.588 9.564 7.17 14.318 10.791 2.976 2.268 5.9 4.602 8.811 6.947 1.453 1.172 2.903 2.345 4.353 3.52.503.413 1.174.887 1.65 1.454z" fill="#ff3e3e"></path><path d="M20.06 27.87l-7.25 5.784-3.626 2.89L7.37 37.99c-.605.48-1.202.976-1.825 1.44-1.24.94-2.51 1.813-3.711 2.769-.297.227-.58.473-.848.735a2.52 2.52 0 00-.323.408 1.95 1.95 0 00-.11.215.975.975 0 00-.035.113 1.452 1.452 0 00-.038.601c.024.163.07.321.14.471.132.293.372.523.67.644.279.117.612.073.943-.049a4.65 4.65 0 00.965-.52c.619-.441 1.206-.925 1.758-1.449l.85-.782c.14-.13.29-.262.443-.39.152-.128.305-.248.456-.37l1.812-1.446 10.566-8.449c3.108-2.479 6.22-4.947 9.304-7.453 3.083-2.506 6.174-5.007 9.32-7.442a219.482 219.482 0 014.77-3.585c.402-.293.806-.584 1.212-.872.405-.286.804-.583 1.242-.85.435-.276.907-.49 1.401-.636a3.784 3.784 0 011.556-.114c.51.078 1.007.23 1.474.45.459.212.903.453 1.332.72a27.341 27.341 0 011.238.851c.404.291.806.586 1.205.883a402.258 402.258 0 014.755 3.6c2.801 2.141 5.596 4.31 8.41 6.437 2.814 2.127 5.617 4.267 8.39 6.402 3.563 2.743 7.122 5.499 10.679 8.27 1.776 1.384 3.549 2.774 5.317 4.167l1.325 1.047.66.529c.222.178.43.354.653.512.22.159.453.298.697.418.227.116.475.185.73.202a.771.771 0 00.612-.256c.16-.196.272-.426.327-.672a1.595 1.595 0 000-.806 2.368 2.368 0 00-.221-.53c-.152-.265-.236-.38-.201-.381.035-.002.174.111.367.375.12.162.213.342.278.533.04.122.066.248.079.376.01.147.005.295-.017.44-.03.162-.077.32-.14.472-.069.175-.17.334-.3.47-.15.155-.345.26-.557.303-.221.04-.449.032-.667-.025a4.034 4.034 0 01-1.24-.596 8.105 8.105 0 01-.586-.43c-.19-.153-.392-.296-.593-.45a414.517 414.517 0 01-5.564-4.268 2611.517 2611.517 0 00-10.877-8.455l-5.456-4.204-2.739-2.091-2.748-2.085c-3.653-2.797-7.283-5.628-10.965-8.396-.921-.689-1.844-1.385-2.788-2.028a11.502 11.502 0 00-1.462-.836 4.889 4.889 0 00-1.557-.486 3.465 3.465 0 00-1.576.198 6.598 6.598 0 00-1.459.793l-1.4.998-1.394 1.018c-4.462 3.27-8.84 6.833-13.247 10.415a766.012 766.012 0 01-6.65 5.355l-6.656 5.32-7.3 5.828-.912.728-.455.364c-.14.119-.29.245-.432.375-.572.519-1.134 1.064-1.733 1.574-.3.256-.61.502-.934.733a5.53 5.53 0 01-1.053.602c-.195.084-.4.143-.61.176-.054.007-.108.01-.164.016-.056.006-.112 0-.168 0a1.69 1.69 0 01-.333-.05 1.643 1.643 0 01-.588-.32 1.826 1.826 0 01-.412-.508.946.946 0 01-.074-.14c-.02-.048-.044-.097-.062-.149a2.242 2.242 0 01-.087-.31 1.952 1.952 0 01-.023-.65 1.77 1.77 0 01.205-.625c.105-.183.23-.352.373-.507a8.18 8.18 0 01.876-.805c.305-.246.614-.486.927-.721 1.255-.942 2.531-1.82 3.737-2.79l7.302-5.827c5.996-4.787 12-9.546 17.936-14.389a369.704 369.704 0 016.833-5.417c1.151-.89 2.313-1.767 3.486-2.63.587-.428 1.172-.86 1.764-1.282l.888-.633c.147-.106.304-.206.456-.31.153-.103.317-.19.477-.278l.249-.126.125-.062.13-.053.26-.106.267-.087A3.776 3.776 0 0147.423 7c.75.033 1.482.232 2.145.582.333.157.651.34.966.525.157.094.309.198.465.296.156.098.298.208.449.31.595.42 1.178.849 1.761 1.28 2.326 1.727 4.618 3.486 6.907 5.236l5.314 4.059 5.316 3.988 10.606 7.957a342.437 342.437 0 0110.612 8.445c.648.54 1.154.976 1.57 1.333.415.356.745.648 1.029.925.253.237.484.497.688.777.094.15.042.12-.149-.056a12.809 12.809 0 00-1.076-.863c-1.063-.793-2.687-2.083-4.773-3.747-3.096-2.466-6.238-4.954-9.483-7.39l-9.815-7.36-4.962-3.732-4.955-3.794a1523.659 1523.659 0 00-4.981-3.796 584.069 584.069 0 00-2.51-1.876c-.419-.31-.837-.615-1.268-.917-.212-.139-.425-.302-.637-.437l-.32-.205-.324-.194a9.423 9.423 0 00-1.009-.502c-.168-.077-.343-.13-.516-.191a4.612 4.612 0 00-.524-.124 3.215 3.215 0 00-1.053-.013 4.24 4.24 0 00-1.023.318c-.336.16-.659.347-.965.558a12.67 12.67 0 00-.471.329l-.475.339c-.635.447-1.255.912-1.889 1.37a254.728 254.728 0 00-7.399 5.707c-2.437 1.942-4.854 3.918-7.282 5.883-2.427 1.964-4.87 3.904-7.305 5.856l-.027-.005z" fill="#ff3e3e"></path><path d="M36.193 85.3c-.215.28-.618.327-.976.341-2.336.098-4.65.148-6.914-.44a22.497 22.497 0 01-6.035-2.51c-8.04-4.9-2.577-17.34 1.27-23.088 1.018-1.522 2.37-2.915 3.82-4.106 2.045-1.683 5.229-3.191 7.9-3.402 2.86-.226 5.701.825 8.275 1.942 3.058 1.328 5.666 3.553 7.8 6.115" fill="#fff"></path><path d="M26.793 56.593a19.7 19.7 0 00-1.909 1.952c-.293.348-.572.706-.837 1.074-.258.37-.513.759-.757 1.146a37.636 37.636 0 00-2.59 4.88 30.881 30.881 0 00-1.373 3.784 21.983 21.983 0 00-.739 3.451 13.597 13.597 0 00-.026 3.498 8.985 8.985 0 001.075 3.276 7.807 7.807 0 002.347 2.51c.429.299.875.571 1.337.816.465.25.936.482 1.415.697.96.424 1.947.78 2.955 1.066.64.187 1.293.332 1.952.435.661.096 1.327.158 1.994.185.668.03 1.34.03 2.015.023l1.011-.016.508-.01c.153.002.306-.01.457-.033.113-.021.222-.054.328-.098.063-.023.106-.034.14-.007.033.028.036.09-.012.187a.736.736 0 01-.344.306c-.21.094-.432.162-.66.202a12.928 12.928 0 01-2.976.278 20.552 20.552 0 01-2.122-.157 15.087 15.087 0 01-2.1-.43 23.225 23.225 0 01-3.97-1.483 21.07 21.07 0 01-1.864-1.026c-.15-.1-.301-.205-.45-.307a4.76 4.76 0 01-.443-.322 8.293 8.293 0 01-.817-.732 8.219 8.219 0 01-1.327-1.746l-.255-.487a2.236 2.236 0 01-.115-.248l-.104-.254a9.704 9.704 0 01-.356-1.032 12.428 12.428 0 01-.395-2.572 95.333 95.333 0 01-.018-.654l.017-.654c0-.22.03-.435.042-.653l.026-.328c.01-.107.025-.216.04-.323a20.24 20.24 0 01.47-2.572c.205-.842.453-1.673.742-2.49.313-.897.668-1.777 1.058-2.64.389-.863.807-1.712 1.255-2.545.447-.832.93-1.648 1.441-2.445.258-.396.516-.795.804-1.18.287-.385.584-.755.899-1.116a21.68 21.68 0 012.528-2.43c.458-.371.937-.717 1.434-1.035a18.532 18.532 0 011.524-.873 17.23 17.23 0 012.457-1.023 12.141 12.141 0 012.613-.558c.89-.075 1.785-.043 2.667.095.873.133 1.733.334 2.573.603a30.3 30.3 0 011.919.674c.629.243 1.238.49 1.864.768.615.283 1.214.597 1.795.943a22.527 22.527 0 013.068 2.248c.59.519 1.139 1.084 1.64 1.69.32.404.468.666.545.913.042.105.075.213.099.324.01.13-.155.043-.455-.22-.3-.264-.74-.698-1.315-1.246-1.7-1.621-3.656-3.067-5.863-4.059a25.128 25.128 0 00-.845-.362c-.288-.12-.57-.233-.858-.346a28.06 28.06 0 00-1.74-.617 14.615 14.615 0 00-3.574-.705 10.453 10.453 0 00-1.339.01c-.444.038-.886.106-1.322.202-.886.2-1.751.483-2.584.846-.84.361-1.65.79-2.42 1.282-.383.246-.759.506-1.116.787a21.92 21.92 0 00-1.051.889l-.013-.006z" fill="#000"></path><path d="M33.171 81.49c-.104-.094-.198-.2-.298-.3-.1-.098-.2-.197-.29-.305-.185-.211-.377-.418-.548-.638-.128-.16-.279-.301-.393-.47a12.97 12.97 0 01-1.116-1.84c-.15-.28-.29-.558-.445-.837-.089-.183-.187-.361-.279-.544a2.563 2.563 0 01-.163-.587c-.02-.126.166-.172.378-.14.212.032.448.14.527.345a50.393 50.393 0 001.064 2.284c.028.053.063.102.095.153.066.1.14.201.204.3.14.197.302.383.446.579.33.42.684.822 1.061 1.202l.174.175c.059.058.122.112.182.168.124.11.242.227.37.329.199.155.385.323.592.466l.306.217c.104.07.213.14.32.195.082.05.167.097.252.14.085.043.175.078.262.115.176.076.35.151.532.214.078.03.157.053.234.085.036.015.068.03.098.046l.041.02h.01c-.166.372-.046.103-.084.186a.05.05 0 000-.02.301.301 0 000-.139c.02.052.05.099.087.14a.14.14 0 00.084.056h-.009v.007a.134.134 0 00.01-.014.25.25 0 00.015-.053.104.104 0 01.056-.094.094.094 0 01.036-.01.14.14 0 01.06.02c.034.02.06.05.074.085.011.023.018.047.021.071a.327.327 0 010 .075.342.342 0 01-.036.11.497.497 0 01-.148.174.466.466 0 01-.356.083l-.196-.054-.131-.04a4.783 4.783 0 01-.78-.305c-.085-.043-.171-.082-.255-.127l-.248-.139a6.263 6.263 0 01-.485-.305l-.357-.242c-.113-.085-.225-.175-.336-.263-.228-.173-.434-.37-.65-.558l.012-.015z" fill="#000"></path><path d="M33.967 84.115c.787-14.295 6.756-22.964 13.278-27.39 1.443-.975 3.004-1.831 4.703-2.223 2.257-.519 4.642-.193 6.833.557 2.19.75 4.209 1.925 6.189 3.121 3.087 1.867 6.135 3.836 8.821 6.246 2.686 2.41 9.11 11.425 9.58 15.42" fill="#666"></path><path d="M61.811 56.911c-1.424-.762-2.9-1.42-4.443-1.824-1.542-.404-3.15-.557-4.709-.324-1.137.167-2.23.588-3.263 1.115a19.585 19.585 0 00-2.635 1.629l-.32.224a4.55 4.55 0 00-.312.233l-.612.484c-.418.313-.795.67-1.188 1.013a27.727 27.727 0 00-4.129 4.68 26.576 26.576 0 00-2.663 4.862c-.124.267-.22.548-.327.824l-.31.836-.265.845c-.09.28-.185.558-.253.848-.15.572-.315 1.14-.43 1.718-.06.289-.132.576-.192.865l-.157.87c-.14.722-.313.606-.4-.043-.089-.65-.087-1.852.278-3.208.083-.298.152-.6.247-.896l.287-.884c.05-.14.095-.296.148-.44l.168-.435.336-.867c.12-.279.252-.565.377-.848.126-.283.249-.569.398-.836.279-.55.558-1.108.885-1.635.16-.266.311-.537.476-.8l.514-.775.258-.388.28-.374.557-.747c.188-.247.393-.48.59-.721l.298-.357.15-.18.158-.17c.427-.453.837-.922 1.295-1.343l.403-.389c.139-.13.266-.262.41-.382l.843-.748c.286-.246.59-.474.884-.715.15-.117.294-.24.448-.353l.464-.333.465-.335.232-.167.239-.159c.319-.212.644-.415.976-.61a14.371 14.371 0 012.075-1.019 10.39 10.39 0 013.741-.718c.425 0 .85.018 1.27.06 1.676.187 3.312.635 4.849 1.328 1.89.821 3.64 1.89 5.373 2.952 2.624 1.615 5.22 3.334 7.572 5.314 1.83 1.534 3.51 3.197 4.93 5.108l.46.633c.138.216.293.43.433.654.14.224.248.399.35.579l.279.492c.152.307.278.558.355.767.07.173.127.35.172.531.026.127.038.258.036.388.004.101 0 .203-.015.304-.034.114-.158 0-.349-.292-.191-.291-.46-.765-.807-1.368a26.078 26.078 0 00-3.868-4.989 32.61 32.61 0 00-2.384-2.206 44.217 44.217 0 00-2.592-2.018 72.26 72.26 0 00-4.094-2.731c-1.397-.873-2.806-1.742-4.245-2.51l.003-.019z" fill="#000"></path><path d="M64.004 49c.145.363.417.66.765.837a1.351 1.351 0 001.124.04c.23-.107.431-.264.59-.46.66-.767.785-1.878.106-2.662" fill="#fff"></path><path d="M67.22 49.14c-.093.155-.2.301-.322.436a2.502 2.502 0 01-.398.37 1.84 1.84 0 01-.348.231c-.232.1-.485.142-.737.126a1.812 1.812 0 01-.683-.189 2.86 2.86 0 01-.516-.331c-.198-.164-.404-.363-.436-.634-.01-.086.175-.139.368-.164.192-.025.386-.04.438.03.09.124.198.237.318.335.126.101.267.181.418.239.097.034.203.039.303.014.097-.027.191-.067.278-.119a1.84 1.84 0 00.57-.526c.1-.136.18-.284.24-.44.095-.237.129-.494.1-.748a1.116 1.116 0 00-.25-.503c-.022-.034-.054-.06-.08-.09a.287.287 0 01-.045-.082.127.127 0 01-.013-.07.418.418 0 01.107-.183c.03-.035.056-.074.087-.108a.27.27 0 01.383-.037 1.665 1.665 0 01.558 1.37c-.022.38-.128.749-.312 1.081l-.028-.008z" fill="#000"></path><path d="M65.575 48.525a.333.333 0 00.129-.022c.015 0 .015-.024.03-.03.06-.03.11-.078.14-.139a.16.16 0 000-.102c-.009-.046-.05-.086 0-.14a.746.746 0 01.266-.038c.124 0 .248.018.254.06a.558.558 0 01-.13.45c-.072.074-.099.174-.176.244a.686.686 0 01-.278.156c-.058.017-.116.03-.175.04-.086.012-.17.008-.25.016a1.8 1.8 0 00-.192.053.25.25 0 01-.043.011c-.053 0-.064-.036-.05-.167l.01-.09a.372.372 0 01.08-.206.403.403 0 01.235-.092c.046-.001.093-.005.14-.011l.01.007z" fill="#000"></path><path d="M52.558 53.191a3.139 3.139 0 00-2.954.821c-2.154 2.187.119 5.956 1.752 7.67.115.122.256.25.425.242a.596.596 0 00.268-.1c.82-.48 1.377-1.286 2.11-1.884a.608.608 0 01.58-.14c.196.076.306.28.4.473l1.143 2.344a.355.355 0 00.162.194c.418.17 1.629-.557 1.981-.758a6.691 6.691 0 001.891-1.605c.345-.414.62-.882.812-1.385.605-1.66-.103-3.69-1.591-4.64" fill="#666"></path><path d="M55.733 62.547L54.73 60.4a1.127 1.127 0 00-.1-.175.08.08 0 00-.096-.033.334.334 0 00-.118.06 10.24 10.24 0 00-.837.778c-.205.205-.418.419-.647.622a4.507 4.507 0 01-.365.294c-.066.045-.13.092-.198.14l-.103.061-.066.038-.085.043a.744.744 0 01-.635.015 1.045 1.045 0 01-.271-.182c-.072-.066-.116-.116-.16-.165a10.432 10.432 0 01-.51-.605 12.394 12.394 0 01-.884-1.3c-.267-.452-.5-.924-.697-1.41a6.981 6.981 0 01-.432-1.535 4.695 4.695 0 01-.012-1.439c.078-.487.262-.95.54-1.358l.14-.19c.048-.061.101-.12.153-.178a3.222 3.222 0 011.152-.82 3.068 3.068 0 011.856-.179c.192.046.26.123.235.191-.023.069-.139.14-.294.208-.155.069-.362.14-.587.218l-.735.25a2.578 2.578 0 00-1.743 2.18c-.047.53 0 1.065.14 1.579a8.4 8.4 0 00.588 1.577 9.122 9.122 0 001.13 1.758c.11.14.224.28.343.403l.178.193.071.07c.011.01.023.018.035.026a.117.117 0 00.084.018.2.2 0 00.04-.014l.06-.033c.142-.084.278-.177.407-.28.298-.245.581-.507.848-.786.14-.14.287-.279.438-.426.077-.07.155-.14.234-.208l.123-.1a1.035 1.035 0 01.601-.24c.16-.007.318.04.449.13a.874.874 0 01.177.161c.042.051.08.105.113.162.055.095.105.192.15.293l.511 1.082.314.666.157.334.069.146a.474.474 0 00.041.08c.035.052.107.052.164.048.092-.012.182-.034.269-.065.22-.078.435-.172.643-.28.161-.08.322-.166.484-.256l.242-.14a6.603 6.603 0 001.099-.78 5.534 5.534 0 001.32-1.674 3.275 3.275 0 00.334-1.549 3.951 3.951 0 00-.37-1.527 8.998 8.998 0 00-.161-.302 2.695 2.695 0 00-.189-.289c-.12-.177-.235-.31-.326-.43a3.48 3.48 0 00-.237-.278 1.052 1.052 0 01-.14-.216.633.633 0 01-.065-.196 1.305 1.305 0 01-.032-.188c0-.09.102-.109.279-.05.113.038.22.092.318.16.139.09.269.193.387.308.4.4.718.873.935 1.395.23.542.345 1.125.337 1.714v.223l-.022.223c-.018.15-.043.299-.077.446-.033.147-.082.292-.128.437-.05.142-.108.282-.173.418a6.015 6.015 0 01-.997 1.438 7.009 7.009 0 01-.96.859 7.224 7.224 0 01-.81.525l-.263.148a7.7 7.7 0 01-1.162.548 2.38 2.38 0 01-.17.055c-.03.008-.057.016-.09.023l-.115.025c-.093.017-.191.016-.287.024a1.415 1.415 0 01-.28-.054.521.521 0 01-.238-.14.857.857 0 01-.171-.223c-.022-.042-.043-.086-.064-.13l-.04-.082-.065-.14h.023zM62.399 47.517c1.058.177 2.15.305 3.2.08 1.952-.419 3.495-2.085 4.06-3.994.567-1.91.24-4.01-.605-5.815-.88-1.877-3.196-3.397-5.23-3.635" fill="#000"></path><path d="M70.128 39.418c.27 1.14.302 2.324.095 3.477a7.01 7.01 0 01-.335 1.238 6.262 6.262 0 01-2.973 3.267c-.596.3-1.241.492-1.905.565-.829.1-1.67.047-2.479-.156-.247-.066-.178-.248.06-.4a1.838 1.838 0 011.082-.232A5.971 5.971 0 0065.918 47a4.54 4.54 0 001.026-.446c.332-.193.644-.417.933-.67.698-.619 1.193-1.508 1.469-2.42a7.284 7.284 0 00.205-3.178 8.907 8.907 0 00-.52-1.932 5.405 5.405 0 00-.696-1.322 5.91 5.91 0 00-1.038-1.082 6.849 6.849 0 00-2.015-1.094c-.16-.05-.316-.098-.478-.14-.596-.168-.778-.221-.887-.442a.874.874 0 01-.074-.149c-.022-.08.036-.14.166-.178.081-.022.164-.034.248-.037.113.001.226.01.338.027 1.492.238 2.94 1.062 4.016 2.273a5.766 5.766 0 01.78 1.125l.107.208c.034.068.06.14.09.202.233.541.42 1.1.558 1.673h-.018z" fill="#000"></path><path d="M52.84 37.042c-1.913 2.836-3.918 6.148-3.049 9.457.446 1.697 1.612 3.137 2.037 4.84.419 1.673.085 3.458.495 5.13.41 1.672 2.134 3.292 3.708 2.595 1.266-.558 1.563-2.171 2.11-3.444 1.224-2.855 4.213-4.522 5.996-7.067a9.762 9.762 0 001.454-7.831c-.665-2.682-2.848-5.193-5.61-5.32" fill="#fff"></path><path d="M60.898 52.653c-.996.976-1.894 2.019-2.415 3.254-.267.625-.474 1.317-.82 1.996a3.856 3.856 0 01-.68.968c-.293.302-.66.524-1.065.644a1.047 1.047 0 01-.225.054c-.077.013-.154.028-.23.038h-.351l-.114-.014-.229-.03-.219-.06a2.915 2.915 0 01-.418-.158 3.836 3.836 0 01-1.322-1.084 4.542 4.542 0 01-.718-1.3c-.046-.117-.072-.24-.109-.36-.036-.12-.051-.236-.076-.355-.026-.118-.04-.237-.058-.355l-.041-.353c-.088-.943-.047-1.859-.097-2.747a8.198 8.198 0 00-.166-1.304 7.211 7.211 0 00-.411-1.244c-.344-.818-.8-1.613-1.169-2.47a8.42 8.42 0 01-.418-1.182c-.047-.205-.088-.418-.13-.62-.044-.2-.051-.417-.076-.627a8.01 8.01 0 01.23-2.479c.026-.131.067-.257.103-.383l.112-.382c.09-.249.17-.502.27-.745s.197-.49.311-.727l.167-.358.18-.35a21.08 21.08 0 011.656-2.65c.379-.522.488-.341.341.213-.146.553-.545 1.48-1.104 2.496-.499.883-.9 1.818-1.198 2.788a7.178 7.178 0 00-.279 2.92c.106.968.523 1.88.986 2.827.23.473.471.954.68 1.463.218.516.378 1.054.479 1.605.224 1.329.093 2.642.228 3.892.034.308.086.615.157.917.077.288.186.565.325.828.145.263.318.509.514.735.196.22.418.414.662.578.259.172.55.289.856.341.295.047.596.01.87-.106.559-.23.95-.78 1.232-1.394.282-.615.49-1.308.803-1.983a8.63 8.63 0 011.181-1.867c1.142-1.395 2.534-2.502 3.722-3.765.45-.473.863-.98 1.233-1.519a9.438 9.438 0 001.574-5.529 9.26 9.26 0 00-.178-1.485 8.109 8.109 0 00-.434-1.41 8.395 8.395 0 00-.697-1.294 7.648 7.648 0 00-.923-1.128c-.072-.08-.155-.14-.233-.217a2.735 2.735 0 00-.239-.207c-.17-.124-.33-.262-.513-.37a7.362 7.362 0 00-1.486-.74 3.34 3.34 0 01-.706-.325 1.697 1.697 0 01-.223-.158c-.077-.084.054-.14.38-.166.205-.01.411.004.614.039.133.023.264.052.393.089.07.02.14.036.216.06l.224.085c.91.368 1.724.94 2.379 1.673.331.367.628.764.886 1.186.14.207.247.43.366.65.057.11.103.227.156.341.053.114.105.227.14.346l.13.353c.04.118.073.24.11.362.077.241.12.487.18.73.093.494.152.994.173 1.496a9.927 9.927 0 01-.051 1.509c-.021.25-.07.499-.108.748-.037.25-.096.497-.166.74a10 10 0 01-2.06 3.968c-.956 1.143-2.06 2.092-3.057 3.08l-.007-.012z" fill="#000"></path><path d="M64.307 44.14c.14-2.457-2.186-3.855-4.434-3.67a3.456 3.456 0 00-2.675 1.64 3.524 3.524 0 00-.152 3.092 4.34 4.34 0 002.231 2.21c.51.244 1.074.359 1.639.334a3.376 3.376 0 001.72-.68c.936-.686 1.606-1.768 1.671-2.926z" fill="#fff"></path><path d="M57.329 46.525a4.278 4.278 0 01-.872-1.76 4.01 4.01 0 01.294-2.633c.108-.22.24-.425.392-.614a3.814 3.814 0 012.74-1.353 5.12 5.12 0 012.298.399c.083.036.165.069.247.106l.237.127.12.063.113.074.226.149c.074.052.14.111.212.169.072.053.14.113.204.177.348.319.625.708.811 1.142.052.107.092.22.121.334.028.115.065.23.081.345.017.116.025.234.034.351.004.117 0 .233-.013.349-.025.293-.216.224-.403 0a3.76 3.76 0 01-.279-.419 3.62 3.62 0 01-.242-.527 3.088 3.088 0 00-1.49-1.623 4.674 4.674 0 00-1.115-.408c-.396-.083-.8-.12-1.205-.112a2.815 2.815 0 00-1.368.432 2.986 2.986 0 00-1.008 1.037c-.534.921-.514 2.16.017 3.123a4.027 4.027 0 001.41 1.482c.444.284.94.476 1.458.565.253.038.511.038.764 0 .254-.042.501-.12.734-.23a3.774 3.774 0 001.877-2.117c.114-.297.164-.498.231-.634a.558.558 0 01.234-.28c.044-.032.091-.061.14-.087.08-.03.14.028.188.169.05.21.05.43 0 .641a4.135 4.135 0 01-1.255 2.203c-.326.306-.696.56-1.099.755a3.425 3.425 0 01-1.354.341 4.078 4.078 0 01-1.962-.489 5.09 5.09 0 01-1.546-1.231l.028-.016zM48.164 44.69a4.282 4.282 0 01-.871-1.76 4.016 4.016 0 01.294-2.638c.107-.22.239-.425.393-.614a3.807 3.807 0 012.739-1.356 5.479 5.479 0 011.789.22c.169.06.342.107.505.184l.247.106.237.127.12.064.113.072.226.15c.073.053.139.113.211.168.073.055.142.114.205.179a3.3 3.3 0 01.81 1.142c.052.107.093.218.122.333.028.114.064.229.08.344.017.116.026.235.034.352.005.116 0 .233-.012.349-.024.292-.215.224-.403 0a3.34 3.34 0 01-.522-.952 3.09 3.09 0 00-1.485-1.614 4.732 4.732 0 00-1.116-.409c-.395-.082-.799-.12-1.203-.111a2.815 2.815 0 00-1.37.432 2.986 2.986 0 00-1.007 1.036c-.534.922-.515 2.161.016 3.125a4.012 4.012 0 001.416 1.477c.443.284.938.476 1.457.564.253.04.51.04.764 0 .254-.042.5-.119.733-.228a3.794 3.794 0 001.876-2.117c.114-.298.165-.498.232-.636a.558.558 0 01.234-.279c.044-.032.09-.062.14-.088.079-.029.139.028.189.17.049.211.049.43 0 .64a4.144 4.144 0 01-1.255 2.205c-.326.306-.696.56-1.099.753a3.425 3.425 0 01-1.354.342 4.078 4.078 0 01-1.95-.49 5.09 5.09 0 01-1.547-1.231l.012-.011z" fill="#000"></path><path d="M56.167 42.602a.959.959 0 00-.193-.084c-.025-.008-.051 0-.078-.01a1.582 1.582 0 00-.288-.07.279.279 0 00-.132.016c-.055.015-.106.06-.17.017-.041-.028-.075-.507 0-.522a.63.63 0 01.406.045c.081.022.164.033.248.035.092.018.182.044.27.078.052.02.105.044.157.065.08.036.153.081.23.114.066.02.133.036.2.05a.222.222 0 01.047.01c.049.027.043.065-.03.175l-.05.075a.355.355 0 01-.17.14.469.469 0 01-.279-.046c-.055-.027-.113-.058-.174-.081l.006-.007z" fill="#000"></path><path d="M54.425 45.623a2.395 2.395 0 01-.015-1.008c.013-.112.032-.224.057-.334.058-.183.126-.361.204-.536.07-.156.13-.315.182-.478.048-.15.076-.311.11-.477.042-.208.077-.45.257-.61.056-.052.215.058.355.192.139.133.263.279.232.368-.057.153-.107.32-.17.507a3.844 3.844 0 01-.252.597c-.06.11-.107.226-.14.346-.032.114-.054.23-.08.34a2.038 2.038 0 00-.065.716 1.2 1.2 0 00.044.21c.017.066.044.13.078.19.106.196.27.355.468.456a.884.884 0 00.487.053c.033 0 .065-.021.096-.023.116-.018.153.019.231.206.019.043.04.083.056.126a.256.256 0 01-.14.353c-.229.09-.48.107-.72.05a1.702 1.702 0 01-.66-.316 1.852 1.852 0 01-.382-.405c-.053-.079-.1-.163-.14-.25-.019-.045-.041-.093-.058-.14l-.043-.131.008-.002zM67.104 36.73c.157-.722-.129-1.466-.46-2.128a7.867 7.867 0 00-1.487-2.143c-1.9-1.852-4.896-1.76-7.351-1.978-1.04-.093-1.9-.49-2.79-.994-.57-.323-1.186-1.161-1.86-1.125-.472.025-.825.43-1.09.821-.558.828-1.003 1.757-1.149 2.746-.272 1.82.795 3.462 2.07 4.678 1.756 1.673 4.322 2.348 6.648 2.753 1.505.262 3.207.495 4.722.267.634-.094 1.295-.292 1.716-.776" fill="#000"></path><path d="M51.211 35.162a5.6 5.6 0 01-.655-1.588 4.506 4.506 0 01-.063-1.745c.097-.559.27-1.102.513-1.614.118-.252.25-.498.392-.737.071-.118.14-.234.222-.35.082-.116.152-.228.242-.346.135-.182.292-.347.468-.49.204-.17.45-.279.714-.316.14-.014.28-.008.418.021.067.014.127.037.19.056.062.02.114.047.17.073.195.1.38.224.548.366.279.228.523.467.757.625.05.034.125.078.198.119l.217.122c.14.08.29.155.437.228.571.29 1.19.48 1.827.557 1.333.14 2.713.186 4.076.469.612.12 1.21.301 1.786.542.583.248 1.12.591 1.588 1.017a7.25 7.25 0 011.457 1.896c.198.348.368.712.508 1.087.15.396.214.82.188 1.243-.028.28-.12.374-.185.35-.066-.026-.14-.166-.218-.358a7.884 7.884 0 00-.346-.717c-.149-.278-.337-.6-.537-.976a7.52 7.52 0 00-1.248-1.805 5.029 5.029 0 00-1.785-1.155 9.854 9.854 0 00-2.178-.551c-.758-.116-1.534-.185-2.328-.266l-.716-.074a6.278 6.278 0 01-.754-.119 6.842 6.842 0 01-1.442-.511c-.229-.108-.45-.224-.668-.343l-.162-.091c-.061-.038-.127-.075-.18-.116-.117-.08-.214-.16-.313-.241-.194-.16-.371-.32-.548-.452a1.41 1.41 0 00-.508-.266.588.588 0 00-.485.124c-.18.142-.336.313-.462.505a7.768 7.768 0 00-.754 1.333 5.13 5.13 0 00-.404 1.447c-.058.493-.016.992.124 1.468.179.601.46 1.167.83 1.674.37.517.8.99 1.278 1.408.366.314.759.594 1.174.837.42.244.858.457 1.31.637.91.361 1.852.636 2.813.822.745.147 1.494.26 2.232.344.737.086 1.48.12 2.22.099a9.95 9.95 0 00.956-.09 5.845 5.845 0 001.183-.27c.176-.068.36-.112.549-.132.074 0 .16-.031.219-.028.059.003.071.033.063.092a.584.584 0 01-.127.25 2.027 2.027 0 01-.976.618c-.347.11-.703.188-1.064.23a9.228 9.228 0 01-1.075.08c-.72.008-1.44-.035-2.153-.128a31.668 31.668 0 01-2.133-.345 19.547 19.547 0 01-2.132-.546 10.701 10.701 0 01-2.995-1.474 8.53 8.53 0 01-1.265-1.132 8.053 8.053 0 01-1.023-1.356l.015-.011zM54.488 60.208c-.16-.038-.377.038-.689.287l-.99.792a1.095 1.095 0 00-.294.306c-.399.715-.05 2.222.125 2.959.02.127.077.246.165.341.093.067.201.11.315.121l1.164.228c.128.04.266.034.39-.018a.557.557 0 00.178-.214c.163-.279.326-.558.464-.85.373-.778.551-1.584-.007-2.397-.368-.537-.389-1.456-.821-1.555z" fill="#000"></path><path d="M55.304 65.151l-.084.14c-.041.068-.09.13-.146.188a.742.742 0 01-.406.216 1.094 1.094 0 01-.35-.003c-.04 0-.082-.015-.1-.02l-.25-.058-1.007-.234a.946.946 0 01-.41-.194.82.82 0 01-.23-.346 1.616 1.616 0 01-.032-.096l-.018-.071-.025-.121a11.64 11.64 0 01-.194-1.34 5.753 5.753 0 01-.015-.696c.006-.245.043-.487.11-.723.02-.054.036-.108.057-.163l.078-.163c.065-.11.149-.209.247-.291l.453-.383c.188-.16.371-.329.558-.488.104-.09.217-.17.336-.238a.95.95 0 01.484-.14c.123 0 .159.079.14.15a1.84 1.84 0 01-.115.252c-.04.096-.056.195-.09.29a.586.586 0 01-.18.26 40.99 40.99 0 01-.592.475l-.301.232-.148.112-.105.083a.589.589 0 00-.041.041 1.094 1.094 0 00-.134.37 3.847 3.847 0 00-.069.674c0 .296.029.592.088.882.028.15.062.3.095.45l.052.225.023.103.007.027v.018c.007.021.019.04.034.057.02.019.043.032.07.04l.033.009.053.011.113.027.455.103.454.103.189.043c.034.007.069.007.103 0a.197.197 0 00.107-.092l.148-.25.31-.538a3.37 3.37 0 00.326-.836c.03-.141.047-.284.047-.428a1.578 1.578 0 00-.065-.419 1.38 1.38 0 00-.133-.297 1.42 1.42 0 00-.09-.14l-.108-.148a3.489 3.489 0 01-.357-.71c-.042-.095-.08-.189-.123-.28a1.14 1.14 0 01-.106-.302c0-.05.03-.108.042-.212a1.046 1.046 0 000-.14c0-.079.044-.139.183-.139a.611.611 0 01.418.29c.128.205.237.421.328.646.07.174.157.34.262.495l.103.15a2.152 2.152 0 01.275.58c.087.28.12.574.095.865-.039.4-.148.79-.324 1.15a5.38 5.38 0 01-.258.482l-.263.467-.007-.007z" fill="#000"></path><path d="M53.124 65.05c-.877 2.731-3.067 14.043-3.75 17.123.975-.238 5.372-1.632 5.816-2.258.391-.557-.491-11.992-.608-15.032" fill="#000"></path><path d="M55.527 80.228a.928.928 0 01-.123.124.6.6 0 01-.064.057l-.052.038c-.067.048-.127.083-.19.122-.12.071-.24.14-.36.19-.236.116-.47.216-.706.31-.47.19-.941.36-1.414.524-.473.163-.947.316-1.424.463l-.717.216-.503.14c-.21.058-.418.11-.62.16l-.447.111c-.008 0-.022.01-.025 0v-.029l.013-.057.022-.115.046-.228c.063-.306.118-.603.185-.916l.232-1.09 1.655-7.453c.246-1.103.477-2.214.706-3.311.148-.706.29-1.414.45-2.12.155-.708.35-1.406.583-2.092.153-.432.316-.306.389.108a4.446 4.446 0 01.035.817c-.019.373-.071.743-.156 1.107-.661 2.849-1.283 5.717-1.985 8.598-.418 1.722-.751 3.536-1.139 5.31l-.057.257-.03.125-.016.066-.008.032v.008h.022l.124-.03.14-.038.317-.094.712-.217c.942-.299 1.885-.615 2.788-.992.273-.111.538-.24.795-.383.057-.033.113-.069.166-.107a.259.259 0 00.077-.08.369.369 0 00.015-.052v-.03c0-.016 0-.032.007-.049.009-.068.016-.14.02-.215.036-.591.026-1.207.015-1.813-.042-1.85-.128-3.714-.245-5.554-.094-1.429-.235-2.828-.353-4.242-.027-.31-.059-.614-.081-.928-.08-1.165-.047-1.542.14-1.802a.975.975 0 01.126-.17c.15-.117.292.349.385 1.197.28 2.518.479 5.183.625 7.864.055.997.098 1.997.13 3 .015.502.026 1.005.028 1.513 0 .253 0 .509-.013.77 0 .13-.013.261-.026.402l-.013.11c0 .031-.014.104-.03.16l-.023.087-.034.083c-.01.028-.029.053-.04.08l-.056.07.002-.012zM18.718 41.094c-.074.34-.128.685-.16 1.032-.14 1.44 0 3.041-.907 4.167-.677.836-1.771 1.188-2.772 1.585-1.763.697-3.486 1.73-4.486 3.336-1 1.605-1.116 3.88.14 5.299.742.836 1.827 1.267 2.796 1.83.97.561 1.918 1.405 2.021 2.52.13 1.395-1.067 2.498-1.896 3.626-1.57 2.136-1.953 5.131-.816 7.53 1.663 3.52 6.902 5.201 10.4 3.728 1.627-.686 3.187-1.593 4.407-2.87 2.743-2.872 3.382-7.252 2.65-11.156-.27-1.44-.709-2.855-.845-4.315-.147-1.561.341-2.625 1.524-3.664 2.02-1.777 4.426-3.15 6.108-5.252 2.28-2.851 2.91-7.003 1.36-10.307-1.072-2.285-3.189-4.044-5.602-4.742-5.67-1.67-12.655 1.8-13.922 7.653z" fill="#000"></path><path d="M29.778 56.1c-.073.336-.1.681-.08 1.025l.019.266.03.279c.021.183.047.367.077.558.119.737.296 1.478.465 2.23.083.377.166.758.238 1.144.073.387.14.779.172 1.172.032.393.07.786.097 1.18.027.393.023.789 0 1.185-.019.791-.105 1.58-.258 2.356-.148.78-.37 1.545-.666 2.283-.295.742-.669 1.45-1.116 2.112-.11.168-.238.323-.357.483-.061.08-.118.162-.184.237l-.2.226c-.259.303-.538.588-.836.853a13.148 13.148 0 01-2.88 1.916c-.256.13-.517.25-.778.367-.139.056-.258.114-.398.169-.141.054-.28.11-.419.153a7.579 7.579 0 01-1.733.346 9.48 9.48 0 01-3.068-.279 9.76 9.76 0 01-2.82-1.205 7.659 7.659 0 01-2.24-2.122c-.073-.107-.147-.216-.21-.33a3.907 3.907 0 01-.189-.343 3.406 3.406 0 01-.166-.355c-.05-.12-.103-.238-.15-.36a7.897 7.897 0 01-.379-1.503 8.03 8.03 0 011.48-5.837c.305-.407.629-.783.925-1.166.297-.364.547-.764.743-1.192.087-.203.146-.418.177-.637.013-.108.016-.217.011-.325a.895.895 0 00-.011-.162 1.22 1.22 0 00-.027-.159 2.454 2.454 0 00-.638-1.154 4.772 4.772 0 00-.962-.79c-.353-.227-.744-.426-1.131-.634-.4-.207-.787-.437-1.16-.689a4.346 4.346 0 01-1.011-.96 4.268 4.268 0 01-.79-2.639 5.377 5.377 0 01.746-2.624c.3-.503.664-.963 1.085-1.37a8.603 8.603 0 011.36-1.076c.483-.31.988-.585 1.51-.824.519-.244 1.058-.44 1.565-.646.498-.185.968-.44 1.394-.76.395-.318.693-.74.859-1.22a6.243 6.243 0 00.297-1.566c.049-.548.07-1.108.14-1.673.091-.713.232-1.002.295-.965.063.036.078.393.107.976l.062 1.06c.033.471.033.945 0 1.416-.02.283-.067.563-.14.837a3.295 3.295 0 01-1.03 1.7 4.42 4.42 0 01-.877.588c-.53.258-1.072.488-1.625.69-.511.202-1.01.435-1.495.696a9.185 9.185 0 00-1.352.893 6.466 6.466 0 00-1.116 1.128c-.32.408-.57.866-.74 1.355-.177.487-.273 1-.283 1.517 0 .505.1 1.004.294 1.47.053.112.106.223.167.33.063.104.132.205.207.302.15.2.324.38.518.537.428.33.886.62 1.368.863.25.14.506.27.763.418.266.148.523.313.768.492.527.371.965.854 1.283 1.414.163.304.27.635.313.977.037.34.013.686-.07 1.019a3.66 3.66 0 01-.372.9c-.152.266-.321.521-.508.764-.36.476-.742.907-1.068 1.346a7.413 7.413 0 00-1.293 2.975 6.847 6.847 0 00.371 3.883c.49 1.228 1.463 2.232 2.61 2.952a9.14 9.14 0 003.838 1.311c.169.022.339.028.509.04.17.013.339.015.509.009a7.373 7.373 0 001.995-.293c.323-.1.639-.221.946-.362 1.394-.614 2.706-1.395 3.773-2.453.53-.53.997-1.12 1.388-1.759.386-.645.707-1.327.956-2.037.24-.717.42-1.453.536-2.2.11-.751.164-1.51.16-2.269a15.88 15.88 0 00-.18-2.272c-.107-.753-.287-1.5-.457-2.257a17.856 17.856 0 01-.479-2.864 4.433 4.433 0 01.17-1.506c.15-.49.394-.945.719-1.34.316-.38.67-.726 1.055-1.034.372-.31.748-.61 1.127-.9.759-.585 1.534-1.144 2.265-1.737 1.115-.895 2.17-1.87 2.935-3.058.092-.15.198-.292.279-.449l.255-.464c.15-.32.307-.636.425-.976a9.704 9.704 0 00.55-2.043c.111-.698.149-1.405.111-2.111a9.87 9.87 0 00-.354-2.076l-.166-.5c-.054-.167-.132-.325-.198-.488-.035-.08-.065-.161-.103-.24l-.118-.235c-.074-.158-.168-.307-.254-.459a8.342 8.342 0 00-1.29-1.648 8.835 8.835 0 00-2.657-1.823c-.49-.221-1-.394-1.524-.516a9.898 9.898 0 00-1.59-.25 11.702 11.702 0 00-6.219 1.303c-.834.432-1.612.965-2.316 1.587a10.595 10.595 0 00-1.5 1.622c-.297.404-.57.826-.817 1.263-.396.71-.578 1.146-.792 1.484a5.27 5.27 0 01-.256.464c-.058.075-.087.042-.089-.095a3.218 3.218 0 01.098-.706 8.1 8.1 0 011.298-2.817 11.585 11.585 0 014.782-3.818 12.212 12.212 0 016.192-.992c.536.058 1.067.157 1.587.296.527.137 1.04.32 1.534.55.494.229.968.498 1.418.804.45.31.874.656 1.266 1.037a9.204 9.204 0 011.918 2.66 9.713 9.713 0 01.852 3.172c.077.81.061 1.627-.046 2.434a11.353 11.353 0 01-.603 2.357 10.21 10.21 0 01-1.115 2.17l-.084.128-.09.124-.179.241c-.061.081-.121.165-.186.243l-.195.233c-.26.31-.54.601-.827.884-1.153 1.116-2.441 2.03-3.661 2.967-.304.236-.608.47-.901.713-.293.243-.593.49-.845.735-.251.242-.472.513-.657.809a3.01 3.01 0 00-.374.927l-.014.007z" fill="#000"></path><path d="M31.564 54.69a4.56 4.56 0 00-.648-1.21c-1.148-1.49-3.047-1.534-4.372-2.72-.329.447-.762.854-1.303.975-.541.122-1.195-.113-1.387-.636-.237-.646.29-1.305.79-1.779.14-.13.279-.279.295-.466a.738.738 0 00-.14-.41c-.387-.652-.696-1.083-.696-1.851-.032-2.273 1.126-4.477 2.855-5.95 1.73-1.474 3.98-2.26 6.243-2.46 7.084-.63 7.288 7.064 5.508 12.313-.71 2.091-1.844 4.12-1.83 6.33 0 .932.188 1.975-.39 2.706-.734.924-2.06.669-2.816-.017-.915-.837-1.3-1.758-1.586-2.95a16.294 16.294 0 00-.514-1.88" fill="#fff"></path><path d="M39.136 44.074a9.084 9.084 0 00-.433-2.24 6.084 6.084 0 00-.463-1.018c-.09-.16-.191-.315-.3-.464-.052-.076-.114-.14-.172-.213a1.941 1.941 0 00-.181-.202l-.192-.193c-.066-.064-.14-.117-.21-.175a3.834 3.834 0 00-.684-.45 2.686 2.686 0 00-.246-.122 4.534 4.534 0 00-.518-.191 6.46 6.46 0 00-2.241-.241c-1.131.067-2.247.294-3.313.674a9.836 9.836 0 00-2.629 1.384 8.302 8.302 0 00-2.016 2.158 7.391 7.391 0 00-1.07 2.747c-.04.244-.066.489-.078.735 0 .123-.01.248-.008.367 0 .115.011.23.03.343.069.445.33.856.596 1.308.049.078.092.16.13.244a.709.709 0 01-.11.782 2.39 2.39 0 01-.243.253c-.143.134-.275.279-.395.433-.116.144-.21.304-.279.474a.836.836 0 00-.04.468.76.76 0 00.086.203.782.782 0 00.154.166.992.992 0 00.447.188c.083.013.166.017.25.013a1.29 1.29 0 00.244-.047c.168-.055.326-.138.467-.244a2.46 2.46 0 00.312-.28c.152-.162.31-.38.458-.575.152.115.304.248.461.37.04.031.081.06.123.089l.072.05c.049.035.099.067.151.096.103.061.205.123.314.177.109.054.216.11.328.163.443.21.917.39 1.394.614.49.22.942.512 1.344.867.4.371.717.822.93 1.323.15.353.147.528.076.541-.072.014-.222-.124-.434-.354a6.624 6.624 0 00-.87-.837 7.348 7.348 0 00-1.436-.832c-.43-.203-.897-.385-1.37-.613a5.612 5.612 0 01-.354-.182 9.674 9.674 0 01-.351-.203 2.149 2.149 0 01-.173-.115l-.08-.055-.008.008a3.336 3.336 0 01-.237.226 2.51 2.51 0 01-.796.47 1.791 1.791 0 01-.492.105c-.17.011-.34 0-.507-.034a1.672 1.672 0 01-.912-.505 1.404 1.404 0 01-.36-1.051c.03-.331.143-.65.33-.925.156-.236.337-.455.54-.653.048-.048.1-.094.14-.139.04-.044.077-.072.102-.1l.029-.034v-.01-.021c0-.008-.013-.026-.02-.043l-.075-.13-.085-.14a7.912 7.912 0 01-.34-.63 2.93 2.93 0 01-.241-.753 3.483 3.483 0 01-.034-.762 7.484 7.484 0 01.658-2.762 9.072 9.072 0 012.819-3.528 10.892 10.892 0 014.12-1.895 13.29 13.29 0 011.84-.294c.204-.02.418-.023.626-.034.207-.011.418 0 .63.008.212.009.418.04.631.059.214.02.419.077.627.116l.308.089c.103.027.205.06.305.1a4.906 4.906 0 012.092 1.459c.274.327.511.684.705 1.064.088.191.189.38.258.577l.113.294.095.3c.148.491.253.994.314 1.504.065.504.097 1.012.096 1.52a16.746 16.746 0 01-.279 3.014c-.139.751-.325 1.493-.558 2.22-.23.73-.513 1.438-.793 2.136-.28.699-.558 1.395-.774 2.1a9.73 9.73 0 00-.266 1.069c-.071.356-.113.718-.126 1.082-.028.558.055 1.132.028 1.739a2.96 2.96 0 01-.176.921c-.12.31-.316.583-.571.795-.26.215-.576.351-.91.395a2.37 2.37 0 01-.967-.078c-.31-.089-.6-.23-.86-.419-.065-.048-.129-.102-.19-.152l-.168-.154a5.963 5.963 0 01-.316-.332 4.991 4.991 0 01-.837-1.371 7.497 7.497 0 01-.364-1.187c-.072-.325-.12-.583-.154-.797a2.912 2.912 0 01-.05-.9c.008-.1.021-.198.041-.295.04-.113.162 0 .322.319.22.487.393.993.52 1.512.123.475.295.936.512 1.376.217.425.505.81.85 1.138l.14.121c.046.042.085.068.127.103.088.065.181.123.279.173.19.1.394.17.605.204.197.033.4.024.593-.025.179-.05.342-.147.473-.28.269-.267.38-.66.397-1.147.017-.487-.047-1.018-.028-1.608.03-1.17.351-2.284.73-3.323.278-.776.599-1.521.88-2.264.28-.736.514-1.49.696-2.257a15.41 15.41 0 00.43-4.662l.015-.006z" fill="#000"></path><path d="M36.382 45.287a1.482 1.482 0 00-.09-.573c-.026-.075-.066-.12-.107-.206-.127-.28-.255-.57-.41-.837-.07-.12-.154-.23-.25-.33-.118-.132-.268-.236-.32-.419-.033-.117.608-.47.752-.303.254.293.45.632.575.999.097.214.208.42.332.619.124.258.205.535.237.82.011.092.014.186.009.279a.969.969 0 01-.08.318c-.018.035-.037.07-.057.103-.023.03-.049.06-.075.09a.816.816 0 01-.34.18c-.099.027-.2.048-.303.062-.195.03-.384.08-.579.1a1.286 1.286 0 01-.128.014c-.162 0-.21-.067-.206-.266v-.14a.347.347 0 01.19-.298c.142-.044.287-.078.433-.1.12-.017.24-.04.358-.069h.024a.176.176 0 000-.05l.035.007zM37.183 48.143a2.143 2.143 0 01-.355.071c-.06 0-.119.015-.178.015h-.178a1.486 1.486 0 01-.25 0 2.408 2.408 0 01-.792-.31c-.054-.03-.104-.063-.159-.09-.054-.026-.111-.049-.163-.08-.051-.033-.14-.066-.207-.11a.417.417 0 01-.15-.184c-.02-.05.123-.18.28-.29.155-.112.314-.214.36-.178.185.13.362.27.532.418a.43.43 0 00.093.057.497.497 0 00.102.027c.07.012.14.019.212.022l.057.01h.176l.117-.01c.04 0 .079-.006.117-.016.046-.012.096-.019.14-.034l.139-.056c.064-.036.13-.072.192-.115l.087-.076a.537.537 0 00.146-.25c.013-.06.022-.12.035-.174 0-.025 0-.055.007-.08.02-.09.08-.097.279-.056l.14.029c.148.036.252.12.257.227a1.107 1.107 0 01-.385.862 1.844 1.844 0 01-.638.392l-.013-.021zM31.77 44.704c-.139-.617-1.095-.127-.66.317.291.297.76.106.66-.317z" fill="#000"></path><path d="M30.907 45.456a1.235 1.235 0 01-.117-.127 2.321 2.321 0 01-.096-.152 1.037 1.037 0 01-.07-.191.97.97 0 01-.015-.22c.008-.054.015-.107.025-.16a.468.468 0 01.059-.14.709.709 0 01.341-.268.817.817 0 01.38-.055.931.931 0 01.36.092.584.584 0 01.194.162.25.25 0 01.054.22c-.012.05-.204.072-.39.102a2.107 2.107 0 00-.25.057l-.042.016c-.012 0 0 0 0 0h.012c.021-.014.023-.009.035-.016.098-.065.053-.06.047 0a.286.286 0 000 .098s0-.015-.01-.026a.208.208 0 00-.026-.028c-.025-.023-.044-.017-.054-.01-.01.007 0 .007-.007.007s0 0-.015-.008a.093.093 0 00-.03-.013h-.014.02c-.013 0 0 .028 0 .056.015.033.04.061.07.082.04.028.1.042.13.01.028-.032-.016-.076-.048-.092l-.024-.013c-.01-.012.034-.029.229-.078l.13-.038c.147-.043.28-.032.335.056a.557.557 0 010 .518.74.74 0 01-.468.372.86.86 0 01-.761-.174l.016-.04zM38.88 42.533a.391.391 0 01-.558.267c-.327-.14-.41-.54-.097-.738a.439.439 0 01.516.05.43.43 0 01.14.421z" fill="#000"></path><path d="M38.37 42.381a.052.052 0 00-.07.03c0 .013.008.023 0 .036a.17.17 0 00.122.164.089.089 0 00.1-.03.196.196 0 00.024-.06c.007-.02.021-.027.066-.044.134.018.264.056.386.115.173.076.31.235.25.337a.754.754 0 01-.478.353.743.743 0 01-.604-.133 2.045 2.045 0 01-.28-.242.696.696 0 01-.172-.324.673.673 0 01.349-.735.596.596 0 01.094-.046.72.72 0 01.2-.041.763.763 0 01.53.184c.127.088.23.206.3.344.016.032.029.066.037.102.017.14-.049.175-.245.152-.045 0-.09-.01-.14-.018a1.649 1.649 0 01-.312-.1.209.209 0 00-.13-.024c-.02 0-.023.012-.023.012s0-.017-.009-.02l.004-.012zM34.806 35.427a.71.71 0 01.62.157c.566.503-2.31 4.21-2.69 4.63-1.048 1.163-4.142 4.855-5.577 2.371-.837.9-1.37 1.991-2.36 2.765-.884.697-1.976 1.312-3.077 1.086-1.345-.279-1.34-2.271-1.377-3.322" fill="#000"></path><path d="M25.85 43.487c.157-.202.314-.411.483-.618l.085-.102.107-.126c.067-.084.14-.17.225-.258l.235-.258.12-.129c.034-.04.072-.078.112-.114.096.15.186.297.286.446l.15.222c.022.037.047.073.074.107a.63.63 0 00.073.078l.07.07.075.056c.023.02.05.038.078.05.026.013.052.03.08.042.115.046.239.072.363.074.142-.002.283-.024.419-.066.19-.057.371-.136.542-.235.181-.103.357-.215.527-.335a12.47 12.47 0 001.735-1.507c.279-.28.541-.558.814-.854.122-.13.25-.286.373-.433.122-.148.247-.304.366-.46.43-.546.826-1.118 1.19-1.71.229-.368.432-.751.61-1.146.04-.095.077-.19.107-.28l.012-.045.008-.032a.275.275 0 00.01-.067.129.129 0 00-.014-.069.342.342 0 00-.19-.113.168.168 0 01-.147-.127.279.279 0 01.169-.278c.1-.051.211-.074.323-.066a.762.762 0 01.431.163.67.67 0 01.21.522c0 .056-.004.113-.012.168l-.015.088-.017.076a1.37 1.37 0 01-.067.219c-.188.45-.419.882-.688 1.29-.252.397-.52.778-.796 1.15-.276.372-.564.736-.864 1.094-.152.18-.296.352-.476.539l-.488.49c-.396.392-.795.801-1.22 1.196a8.09 8.09 0 01-1.394 1.076 4.008 4.008 0 01-.735.34 2.202 2.202 0 01-.858.119 1.583 1.583 0 01-.848-.32 1.058 1.058 0 01-.168-.139l-.04-.039-.008-.008-.023-.03a.939.939 0 01-.088-.139s-.007-.015-.011-.013l-.014.014-.027.027-.054.057a3.597 3.597 0 00-.127.148c-.469.577-.902 1.224-1.464 1.789a5.352 5.352 0 01-.69.583 7.5 7.5 0 01-.75.485 3.943 3.943 0 01-1.731.548 2.603 2.603 0 01-.73-.063 1.534 1.534 0 01-.683-.375 2.092 2.092 0 01-.44-.605 3.587 3.587 0 01-.24-.678 5.296 5.296 0 01-.12-.6 2.929 2.929 0 01-.018-.793.53.53 0 01.185-.35.896.896 0 01.14-.107c.151-.077.278.224.352.735.05.37.128.737.234 1.096.08.309.242.59.468.816.097.082.213.14.337.168l.049.011.059.009c.04 0 .08.012.12.015.082.005.165.005.246 0 .35-.02.692-.108 1.008-.256.257-.117.503-.254.738-.409.242-.157.475-.328.697-.513.432-.398.819-.84 1.155-1.32l.004.01zM25.099 50.983a.839.839 0 01-.286-.12.55.55 0 01-.099-.065.503.503 0 01-.14-.38c0-.056 0-.11.007-.167.008-.055.016-.163.118-.185.015 0 .047.015.089.047l.066.052c.018.014.036.03.054.046.05.044.104.081.163.111.01 0-.017-.013-.071.04-.03.034 0 .039.011.055.02.03.047.054.08.069.024.012.051.02.079.023a.26.26 0 00.14-.016c.036-.019.06-.065.091-.102a.165.165 0 01.019-.025c.029-.023.054 0 .115.12l.042.08c.04.063.058.138.052.212a.323.323 0 01-.247.203.829.829 0 01-.292.015l.009-.013zM56.392 48.871c-.193.038-.39.056-.587.054-.071.007-.143.01-.215.009a2.379 2.379 0 01-.712-.212c-.1-.046-.2-.084-.304-.123-.13-.05-.289-.095-.343-.252-.018-.05.121-.18.269-.299.148-.118.291-.233.328-.212.156.093.305.197.447.31a.619.619 0 00.364.067 1.947 1.947 0 00.702-.073 1.41 1.41 0 00.393-.173 1.15 1.15 0 00.223-.26.5.5 0 01.043-.063c.063-.064.116-.045.257.098.032.032.065.062.096.096a.342.342 0 01.12.318 1.074 1.074 0 01-.524.531c-.173.09-.356.16-.546.208l-.01-.024zM60.226 43.335a1.415 1.415 0 00-.196-.159l-.052-.035-.039-.02a.376.376 0 00-.086-.037.832.832 0 00-.157 0 1.647 1.647 0 00-.706.14 1.148 1.148 0 00-.297.194c-.119.099-.208.232-.381.267-.108.023-.458-.617-.299-.746.285-.238.629-.396.995-.457.23-.032.454-.14.722-.14.15.002.3.032.44.088.065.025.128.056.187.092.056.034.11.07.164.106.124.093.24.195.348.307.148.167.288.34.419.522.104.139.235.246.345.377a.736.736 0 01.076.087c.076.116.048.178-.116.291-.038.025-.074.053-.113.076a.325.325 0 01-.349.026 2.956 2.956 0 01-.557-.581 2.674 2.674 0 00-.366-.392l.018-.006zM52.13 41.385a.884.884 0 00-.313-.16c-.048-.015-.098-.007-.14-.021a1.955 1.955 0 00-.527-.096.427.427 0 00-.212.06 1.12 1.12 0 00-.104.08.138.138 0 01-.116.029.923.923 0 01-.262-.306c-.096-.162-.13-.367-.04-.418a1.097 1.097 0 01.907-.12c.162.03.325.05.488.061.18.038.356.097.523.176.109.053.21.12.304.197.134.117.252.252.352.4.095.112.178.233.25.362a.54.54 0 01.041.097c.028.128-.03.175-.226.19-.045 0-.09.006-.14.006a.655.655 0 01-.324-.072 1.816 1.816 0 01-.16-.13c-.041-.04-.075-.084-.114-.127a.85.85 0 00-.195-.184l.009-.024z" fill="#000"></path><path d="M82.038 74.579a13.169 13.169 0 00-3.733 2.044.392.392 0 00-.17.233.27.27 0 00.208.27.777.777 0 00.366-.008l1.612-.279c.1-.018.558-.171.646-.106.195.154-.098.328-.239.387-.571.237-1.138.483-1.7.739-.57.26-1.151.54-1.558 1.015a.359.359 0 00-.115.279c.031.157.23.207.392.215a6.798 6.798 0 001.717-.217 7.664 7.664 0 011.072-.17c.156-.01.717 0 .32.229-.501.29-1.276.389-1.68.816-.157.166-.207.461-.034.61.172.15.418.076.63 0l1.273-.477c.176-.065.62-.366.817-.238.375.243-.569 1.039-.558 1.339a.23.23 0 00.098.198c.037.019.08.028.121.026.309 0 .558-.24.759-.477 1.616-1.925 2.449-5.108.31-7.047-.321-.292-.75-.522-1.173-.434" fill="#fff"></path><path d="M80.97 80.688l-.6.214-.303.108-.153.055c-.06.021-.123.04-.193.06-.174.048-.357.054-.534.016a.757.757 0 01-.538-.486.876.876 0 01.028-.616.94.94 0 01.146-.248l.05-.054.04-.04c.026-.025.054-.051.082-.073.203-.16.431-.287.675-.375.217-.087.418-.15.615-.218.093-.035.184-.068.263-.106.042-.018.08-.039.114-.057l.028-.017.017.021c.024.029.05.056.077.08l.02.02.01.014.026.027c.017.016.037.03.058.042l.017.007a.03.03 0 00.014.008h.02c-.009 0 0 0 0 0a.07.07 0 00-.027.03.683.683 0 00-.036.055c-.013.022-.014.04-.028.07a.578.578 0 00-.035.093l-.013.048v.01a.48.48 0 00-.083-.012h-.264a6.532 6.532 0 00-.877.14 9.244 9.244 0 01-.947.177c-.152.018-.254.032-.531.044h-.346l-.159-.02c-.05-.01-.093-.024-.14-.035a.677.677 0 01-.406-.306.511.511 0 01-.056-.266.618.618 0 01.065-.24c.096-.182.227-.342.386-.471a1.7 1.7 0 01.13-.11c.045-.036.092-.07.14-.1.068-.05.14-.097.213-.14.248-.149.505-.28.77-.395.511-.222 1.02-.425 1.534-.638l.382-.16a.605.605 0 00.159-.09h.01a.494.494 0 00.05.036l.043.024c.012 0 .03.008.033.011.037 0 .024-.01-.032.03l-.014.013-.025.023a.258.258 0 00-.04.047c-.13.167.177-.227.14-.186l-.01.013a.077.077 0 00-.009.028.306.306 0 00-.02.1v.084h-.038l-.08.013a2.844 2.844 0 00-.185.041l-.1.025c-.036.009-.064.017-.12.028h-.015l-.722.122-.474.083c-.174.038-.35.063-.529.074a1.38 1.38 0 01-.385-.036.507.507 0 01-.312-.223.409.409 0 01-.061-.205c0-.06.013-.12.04-.173.013-.024.025-.047.04-.07l.054-.076c.039-.05.068-.1.114-.152l.243-.215c.087-.071.186-.14.278-.213l.14-.105.14-.1c.065-.045.13-.088.197-.139.265-.177.537-.344.816-.499a9.166 9.166 0 011.749-.757c.383-.113.389.09.148.374a4.6 4.6 0 01-1.315.997c-.357.188-.706.392-1.042.61l-.125.083h-.01c-.013.008-.01.017 0 .02h.032l.078-.013.156-.025.62-.096a.227.227 0 00.044-.01l.077-.018.171-.04c.061-.013.123-.026.198-.037.04 0 .078-.01.133-.011h.096c.032 0 .053 0 .077.012l.041.011a.545.545 0 01.173.09l.013.01.043.04a.6.6 0 01.163.284.57.57 0 01.008.205.603.603 0 01-.182.353l-.06.056c-.067.054-.14.101-.218.14-.034.017-.07.033-.11.05l-.078.03-1.207.474c-.354.132-.701.282-1.04.45-.08.043-.16.086-.236.139-.077.053-.168.107-.183.118a.77.77 0 00-.14.126.125.125 0 00-.04.084.077.077 0 00.059.066.61.61 0 00.188.01h.047l.11-.01c.092-.01.184-.025.28-.039.185-.028.372-.064.557-.101.186-.038.434-.091.653-.122.225-.035.451-.058.679-.07a1.615 1.615 0 01.475.05.548.548 0 01.155.079c.03.026.057.055.08.086.032.047.052.1.06.156a.313.313 0 01-.01.14.417.417 0 01-.021.063l-.014.028-.008.013a.755.755 0 01-.04.053.324.324 0 01-.07.067.64.64 0 01-.104.074 3.642 3.642 0 01-.654.28 8.55 8.55 0 00-.581.214 1.688 1.688 0 00-.246.128c-.037.024-.07.05-.103.074-.033.025-.03.027-.044.04a.244.244 0 00-.091.161v.052c0 .001.022.02.09.015a.976.976 0 00.24-.059l1.01-.365c.212-.061.52-.229.728-.291a.9.9 0 01.557-.03.35.35 0 01.207.205.5.5 0 01.008.264 1.515 1.515 0 01-.26.558c-.08.12-.175.24-.258.362l-.031.046-.018.028-.03.05-.02.04c-.005.01.026.016-.066 0h-.039.102v.026l-.014.008a.178.178 0 00-.053.04.24.24 0 00.02-.06v-.017h.066a.441.441 0 00.092-.023c.261-.095.518-.446.748-.747a6.63 6.63 0 001.025-2.075 4.805 4.805 0 00.173-1.745 3.682 3.682 0 00-.527-1.602 3.549 3.549 0 00-.456-.577c-.077-.087-.155-.16-.225-.226a2.015 2.015 0 00-.187-.166 3.167 3.167 0 00-.29-.206 1.886 1.886 0 01-.346-.265c-.044-.045-.113-.081-.152-.12a.072.072 0 010-.11.419.419 0 01.226-.108c.344-.044.691.046.97.253.066.044.13.09.193.14.063.048.115.097.172.147.057.05.111.102.164.155.053.053.109.107.158.166.208.23.388.484.535.757.301.56.474 1.178.506 1.813a5.715 5.715 0 01-.209 1.86 7.428 7.428 0 01-1.352 2.624c-.124.16-.261.31-.41.448a1.635 1.635 0 01-.31.215c-.133.07-.277.115-.427.132a.922.922 0 01-.278-.008.68.68 0 01-.416-.26.769.769 0 01-.14-.348v-.079a1.01 1.01 0 010-.125c0-.032.013-.064.02-.095l.024-.072c.026-.068.058-.133.096-.196l.039-.064s.028-.023.017-.034c-.011-.012-.024 0-.042.008l.003.003z" fill="#000"></path><path d="M33.2 82.81c.25.117.332.455.683.225.153-.12.268-.28.332-.464.131-.297.245-.6.342-.91.146-.475.266-.988.618-1.34a.32.32 0 01.18-.105c.178-.021.278.206.278.385.04.606-.188 1.202-.188 1.812 0 .122.045.28.166.28.099 0 .16-.104.198-.196.356-.881.5-1.73.955-2.58.069-.125.16-.266.303-.279.219-.015.316.27.314.49 0 .754-.325 1.467-.558 2.185-.049.148-.049.374.106.393.707-.279.707-1.482 1.44-1.689.78-.22-.346 1.967.18 2.147.37.128.51-.818 1.022-.746a.559.559 0 01.425.518c.004.244-.056.484-.174.697-.47 1.013-1.277 1.916-2.42 2.117-2.102.37-4.602-1.008-4.718-3.306" fill="#fff"></path><path d="M38.919 83.554a.666.666 0 01-.51.043l-.04-.015c-.01-.014-.026-.016-.039-.024l-.075-.043a.538.538 0 01-.11-.106.726.726 0 01-.128-.251c-.06-.261-.058-.532.007-.792.029-.155.066-.316.101-.472l.062-.272c.017-.08.03-.154.039-.223a.739.739 0 00.01-.14l.046-.008a.553.553 0 00.089-.03.207.207 0 00.056-.021l.026-.018h.013c.044-.042 0-.014 0 .056a.302.302 0 000 .07v.125c0 .003 0 0 0 0a.525.525 0 01-.056.02c-.021.013-.04.024-.064.043l-.162.199-.305.547a2.267 2.267 0 01-.431.532 3.067 3.067 0 01-.28.215l-.102.068a1.3 1.3 0 01-.28 0 .35.35 0 01-.176-.106.387.387 0 01-.074-.118 1.688 1.688 0 01-.053-.5c0-.031.007-.075.01-.111a.507.507 0 01.023-.127l.04-.15c.013-.05.038-.115.056-.17.081-.235.168-.47.237-.698.035-.11.067-.22.091-.328.014-.054.028-.107.038-.161l.018-.096a2.72 2.72 0 00.036-.334v-.061a.305.305 0 00-.022-.138v-.01l.012-.011a.278.278 0 00.07-.077c.007-.014 0-.008.007-.015.007-.007 0 0 0 .014a.04.04 0 000 .018v-.017.009l.018.036c.005.01.01.018.017.026l.013.017a.587.587 0 00-.088.124c-.057.103-.111.21-.164.318-.199.455-.372.92-.518 1.395a11.89 11.89 0 01-.27.729l-.038.096a.964.964 0 01-.069.126.542.542 0 01-.14.139.418.418 0 01-.268.078.418.418 0 01-.261-.12.502.502 0 01-.112-.177.77.77 0 01-.036-.152.674.674 0 010-.072v-.063c0-.062 0-.124.01-.184 0-.03 0-.062.008-.09v-.051l.027-.162c.02-.107.04-.216.05-.322a.621.621 0 00-.025-.305.103.103 0 00-.126-.064.318.318 0 00-.118.113 1.15 1.15 0 00-.165.379l-.046.198-.023.085-.017.053-.036.106c-.05.14-.104.279-.16.418-.03.069-.06.14-.093.205a2.795 2.795 0 01-.054.11l-.032.056a1.31 1.31 0 01-.042.07c-.117.19-.3.33-.515.393a.509.509 0 01-.312-.008.757.757 0 01-.26-.179.833.833 0 01-.101-.114.14.14 0 01-.023-.055.14.14 0 01.014-.099.162.162 0 01.11-.078c.071-.007.142-.007.213 0a.298.298 0 00.177-.044.25.25 0 00.089-.162.158.158 0 000-.066c0-.01-.01-.01 0-.036l.022-.08c.035-.123.087-.28.14-.419l.07-.194.034-.097.066-.203c.086-.278.169-.576.269-.818.08-.202.187-.392.316-.566.092-.127.205-.238.334-.327a.698.698 0 01.83.039c.093.081.166.182.215.295.066.147.1.307.104.468a3.93 3.93 0 01-.06.75l-.077.43-.035.213c-.01.067-.02.158-.022.172 0 .063-.013.125-.015.184a.215.215 0 010 .037l-.05.012a1.189 1.189 0 00-.112.039.305.305 0 00-.13.095s0 .01 0 0a.342.342 0 00-.113-.129l-.064-.044-.038-.024-.02-.013.008-.01a.222.222 0 00.014-.031l.02-.05.041-.094.078-.197c.052-.13.1-.266.15-.401.098-.28.196-.558.309-.837.136-.353.297-.697.481-1.028a.895.895 0 01.306-.327.586.586 0 01.32-.08c.118.005.23.047.324.119.13.107.22.254.258.418.017.063.028.127.034.192v.178c0 .103-.01.204-.023.303 0 .05-.011.1-.02.148l-.014.078a1.76 1.76 0 01-.043.17c-.035.112-.077.22-.121.345a.261.261 0 00-.018.08.084.084 0 00.025.076c.01.01.022 0 .033 0a.278.278 0 00.087-.056c.066-.083.122-.174.167-.27a.715.715 0 01.103-.14.362.362 0 01.037-.029l.008-.007.03-.02.069-.04a.599.599 0 01.15-.071l.08-.028c.03-.01.067-.015.1-.022a.612.612 0 01.283.036.455.455 0 01.204.176l.032.063c.048.119.068.248.056.376a3.271 3.271 0 01-.084.524l-.026.118-.013.05-.025.103a1.525 1.525 0 00-.04.216.457.457 0 000 .116.098.098 0 00.07.082.125.125 0 00.118-.052c.03-.035.056-.072.083-.11a.697.697 0 01.122-.132l.015-.011h.007l.024-.013a1.15 1.15 0 01.113-.05c.042-.011.085-.02.128-.027a.676.676 0 01.467.131c.117.09.208.21.264.346a.926.926 0 01.07.406c-.007.124-.03.247-.07.365-.067.188-.149.37-.244.544a5.19 5.19 0 01-.303.498 4.162 4.162 0 01-.792.866c-.31.251-.665.44-1.046.558a2.855 2.855 0 01-.58.115 4.5 4.5 0 01-.58.035 4.948 4.948 0 01-1.748-.333 4.373 4.373 0 01-1.515-.966 3.602 3.602 0 01-.514-.626 14.675 14.675 0 01-.173-.31c-.052-.095-.076-.191-.106-.279a1.515 1.515 0 01-.097-.43.602.602 0 01.018-.293.568.568 0 01.1-.198.696.696 0 01.118-.14c.071-.047.15.02.225.169.04.074.064.171.12.279.055.107.086.238.161.37.377.816 1.135 1.437 2.014 1.766.44.166.907.255 1.378.265l.351-.01.333-.063a2.24 2.24 0 00.614-.206c.58-.294 1.054-.848 1.38-1.486.078-.14.14-.287.186-.44a.465.465 0 00.017-.14.165.165 0 00-.021-.065l-.012-.018.016-.02a.288.288 0 00.02-.037c.012-.021.009-.03.01-.015v-.024-.014.01a.955.955 0 00.035.097.007.007 0 00.01 0l-.088.105c-.07.08-.14.197-.205.279a1.164 1.164 0 01-.102.12l-.096.089c-.05.039-.105.073-.162.102l.009-.04z" fill="#000"></path><path d="M31.59 47.834c.369.17.82.28 1.154.044.199-.164.34-.388.4-.639.307-.996-.57-1.42-1.383-1.304-1.074.15-1.146 1.445-.17 1.9zM38.372 45.4a.628.628 0 00.107-.037c.506-.243.94-1.648.034-1.591-1.046.07-.847 1.796-.141 1.629zM51.225 44.373c.392.14.873.223 1.228.035a.95.95 0 00.427-.512c.328-.798-.606-1.138-1.474-1.045-1.142.12-1.224 1.158-.181 1.522zM59.703 46.657c.411.14.915.237 1.29.037.209-.122.368-.315.448-.544.344-.847-.638-1.207-1.548-1.115-1.198.134-1.286 1.235-.19 1.622z" fill="#ffe6e6"></path></svg>