<svg width="86" height="86" viewBox="0 0 96 96" fill="none" data-testid="home_loan_payout_svg"><path d="M95.33 43.766c.482.577.764 1.255.464 2.049-.598 1.592-2.173.543-3.037-.166-1.15-.947-18.775-14.752-26.559-20.592C62.726 22.45 52.414 14.399 50.52 13.26c-2.293-1.382-3.765-1.606-6.004-.025-7.082 5-13.746 10.672-20.533 16.1l-11.602 9.28-5.8 4.641c-1.128.9-3.327 3.397-4.855 3.468C.512 46.78-.159 45.26.38 44.283c.244-.442.639-.778 1.03-1.098 1.533-1.255 3.174-2.335 4.714-3.566l6.014-4.81 11.846-9.476c6.787-5.429 13.45-11.1 20.533-16.1 2.238-1.582 3.71-1.357 6.004.025 1.894 1.14 12.206 9.19 15.678 11.795 4.78 3.588 9.565 7.17 14.318 10.792 2.976 2.267 5.9 4.602 8.812 6.947 1.452 1.171 2.903 2.345 4.352 3.52.503.412 1.174.887 1.65 1.454z" fill="#ff3e3e"></path><path d="M20.06 28.87l-7.25 5.784-3.626 2.89L7.37 38.99c-.605.48-1.202.976-1.825 1.44-1.24.94-2.51 1.813-3.711 2.769-.297.227-.58.473-.848.735-.122.124-.23.261-.323.408-.041.07-.077.141-.11.215a.975.975 0 00-.035.113 1.452 1.452 0 00-.038.601c.024.163.07.321.14.471.132.293.372.523.67.644.279.117.612.073.943-.049a4.65 4.65 0 00.965-.52c.619-.441 1.206-.925 1.758-1.448l.85-.783c.14-.13.29-.262.443-.39.152-.128.305-.248.456-.37l1.812-1.446 10.566-8.449c3.108-2.479 6.22-4.947 9.304-7.453 3.083-2.506 6.174-5.007 9.32-7.442a219.482 219.482 0 014.77-3.585c.402-.293.806-.584 1.212-.872.405-.286.804-.583 1.242-.85.435-.276.907-.49 1.401-.636a3.784 3.784 0 011.556-.114c.51.078 1.007.23 1.474.45.459.212.903.453 1.332.72a27.341 27.341 0 011.238.851c.404.291.806.586 1.205.883a401.18 401.18 0 014.755 3.6c2.801 2.141 5.596 4.31 8.41 6.437 2.814 2.127 5.617 4.267 8.39 6.402 3.563 2.743 7.122 5.499 10.679 8.27 1.776 1.384 3.549 2.774 5.317 4.167l1.325 1.047.66.529c.222.178.43.354.653.512.22.159.453.299.697.418.227.116.475.185.73.202a.773.773 0 00.612-.256c.16-.196.272-.426.327-.672a1.595 1.595 0 000-.806 2.37 2.37 0 00-.221-.53c-.152-.265-.236-.38-.201-.381.035-.001.174.111.367.375.12.162.213.342.278.533.04.122.066.248.079.376.01.147.005.295-.017.44-.03.162-.077.32-.14.472-.069.175-.17.334-.3.47-.15.155-.345.26-.557.303-.221.04-.449.032-.667-.025a4.034 4.034 0 01-1.24-.596 8.105 8.105 0 01-.586-.43c-.19-.153-.392-.296-.593-.45a413.684 413.684 0 01-5.564-4.268 2620.057 2620.057 0 00-10.877-8.455l-5.456-4.204-2.739-2.091-2.748-2.085c-3.653-2.797-7.283-5.628-10.965-8.396-.921-.689-1.844-1.385-2.788-2.028a11.502 11.502 0 00-1.462-.836 4.889 4.889 0 00-1.557-.486 3.465 3.465 0 00-1.576.198 6.598 6.598 0 00-1.459.793l-1.4.998-1.394 1.018c-4.462 3.27-8.84 6.833-13.247 10.415a766.012 766.012 0 01-6.65 5.355l-6.656 5.32-7.3 5.828-.912.728-.455.364c-.14.119-.29.245-.432.375-.572.519-1.134 1.064-1.733 1.574-.3.256-.61.502-.934.733a5.53 5.53 0 01-1.053.602c-.195.084-.4.143-.61.176-.054.007-.108.01-.164.016-.056.006-.112 0-.168 0a1.676 1.676 0 01-.333-.05 1.643 1.643 0 01-.588-.32 1.827 1.827 0 01-.412-.508.947.947 0 01-.074-.14c-.02-.048-.044-.097-.062-.149a2.238 2.238 0 01-.087-.31 1.952 1.952 0 01-.023-.65 1.77 1.77 0 01.205-.625c.105-.183.23-.352.373-.507.272-.289.565-.558.876-.805.305-.246.614-.486.927-.721 1.255-.942 2.531-1.82 3.737-2.79l7.302-5.827c5.996-4.787 12-9.546 17.936-14.389a369.704 369.704 0 016.833-5.417c1.151-.89 2.313-1.767 3.486-2.63.587-.428 1.172-.86 1.764-1.282l.888-.633c.147-.106.304-.206.456-.31.153-.103.317-.19.477-.278l.249-.126.125-.062.13-.053.26-.106.267-.087A3.776 3.776 0 0147.423 8c.75.033 1.482.232 2.145.582.333.157.651.34.966.525.157.094.309.198.465.296.156.098.298.208.449.31.595.42 1.178.849 1.761 1.28 2.326 1.727 4.618 3.486 6.907 5.236l5.314 4.059 5.316 3.988 10.606 7.957a342.91 342.91 0 0110.612 8.445c.648.54 1.154.976 1.57 1.333.415.357.745.648 1.029.925.253.237.484.497.688.777.094.15.042.12-.149-.056a12.807 12.807 0 00-1.076-.863c-1.063-.793-2.687-2.083-4.773-3.747-3.096-2.466-6.238-4.954-9.483-7.39l-9.815-7.36-4.962-3.732-4.955-3.794a1523.659 1523.659 0 00-4.981-3.796 584.069 584.069 0 00-2.51-1.876c-.419-.31-.837-.615-1.268-.917-.212-.139-.425-.302-.637-.437l-.32-.205-.324-.194a9.422 9.422 0 00-1.009-.502c-.168-.077-.343-.13-.516-.191a4.61 4.61 0 00-.524-.124 3.215 3.215 0 00-1.053-.013 4.24 4.24 0 00-1.023.318c-.336.16-.659.347-.965.558a12.67 12.67 0 00-.471.329l-.475.339c-.635.447-1.255.912-1.889 1.37a254.728 254.728 0 00-7.399 5.707c-2.437 1.942-4.854 3.918-7.282 5.883-2.427 1.964-4.87 3.904-7.305 5.856l-.027-.005z" fill="#ff3e3e"></path><path d="M31.257 62.064c1.35-.894 5.733-5.578 7.35-5.615 1.618-.038 3.169-.62 4.675-1.21 3.346-1.314 7.102-3.248 7.784-6.782.383-1.984-.33-3.953-.848-5.933a18.93 18.93 0 01-.293-1.275c-.558-2.94-.124-8.382 2.712-10.234 2.231-1.453 6.554-.068 8.785.717 3.225 1.138 7.291 3.765 8.148 7.288.435 1.784.202 3.657.332 5.49.139 1.999.765 5.02 1.99 6.66 1.142 1.527 3.47 1.843 4.39 3.605.379.727.29 1.699-.28 2.283-.308.314-.72.5-1.115.678-3.203 1.418-5.089 2.072-6.065 5.558-.807 2.885-.913 6.248 2.304 7.792 1.135.545 2.442.682 3.542 1.294 1.1.612 1.952 2.029 1.326 3.118-.73 1.255-2.913 1.244-3.329 2.637-.383 1.283 1.14 2.3 2.445 2.603 1.305.304 2.903.575 3.383 1.826.364.95-.177 2.055-1 2.65-.823.593-1.862.791-2.867.942-5.239.749-10.764.478-16.036.569-9.203.156-18.407.23-27.61.279-6.767.037 5.525.418-1.242.25-5.213-.139-15.299.925-17.795-4.713a7.925 7.925 0 01-.034-6.25c2.276-5.298 8.68-3.165 13.277-4.579" fill="#CCC"></path><path d="M48.838 84.513c.227.303.656.347 1.033.363 2.478.103 4.934.156 7.337-.469a23.78 23.78 0 006.403-2.669c8.533-5.197 2.734-18.397-1.348-24.497-1.081-1.614-2.51-3.093-4.053-4.356-2.17-1.785-5.548-3.386-8.383-3.61-3.033-.24-6.05.875-8.785 2.06-3.245 1.409-6.012 3.765-8.275 6.487" fill="#fff"></path><path d="M59.453 53.347a22 22 0 012.091 2.193c.321.39.628.794.915 1.214.287.42.558.837.814 1.266a41.33 41.33 0 012.74 5.323 32.641 32.641 0 011.483 4.115c.353 1.243.605 2.512.751 3.796.07.644.106 1.292.106 1.94 0 .325-.022.65-.033.977-.036.325-.06.65-.11.976a10.211 10.211 0 01-1.279 3.694 8.924 8.924 0 01-2.71 2.814c-.476.322-.969.617-1.477.884-.504.27-1.016.522-1.534.754a25.686 25.686 0 01-3.198 1.181c-.7.214-1.411.385-2.132.512-.722.119-1.45.196-2.18.231-.729.04-1.457.04-2.18.019a34.686 34.686 0 01-1.084-.045l-.54-.032a3.188 3.188 0 01-.582-.075.959.959 0 01-.523-.299c-.085-.108-.085-.178-.053-.192.032-.014.107.014.216.046.14.039.286.055.432.047.181 0 .39-.039.658-.072.27-.034.558-.062.887-.087.65-.05 1.405-.08 2.217-.103.719-.02 1.435-.075 2.148-.166a15.56 15.56 0 002.092-.418 24.895 24.895 0 004.043-1.481 22.23 22.23 0 001.908-1.01l.44-.288c.15-.093.294-.193.431-.302a8.496 8.496 0 002.112-2.311l.258-.46c.045-.075.084-.155.118-.236l.109-.242c.144-.323.27-.654.38-.991.246-.83.396-1.685.445-2.55l.027-.657c.01-.22-.01-.442-.014-.663-.004-.22-.026-.443-.039-.665l-.025-.332c-.01-.111-.027-.221-.04-.332a20.883 20.883 0 00-.482-2.64 28.413 28.413 0 00-.761-2.583 33.235 33.235 0 00-1.074-2.757 42.266 42.266 0 00-1.283-2.672 39.802 39.802 0 00-1.476-2.571c-.265-.418-.529-.837-.816-1.227-.287-.39-.593-.781-.912-1.153a22.445 22.445 0 00-2.59-2.544c-.465-.387-.951-.748-1.457-1.08a18.284 18.284 0 00-4.091-1.99 12.242 12.242 0 00-2.665-.593 11.18 11.18 0 00-2.72.085c-.901.137-1.79.348-2.655.632a26.32 26.32 0 00-1.993.73c-.654.267-1.305.547-1.93.85a19.72 19.72 0 00-1.82 1.022c-.587.375-1.153.782-1.702 1.212-.487.376-.934.78-1.395 1.193-.846.778-1.373 1.325-1.76 1.693a4.104 4.104 0 01-.872.688 2.31 2.31 0 01-.317.163c-.132.036-.068-.14.166-.508.37-.541.785-1.05 1.241-1.523 1.753-1.865 3.87-3.541 6.327-4.695.31-.146.612-.279.919-.41.306-.13.614-.26.927-.386.623-.25 1.255-.487 1.907-.697a16.191 16.191 0 014.044-.808c.52-.03 1.042-.026 1.562.013.52.046 1.036.126 1.545.24a15.99 15.99 0 012.928.976c.94.41 1.846.897 2.707 1.454.433.279.852.58 1.255.9.407.32.785.651 1.163.993l-.008.02z" fill="#000"></path><path d="M51.653 75.564a8.519 8.519 0 01-1.84 3.023c-3.831 4.165-9.26 4.74-14.642 4.564-4.987-.166-10.31-1.364-13.508-5.528a5.894 5.894 0 01-.94-1.626c-.66-1.9.297-4.043 1.735-5.446 1.437-1.403 3.292-2.286 4.999-3.347 2.114-1.32 2.687-3.518 2.437-5.914a8.543 8.543 0 00-1.567-4.005c-.611-.866-1.395-1.726-1.421-2.789a.71.71 0 01.14-.509.697.697 0 01.549-.171c.697.02 1.337.399 2 .634a2.77 2.77 0 001.067.173c.343-.004.67-.14.916-.378.29-.294.383-.688.384-1.107a5.924 5.924 0 00-.128-1.078c-.14-.75-.168-1.683.468-2.105.402-.268.956-.215 1.371.028.416.242.715.645.951 1.065.102.18.195.367.291.55.145.293.329.565.547.808.368.388.965.625 1.443.386.456-.227.628-.773.889-1.21.02-.03.037-.063.058-.092a2.776 2.776 0 012.106-1.231c.193-.024.39.008.565.093.461.264.389.936.29 1.459a11.062 11.062 0 00-.187 2.012c-.019.252.025.504.128.735.025.05.056.096.092.14.307.37.912.434 1.375.252l.096-.04c.38-.167.646-.513.9-.825a2.348 2.348 0 011.029-.754c.26-.122.557-.137.828-.042.588.255.418 1.255.339 1.747-.156.947-.664 1.915-.333 2.817a1.658 1.658 0 001.394 1.057c.428.032.876-.106 1.282.036a1 1 0 01.654.9c.048 2.024-4.136 2.378-3.62 5.001.292 1.48 1.97 2.17 3.193 2.708 1.647.724 2.867 1.775 3.547 3.486a6.45 6.45 0 01.123 4.523z" fill="#ff3e3e"></path><path d="M33.962 50.87a1.913 1.913 0 00-.418-.418 1.082 1.082 0 00-.473-.203.653.653 0 00-.746.347 1.394 1.394 0 00-.124.533c-.01.214 0 .43.032.642.03.212.085.468.118.725.041.27.055.545.04.818a2.074 2.074 0 01-.243.89 1.558 1.558 0 01-.724.67c-.282.127-.59.19-.9.183a3.181 3.181 0 01-.837-.126 6.386 6.386 0 01-.735-.279c-.228-.096-.445-.19-.656-.265a2.655 2.655 0 00-.612-.149c-.047 0-.103-.008-.14-.008a.85.85 0 00-.112 0 .214.214 0 00-.04.01h-.017a.123.123 0 00-.028.018.101.101 0 00-.021.037.48.48 0 00-.015.12c0 .124.01.248.033.37a2.8 2.8 0 00.279.754c.266.5.652.976 1.018 1.498l-.02-.027c.021.027.04.056.059.084l-.02-.03a9.319 9.319 0 011.417 3.088 7.892 7.892 0 01.208 1.328l.018.221.008.222a8.205 8.205 0 01-.115 1.788 6.012 6.012 0 01-.585 1.723 5.24 5.24 0 01-1.128 1.445c-.4.344-.833.647-1.294.905-.435.258-.873.507-1.306.758a20.219 20.219 0 00-2.476 1.618c-.379.298-.732.627-1.057.984-.32.356-.6.746-.836 1.162-.469.826-.749 1.768-.68 2.691.007.115.021.23.043.343.017.114.042.226.075.336.058.224.14.442.244.649.217.429.48.832.786 1.203l.468.565c.163.184.34.353.508.53.17.176.35.342.539.498l.279.24c.09.084.195.15.291.225.198.14.388.3.594.434l.62.396a16.291 16.291 0 004.098 1.675c.854.224 1.72.396 2.595.514.435.07.877.105 1.316.155.44.05.883.074 1.325.088 1.762.094 3.53.06 5.287-.105a20.482 20.482 0 003.305-.606c.268-.081.54-.15.803-.242l.787-.278.767-.334c.254-.114.495-.252.743-.377a13.18 13.18 0 002.688-1.953 9.412 9.412 0 002.024-2.598c.307-.609.43-.884.499-.836.07.047.056.403-.127.993a7.058 7.058 0 01-1.224 2.243c-.166.21-.356.41-.548.626-.098.105-.191.22-.3.321l-.335.308-.347.315c-.12.104-.252.197-.38.296l-.398.296c-.066.05-.136.097-.208.14l-.216.138a14.364 14.364 0 01-3.264 1.512 19.717 19.717 0 01-3.486.749 30.333 30.333 0 01-3.534.223c-1.176 0-2.345-.03-3.525-.126-2.347-.196-4.712-.644-6.922-1.586a14.038 14.038 0 01-3.104-1.823l-.181-.14c-.059-.045-.115-.097-.172-.147l-.329-.294c-.227-.2-.443-.411-.647-.633-.105-.11-.213-.215-.312-.33l-.288-.35-.285-.351a7.05 7.05 0 01-.27-.367 6.373 6.373 0 01-.557-.965 3.964 3.964 0 01-.207-.536l-.078-.28c-.024-.094-.038-.19-.056-.278l-.025-.14-.012-.14c0-.095-.02-.192-.023-.288a5.507 5.507 0 01.099-1.142c.048-.184.084-.372.14-.55a6.833 6.833 0 011.033-1.996c.226-.3.472-.585.738-.85.265-.262.544-.509.836-.74 1.158-.924 2.45-1.612 3.675-2.341.305-.183.618-.37.887-.558.14-.095.265-.208.396-.31l.181-.175c.063-.055.12-.115.174-.179l.166-.188c.055-.064.1-.14.15-.2.102-.133.195-.273.28-.418a4.95 4.95 0 00.404-.917c.367-1.116.37-2.37.18-3.54a8.462 8.462 0 00-1.404-3.294l.132-.109a.1.1 0 00-.035.022l-.097.085-.017-.023c-.346-.497-.75-.985-1.065-1.57-.164-.3-.284-.621-.356-.954a2.875 2.875 0 01-.047-.533c.001-.105.017-.209.046-.31a.827.827 0 01.18-.322.79.79 0 01.317-.203c.105-.037.214-.057.324-.062.093-.004.186-.001.279.007.09.01.178.023.266.04.332.072.655.178.965.316.297.125.585.255.86.342.27.086.553.124.836.11.253-.004.496-.1.683-.27.18-.181.288-.421.307-.676a3.346 3.346 0 00-.038-.875c-.022-.154-.051-.3-.08-.465a4.977 4.977 0 01-.06-.502 3.018 3.018 0 01.037-.796c.049-.289.173-.56.361-.784a1.347 1.347 0 01.784-.428c.288-.046.582-.016.855.087.546.205.92.636 1.193 1.065.14.22.243.437.36.653.105.208.22.41.347.606.062.091.129.178.201.26.07.075.146.144.229.205.16.117.347.194.544.223.178.026.36-.02.504-.127a1.46 1.46 0 00.377-.483c.114-.202.21-.418.364-.657a3.03 3.03 0 011.91-1.29c.2-.04.404-.058.608-.052.116.004.23.025.34.062a.9.9 0 01.318.201c.166.173.27.396.292.635.023.203.02.408-.008.61-.024.196-.065.381-.093.558-.027.177-.055.354-.076.533a10.94 10.94 0 00-.073 1.075c-.01.367 0 .697.18.884.18.187.506.279.812.24.076-.01.152-.026.226-.05.033-.013.07-.025.111-.043.042-.019.071-.032.106-.05.14-.079.267-.178.377-.295a5.59 5.59 0 00.345-.401c.125-.157.265-.3.419-.427a2.822 2.822 0 01.788-.438c.099-.037.2-.065.305-.084.227-.043.462-.014.672.083a.945.945 0 01.229.164l.06.073c.07.093.125.198.16.31.058.199.083.407.076.614a4.306 4.306 0 01-.052.576c-.014.094-.028.183-.045.279a5.158 5.158 0 01-.057.279c-.043.184-.092.364-.14.54A6.547 6.547 0 0045.218 57c-.017.165-.015.331.007.495.022.157.07.31.139.452.147.283.384.51.673.646.142.066.295.108.45.124.17.01.34.006.51-.013.317-.047.641-.014.942.096a1.24 1.24 0 01.717 1.011 2.12 2.12 0 010 .25c-.01.081-.023.162-.04.243a2.058 2.058 0 01-.078.231c-.127.287-.311.545-.54.759-.434.418-.919.716-1.372 1.036-.453.319-.894.641-1.205 1.043a1.803 1.803 0 00-.328.648c-.059.236-.066.481-.022.72.09.492.347.939.728 1.264a5.58 5.58 0 001.336.851c.488.24 1.007.432 1.534.697a6.644 6.644 0 012.386 1.923c.477.65.829 1.385 1.036 2.164.148.537.22 1.092.214 1.649-.003.362-.05.723-.139 1.075a3.106 3.106 0 01-.254.68l-.14.264a1.43 1.43 0 01-.139.202c-.062.073-.087.033-.082-.102.006-.135.046-.365.085-.687.051-.406.07-.815.057-1.223a6.365 6.365 0 00-.074-.79 6.104 6.104 0 00-.198-.88 5.785 5.785 0 00-1.394-2.43 6.121 6.121 0 00-1.116-.881 8.233 8.233 0 00-.635-.35 16.394 16.394 0 00-.677-.305 12.529 12.529 0 01-1.436-.698 4.424 4.424 0 01-1.31-1.106 2.929 2.929 0 01-.433-.818 2.81 2.81 0 01-.14-.93 2.32 2.32 0 01.235-.94c.138-.278.32-.533.537-.754a8.146 8.146 0 011.303-1.035c.416-.261.806-.56 1.166-.894.141-.137.254-.3.332-.481.015-.04.025-.08.04-.121.013-.04.014-.081.017-.123.003-.042 0-.092 0-.12a.489.489 0 00-.448-.449 1.778 1.778 0 00-.302 0c-.299.035-.6.035-.9 0a2.164 2.164 0 01-1.592-1.2 2.357 2.357 0 01-.21-.985c.003-.303.041-.605.115-.9.063-.278.14-.536.204-.785.033-.124.063-.244.088-.362.015-.06.023-.116.035-.174l.03-.187c.04-.226.057-.455.052-.684a.73.73 0 00-.074-.318c-.017-.022-.02-.029-.033-.033-.015-.004 0 0-.01-.008l-.023-.007a.198.198 0 00-.054-.012.727.727 0 00-.333.058c-.15.057-.292.13-.427.216a1.831 1.831 0 00-.343.304c-.028.03-.053.061-.08.095l-.094.115c-.064.078-.14.16-.208.244-.16.185-.346.346-.55.479a2.12 2.12 0 01-.734.28 1.915 1.915 0 01-.8-.033 1.482 1.482 0 01-.751-.458 1.46 1.46 0 01-.333-.816 3.171 3.171 0 01-.017-.351v-.31a11.425 11.425 0 01.195-1.842c.034-.167.056-.337.064-.507a.827.827 0 00-.047-.352.14.14 0 00-.112-.092 1.153 1.153 0 00-.397 0c-.16.022-.316.062-.467.119a2.294 2.294 0 00-1.12.905c-.037.056-.08.14-.124.216l-.14.262a2.96 2.96 0 01-.389.591 1.483 1.483 0 01-.73.463 1.58 1.58 0 01-.848-.023 2.09 2.09 0 01-.683-.361 2.227 2.227 0 01-.28-.261 3.051 3.051 0 01-.217-.28 5.661 5.661 0 01-.336-.557l-.279-.516a3.598 3.598 0 00-.279-.446l.034-.008z" fill="#ff3e3e"></path><path d="M39.37 65.595c-.443 0-.883.015-1.325 0-.22 0-.441-.007-.661-.017l-.66-.036c-.32-.013-.643-.023-.962-.053a29.692 29.692 0 01-3.347-.53l-1.471-.296c-.312-.07-.626-.13-.938-.203a6.588 6.588 0 01-.911-.306c-.365-.156.33-.697 1.012-.511 1.229.32 2.464.602 3.724.877.188.039.379.08.573.104.193.024.39.048.587.069.392.047.789.058 1.18.094.217.021.433.03.65.04l.649.034.65.013c.217 0 .435.01.651 0l.802-.014.8-.047c.203-.01.405-.03.607-.05l.605-.058c.402-.049.803-.109 1.2-.175.306-.062.607-.14.907-.208.3-.069.591-.173.888-.255.131-.037.257-.081.388-.122.487-.14.655-.14.814.028.039.034.075.072.108.112.089.14-.078.31-.435.45-1.1.418-2.247.703-3.415.848-.22.036-.441.06-.663.084l-.666.068-.668.043c-.223.014-.445.03-.668.035l-.006-.018z" fill="#000"></path><path d="M26.03 65.619l1.941-1.255.214-.14.047-.026.106-.06.03-.017.015-.008h.008-.007a.764.764 0 00-.166-.06l-.049-.011-.127-.019c-.139-.016-.267-.03-.402-.043l-.83-.07a22.63 22.63 0 01-.748-.087 7.283 7.283 0 01-.765-.14 3.53 3.53 0 01-.767-.279 2.01 2.01 0 01-.678-.558c-.046-.06-.084-.13-.124-.193a1.26 1.26 0 01-.098-.228 1.395 1.395 0 01-.06-.47c.019-.297.112-.585.271-.836a1.888 1.888 0 01.257-.338c.05-.053.099-.107.15-.159l.18-.14a1.72 1.72 0 01.827-.278c.48-.007.955.088 1.394.279a8.5 8.5 0 011.208.606 7.844 7.844 0 012.521 2.299c.198.295.013.368-.312.253a3.727 3.727 0 01-1.232-.816 8.333 8.333 0 00-1.255-.994 7.496 7.496 0 00-1.407-.733c-.47-.17-.955-.239-1.277-.06l-.032.014-.03.02-.056.042a.458.458 0 00-.112.098 1.282 1.282 0 00-.212.26c-.118.169-.183.37-.185.575a.6.6 0 00.049.232c.01.022.03.053.046.08.068.109.158.204.263.278.252.173.537.294.837.353.33.073.664.123 1.001.15.343.035.697.06 1.046.093.194.018.39.039.588.067l.148.022c.077.011.158.024.233.039l.23.046.22.056c.28.08.534.173.797.267l.2.074.05.02c.008 0 .021 0 .023.01l-.021.015-.08.063-.326.247c-.195.16-.482.336-.736.503l-.581.38-.977.627-.596.387c-.19.114-.368.248-.529.4a2.77 2.77 0 00-.715 1.074 1.72 1.72 0 00-.1.46.96.96 0 00.066.424c.125.282.348.51.626.64a1.63 1.63 0 001.796-.161c.201-.152.374-.338.51-.55.138-.222.257-.455.356-.697l.33-.75c.108-.248.211-.498.312-.75.088-.222.164-.442.252-.667.317-.837.445-1.085.697-1.203.054-.031.111-.058.17-.078.172-.034.18.36-.014 1.004-.143.476-.31.952-.499 1.428-.185.475-.407.948-.612 1.407-.114.258-.25.507-.406.743a2.898 2.898 0 01-.633.673 2.62 2.62 0 01-.848.438 2.168 2.168 0 01-.745.088 2.39 2.39 0 01-1.546-.653 1.857 1.857 0 01-.44-.658c-.1-.254-.135-.529-.103-.8.059-.463.225-.905.486-1.291.245-.38.56-.708.928-.968l.01.01zM39.32 76.266c0 .976-.461 1.64-1.256 1.884 0 .105.011.218.011.322 0 .263-.054.525-.054.678 0 .12-.011.337-.656.337-.278 0-.546 0-.546-.24 0-.13.077-.436.077-.731v-.299a1.746 1.746 0 01-1.169-.739c-.197-.294-.305-.938-.305-1.3 0-.108.065-.217.403-.217.278 0 .557.011.623.14.066.128.174.578.218.687.076.185.36.339.59.339.557 0 .862-.22.862-.837 0-.897-.96-1.202-1.681-2.043-.437-.513-.776-1.584-.776-2.326a1.756 1.756 0 011.262-1.65c-.022-.327-.06-.59-.06-1.043 0-.139.611-.252.808-.252.382 0 .393.216.393.336 0 .38.043.618.068.934.51.11.87.373 1.035.846.064.242.1.49.109.741 0 .154-.667.28-.852.28-.186 0-.328-.012-.328-.175 0-.163-.043-.612-.468-.612-.35 0-.766.153-.766.6 0 .42.23 1.224.536 1.584.72.852 1.922 1.234 1.922 2.763v-.007z" fill="#000"></path><path d="M37.857 51.49c-.12.67-.263 1.336-.394 1.995-.116.585-.601 2.884-.704 3.46-.108-.21-.21-.418-.31-.637-.358-.781-.664-1.584-.976-2.388-.248-.633-.686-1.58-.548-2.323.145.293.328.566.547.81.368.387.965.624 1.443.385.456-.227.627-.774.888-1.21a.707.707 0 01.054-.092zM42.328 54.908a62.57 62.57 0 00-2.121 2.969c.06-.514.349-1.894.65-3.181.306.37.912.435 1.375.252l.096-.04zM46.641 58.916c-.125-.02-.54.323-.668.407-.31.203-.608.43-.911.643-.498.348-.996.708-1.525 1.01.321-.184.647-.815.88-1.102.374-.458.738-.924 1.1-1.395.083.234.371.31.617.349l.507.088zM33.369 59.848c-.59-1.018-1.987-4.009-2.701-5.225.342-.004.67-.14.916-.377.289-.295.382-.69.383-1.108.526 2.626 1.402 5.817 1.402 6.71z" fill="#cf2929"></path><path d="M51.411 79.751c.11-.084.213-.178.32-.268.108-.089.217-.178.316-.279.202-.193.418-.38.601-.588.14-.15.268-.308.399-.466.488-.535.928-1.114 1.312-1.729.168-.275.316-.562.442-.859.075-.19.14-.386.22-.576.068-.194.155-.38.26-.558.068-.11.244-.033.379.14a.697.697 0 01.14.664 8.289 8.289 0 01-1.34 2.29 6.823 6.823 0 00-.125.158l-.125.158a10.75 10.75 0 00-.244.325c-.162.219-.334.432-.506.64-.397.445-.822.864-1.272 1.255l-.207.18-.216.162c-.14.111-.279.23-.43.337-.224.16-.441.33-.675.477l-.343.228-.35.22a8.84 8.84 0 00-.263.176l-.265.173c-.175.116-.348.239-.535.34-.08.048-.156.1-.24.14l-.107.053a.771.771 0 01-.155.055.434.434 0 01-.322-.058.344.344 0 01-.156-.224v-.066a.172.172 0 01.057-.13.094.094 0 01.14.033.2.2 0 01.022.05l.01.026.006.011v-.01a.14.14 0 00-.018-.031c-.007-.01-.007-.016-.017-.024-.01-.008-.02 0 0-.013.052-.007.151-.147.164-.188.012-.04 0-.012 0 .014a.297.297 0 000 .116v.024l-.088-.198.028-.021.057-.04.113-.078c.076-.051.153-.1.231-.149.158-.093.308-.203.466-.298l.238-.147.235-.153c.157-.102.318-.198.47-.308l.347-.236.339-.248c.231-.162.443-.344.662-.52l.025.018zM67.378 37.608c.079.36.136.726.17 1.093.14 1.527 0 3.227.962 4.422.717.891 1.879 1.255 2.943 1.683 1.868.742 3.69 1.835 4.759 3.54 1.068 1.703 1.182 4.117-.152 5.62-.79.89-1.94 1.346-2.968 1.943-1.027.597-2.035 1.492-2.146 2.674-.14 1.481 1.134 2.65 2.014 3.849 1.664 2.266 2.065 5.445.865 7.989-1.764 3.737-7.324 5.519-11.035 3.956-1.727-.727-3.383-1.69-4.677-3.046-2.91-3.048-3.589-7.7-2.81-11.84.288-1.534.752-3.029.897-4.578.155-1.658-.362-2.789-1.617-3.888-2.145-1.885-4.697-3.346-6.482-5.577-2.42-3.025-3.087-7.43-1.442-10.938 1.137-2.424 3.383-4.288 5.945-5.037 6.018-1.758 13.43 1.923 14.774 8.135z" fill="#000"></path><path d="M56.583 53.327c.092.44.124.89.094 1.338-.008.109-.015.219-.025.326l-.036.316c-.026.209-.057.418-.093.624-.14.827-.34 1.628-.522 2.418-.092.395-.181.788-.256 1.18-.076.392-.14.784-.184 1.18-.045.396-.077.79-.108 1.186-.03.396-.03.795-.013 1.192.012.796.093 1.59.24 2.371.14.778.355 1.54.642 2.277.284.735.647 1.436 1.083 2.092.108.164.232.316.347.475.06.078.113.16.178.233l.194.222c.253.3.526.581.818.844a12.762 12.762 0 002.88 1.913c.259.14.525.252.79.372.26.118.525.223.795.314.536.17 1.09.281 1.651.329a9.265 9.265 0 003-.241 9.647 9.647 0 002.788-1.16 7.4 7.4 0 002.187-2.028 4.77 4.77 0 00.203-.312c.067-.105.128-.213.183-.324.06-.108.114-.22.162-.335.049-.115.102-.228.146-.345.175-.47.303-.956.381-1.45a7.864 7.864 0 00-1.395-5.735c-.3-.418-.638-.811-.962-1.238a6.38 6.38 0 01-.853-1.403 3.281 3.281 0 01-.222-.836l-.015-.22c-.007-.072 0-.146 0-.218.001-.073.007-.146.018-.219.013-.073.018-.146.038-.218.135-.56.42-1.073.825-1.483.168-.18.349-.347.543-.498.189-.151.387-.291.592-.418.41-.26.829-.472 1.238-.69.406-.209.799-.442 1.176-.698a3.722 3.722 0 001.673-3.362 5.146 5.146 0 00-.727-2.51 6.308 6.308 0 00-1.069-1.323 8.566 8.566 0 00-1.36-1.054 12.328 12.328 0 00-1.535-.819c-.528-.244-1.077-.436-1.64-.664a6.39 6.39 0 01-1.638-.896 3.295 3.295 0 01-.664-.714 3.766 3.766 0 01-.436-.865 6.916 6.916 0 01-.322-1.828c-.04-.602-.046-1.194-.094-1.77-.068-.715-.103-1.029-.02-1.026.082.003.255.335.418.957.08.31.15.69.216 1.122.066.433.13.915.241 1.413.053.254.126.503.216.746.088.246.207.48.355.697.331.462.776.831 1.292 1.071.53.255 1.074.482 1.627.682.583.233 1.151.502 1.702.803.56.303 1.092.654 1.59 1.052.507.402.963.865 1.356 1.379.407.522.724 1.107.94 1.733.214.629.325 1.288.326 1.952a5.066 5.066 0 01-.41 1.972c-.072.155-.149.308-.235.456-.09.145-.188.285-.295.418-.206.27-.446.514-.712.725-1.043.837-2.241 1.234-3.14 1.893a3.72 3.72 0 00-1.1 1.165 2.03 2.03 0 00-.236.698c-.03.247-.016.497.04.74.121.497.418.976.757 1.454.34.479.744.938 1.116 1.455a8.626 8.626 0 011.452 3.524 8.217 8.217 0 01-.503 4.544c-.15.363-.332.711-.546 1.04a8.012 8.012 0 01-.718.93 8.66 8.66 0 01-1.802 1.484 10.413 10.413 0 01-4.374 1.495c-.193.025-.388.032-.582.047-.194.016-.389.016-.584.009a9.08 9.08 0 01-1.166-.09 7.898 7.898 0 01-1.146-.256 8.905 8.905 0 01-1.086-.418c-1.524-.675-2.991-1.564-4.196-2.767a10.713 10.713 0 01-1.56-2.002 12.409 12.409 0 01-1.06-2.297 14.966 14.966 0 01-.573-2.449 16.58 16.58 0 01-.16-2.51c.012-.836.083-1.67.214-2.496.124-.828.325-1.634.509-2.433.229-.976.448-1.963.513-2.938.014-.24.009-.48-.014-.718a3.524 3.524 0 00-.132-.697 3.626 3.626 0 00-.66-1.244 7.122 7.122 0 00-1.041-1.028c-.383-.325-.773-.64-1.172-.947-.793-.619-1.61-1.219-2.403-1.861-1.193-.97-2.353-2.047-3.207-3.375-.102-.167-.217-.326-.308-.5l-.279-.517c-.166-.355-.337-.706-.468-1.078a10.837 10.837 0 01-.596-2.256 11.012 11.012 0 01-.115-2.337c.048-.78.18-1.553.394-2.305l.186-.557c.06-.186.146-.362.218-.543.04-.09.076-.181.116-.27l.133-.261c.083-.177.187-.343.279-.513a9.36 9.36 0 011.439-1.838 10.063 10.063 0 012.942-2.058 9.336 9.336 0 011.694-.597 11.136 11.136 0 011.764-.306 12.981 12.981 0 016.938 1.336 12.437 12.437 0 012.625 1.736c.633.545 1.2 1.162 1.69 1.838.332.463.62.956.86 1.471.374.728.546 1.542.497 2.358-.015.098-.058.077-.124-.047a2.72 2.72 0 01-.117-.265c-.04-.114-.1-.25-.165-.407a11.78 11.78 0 00-1.508-2.703c-2.457-3.207-6.791-5.03-10.941-4.548-.518.061-1.031.162-1.534.3-.501.135-.99.314-1.459.535a9.77 9.77 0 00-1.35.777c-.428.297-.831.63-1.204.995a8.764 8.764 0 00-1.813 2.526 9.28 9.28 0 00-.807 3.017c-.073.78-.059 1.565.043 2.341.111.778.305 1.541.578 2.278.27.737.627 1.44 1.064 2.091l.079.124.086.119.176.236c.058.078.114.159.175.235l.19.226c.252.303.529.59.81.872 1.14 1.115 2.47 2.069 3.782 3.084.328.254.657.51.976.778.162.14.322.27.481.407.16.138.325.28.48.44.324.315.608.668.846 1.052.241.399.415.834.515 1.289l-.011.013z" fill="#000"></path><path d="M53.747 52.034c.163-.46.395-.894.687-1.286 1.22-1.58 3.234-1.623 4.638-2.885.35.474.81.908 1.385 1.042s1.266-.122 1.47-.675c.252-.686-.306-1.386-.837-1.888-.146-.14-.303-.294-.315-.494a.811.811 0 01.153-.436c.412-.697.734-1.15.745-1.965.033-2.411-1.197-4.75-3.032-6.314-1.835-1.565-4.222-2.396-6.623-2.61-7.518-.669-7.732 7.496-5.844 13.067.753 2.22 1.952 4.371 1.942 6.717 0 .988-.2 2.091.419 2.87.779.976 2.185.71 2.986-.017.977-.88 1.38-1.867 1.684-3.13.141-.676.324-1.343.546-1.996" fill="#fff"></path><path d="M44.759 40.693a10.52 10.52 0 01.546-2.608c.155-.426.35-.837.582-1.227.117-.197.244-.387.382-.57.066-.094.146-.177.22-.266.073-.09.15-.175.233-.256l.248-.24c.084-.08.18-.147.27-.22.18-.144.37-.275.57-.393.096-.064.203-.107.305-.162.101-.055.205-.105.311-.149.211-.09.427-.166.647-.229a7.697 7.697 0 012.665-.253c1.28.076 2.54.336 3.745.772 1.065.389 2.065.938 2.964 1.629a9.47 9.47 0 012.263 2.518 8.48 8.48 0 011.168 3.177c.043.281.068.565.077.85v.43a3.11 3.11 0 01-.049.45 3.03 3.03 0 01-.302.847c-.14.258-.28.49-.419.722-.04.062-.076.126-.108.192a.265.265 0 00-.028.122.214.214 0 00.02.076.338.338 0 00.046.077c.064.076.133.147.207.213.17.163.327.338.471.525.154.196.277.414.367.647.097.256.118.535.063.803a1.316 1.316 0 01-.163.389c-.078.116-.172.22-.28.308-.21.164-.46.273-.723.318-.13.02-.26.028-.392.022a1.863 1.863 0 01-.387-.07 2.267 2.267 0 01-.67-.335 3.278 3.278 0 01-.411-.359l-.055-.057-.037-.042-.069-.084c-.046.031-.09.077-.139.112l-.133.096c-.057.042-.117.081-.177.117-.12.076-.24.151-.362.215-.123.064-.246.131-.37.193-.496.244-.997.442-1.465.669-.464.208-.897.48-1.286.807a4.247 4.247 0 00-.506.543c-.151.2-.285.413-.4.637-.166.326-.265.464-.334.428-.068-.036-.094-.245-.036-.588a3.04 3.04 0 01.598-1.324c.1-.127.207-.249.322-.362.062-.057.123-.119.189-.176l.205-.163a5.24 5.24 0 01.94-.558c.499-.238.99-.43 1.441-.651l.17-.082.162-.088c.112-.056.212-.12.316-.183.051-.03.101-.062.149-.098l.072-.051.066-.045a.944.944 0 00.08-.062l.62-.512c.163.21.325.442.496.641.05.064.106.124.165.18.037.04.078.075.118.112.15.133.322.238.51.31.043.015.087.029.132.04a.984.984 0 00.377.003.749.749 0 00.41-.211.456.456 0 00.1-.162.534.534 0 00.029-.2 1.102 1.102 0 00-.184-.503 3.14 3.14 0 00-.428-.53c-.04-.045-.084-.086-.13-.13a3.012 3.012 0 01-.166-.173 1.172 1.172 0 01-.184-.27.942.942 0 01-.099-.364.956.956 0 01.046-.337c.028-.09.066-.175.113-.255.038-.067.07-.119.1-.169l.094-.153c.125-.203.242-.395.336-.582.186-.364.269-.773.24-1.18a7.291 7.291 0 00-.532-2.642 8.22 8.22 0 00-1.096-1.91 8.748 8.748 0 00-1.593-1.576 10.13 10.13 0 00-1.953-1.156 10.844 10.844 0 00-1.058-.418 10.864 10.864 0 00-1.095-.318c-.405-.1-.816-.18-1.23-.239-.206-.033-.418-.054-.623-.078-.205-.024-.418-.026-.62-.04-.203-.014-.412 0-.618 0a2.81 2.81 0 00-.307.02l-.307.029c-.202.025-.4.07-.602.103l-.292.082a2.055 2.055 0 00-.29.09 4.56 4.56 0 00-1.974 1.34 5.36 5.36 0 00-.685 1.005c-.086.185-.187.365-.258.557l-.114.288-.096.295a8.88 8.88 0 00-.332 1.498 11.646 11.646 0 00-.116 1.545 16.67 16.67 0 00.26 3.101c.137.779.324 1.547.557 2.302.23.756.517 1.495.81 2.24.293.744.586 1.493.822 2.267.12.388.218.783.294 1.181.043.2.067.402.097.604.013.1.02.204.03.304.01.1.02.204.02.307.031.64-.045 1.255 0 1.835.014.28.072.555.172.816.102.242.264.454.47.616.403.324.976.354 1.487.187a2.31 2.31 0 00.71-.377c.054-.041.103-.085.154-.13l.154-.15.147-.156.14-.163a4.76 4.76 0 00.739-1.298c.145-.38.266-.767.364-1.16.086-.334.162-.608.236-.837.085-.32.238-.617.449-.872.065-.083.139-.158.22-.226.106-.061.111.106.058.46-.053.355-.14.905-.291 1.633a7.968 7.968 0 01-.513 1.646 5.188 5.188 0 01-1.013 1.485l-.16.159c-.051.053-.121.107-.183.16a2.984 2.984 0 01-1.336.622c-.343.067-.697.06-1.037-.022a2.102 2.102 0 01-.95-.527 2.289 2.289 0 01-.57-.904 3.41 3.41 0 01-.177-.976c-.033-.626.038-1.202.011-1.726-.032-1.067-.336-2.136-.722-3.196-.286-.79-.62-1.579-.925-2.396a19.387 19.387 0 01-1.187-5.133 15.23 15.23 0 01-.026-2.658l.006-.001z" fill="#000"></path><path d="M47.68 42.002c.053-.315.162-.617.324-.892.046-.1.1-.195.16-.286.207-.279.436-.545.66-.809.097-.118.186-.243.267-.373.104-.165.185-.353.37-.452.116-.062.567.516.443.682-.225.307-.481.59-.765.845a2.764 2.764 0 00-.405.569 2.352 2.352 0 00-.293.621.746.746 0 00-.032.332.304.304 0 00.037.081.286.286 0 00.137.09.87.87 0 00.236.048c.176-.002.35-.03.517-.086.038-.01.072-.028.11-.035.14-.027.183.014.251.204.015.041.034.085.046.128a.279.279 0 01-.118.347c-.178.09-.37.144-.568.16a1.776 1.776 0 01-.662-.058c-.038-.013-.071-.021-.117-.04a1.388 1.388 0 01-.14-.065l-.127-.086c-.039-.032-.075-.069-.113-.102a1.003 1.003 0 01-.234-.542.86.86 0 010-.1 1.5 1.5 0 010-.18h.017zM48.156 44.206a1.349 1.349 0 00.31.143l.116.028c.057.018.115-.007.174 0 .22.028.442.013.655-.046a.52.52 0 00.14-.064.577.577 0 00.123-.087l.139-.139a.295.295 0 01.171-.095c.048-.008.18.13.28.292.098.161.154.351.079.418-.277.243-.63.38-.999.388-.053 0-.107.004-.16.012-.053 0-.107.01-.16.018-.053.009-.106.019-.16.021a1.584 1.584 0 01-.164 0h-.088l-.089-.014-.174-.032c-.057-.015-.114-.035-.17-.051a.994.994 0 01-.166-.063c-.066-.032-.133-.059-.194-.096l-.183-.115a2.54 2.54 0 01-.248-.207l-.11-.116-.057-.056-.05-.06c-.05-.063-.118-.116-.175-.176a3.708 3.708 0 01-.169-.188.602.602 0 01-.065-.09c-.063-.122-.032-.182.146-.27.04-.02.08-.041.122-.058a.394.394 0 01.347 0c.16.133.311.275.454.425.098.102.211.189.335.257l-.01.02zM53.528 41.439c.147-.657 1.162-.14.698.334-.306.316-.797.113-.698-.334z" fill="#000"></path><path d="M54.042 41.575a.056.056 0 00.065-.035c0-.012-.007-.02-.007-.033a.178.178 0 00-.13-.155.085.085 0 00-.094.031.256.256 0 00-.02.072c-.001 0-.01.024-.058.033a1.225 1.225 0 01-.39-.104.646.646 0 01-.215-.152c-.052-.06-.08-.125-.044-.182a1.064 1.064 0 01.073-.115 1.18 1.18 0 01.103-.101.756.756 0 01.262-.132.698.698 0 01.582.091c.1.063.197.134.288.21.092.079.162.18.201.295a.6.6 0 01-.017.39.73.73 0 01-.228.306.788.788 0 01-.39.162.714.714 0 01-.515-.151.823.823 0 01-.28-.33.315.315 0 01-.034-.097c-.01-.067 0-.11.045-.13a.36.36 0 01.202-.019l.14.017c.106.021.211.054.312.097.04.018.085.024.13.019.02 0 .023-.013.023-.013s0 .015.007.015l-.011.011zM45.985 39.135a.42.42 0 00.585.279c.348-.14.437-.573.103-.782a.46.46 0 00-.547.053.455.455 0 00-.14.45z" fill="#000"></path><path d="M46.907 38.237a.847.847 0 01.363.755.807.807 0 01-.064.301.818.818 0 01-.38.355.878.878 0 01-.456.076 1.006 1.006 0 01-.363-.106.64.64 0 01-.2-.15.289.289 0 01-.071-.235c.008-.061.202-.082.386-.116a1.69 1.69 0 00.248-.057c.033-.011.06-.02.079-.03l.029-.014c.007 0 0 0 0 .015a.08.08 0 00.04.075.045.045 0 00.06-.01.355.355 0 00.034-.054.158.158 0 000-.169.196.196 0 00-.1-.085.201.201 0 00-.214.032.14.14 0 000 .16c0 .01.018.02.02.027.004.007-.035.036-.226.093l-.129.041c-.14.047-.279.033-.337-.072a.604.604 0 01.007-.52.824.824 0 01.418-.405.926.926 0 01.88.077l-.024.016zM50.308 31.594a.747.747 0 00-.658.166c-.601.534 2.45 4.462 2.853 4.914 1.115 1.234 4.396 5.15 5.918 2.51.885.954 1.454 2.113 2.51 2.929.938.734 2.091 1.394 3.266 1.151 1.425-.291 1.422-2.41 1.46-3.525" fill="#000"></path><path d="M59.042 40.715c-.157-.223-.312-.443-.47-.654a1.054 1.054 0 01-.097-.14l-.018-.027-.01-.014s0-.013-.01 0a.258.258 0 01-.026.03l-.017.016-.017.015-.033.03-.131.12-.151.103-.075.051-.084.04c-.056.027-.11.056-.167.08-.23.083-.474.123-.718.117a2.493 2.493 0 01-.666-.125 4.117 4.117 0 01-.726-.317 5.11 5.11 0 01-.639-.411 13.408 13.408 0 01-1.866-1.784 71.18 71.18 0 01-.826-.955c-.15-.176-.272-.34-.402-.51l-.375-.51c-.44-.609-.883-1.218-1.297-1.841a10.235 10.235 0 01-.743-1.266 2.939 2.939 0 01-.14-.364c-.01-.034-.02-.066-.028-.1a1.162 1.162 0 01-.027-.14.885.885 0 01-.007-.28.58.58 0 01.099-.25.71.71 0 01.205-.174.993.993 0 01.393-.134.857.857 0 01.12 0c.205 0 .279.095.25.162-.027.066-.125.139-.222.24a.304.304 0 00-.123.29.13.13 0 00.071.076h.015c.005 0 0 .007.01.018l.014.032.063.15c.183.413.399.813.644 1.193.247.4.51.798.78 1.192.269.395.546.788.827 1.177.139.191.278.394.418.558l.461.566c.368.453.766.88 1.191 1.28.418.397.873.752 1.358 1.061.419.257.872.456 1.29.437.205-.008.404-.076.57-.195a.844.844 0 00.125-.1l.029-.029.015-.014.032-.032c.04-.048.067-.09.102-.14.14-.175.251-.355.367-.533.03 0 .064.051.099.09l.1.115.2.23c.065.077.132.152.195.231l.155.198c.499.659.923 1.34 1.461 1.901.203.213.424.408.66.584.234.183.48.35.736.502.488.31 1.045.491 1.622.529a2.05 2.05 0 00.627-.077c.184-.057.349-.164.477-.308.26-.287.392-.704.467-1.131.034-.19.048-.38.067-.577.015-.265.046-.528.094-.788a.586.586 0 01.209-.354.804.804 0 01.14-.105c.153-.067.278.241.292.823.012.45-.024.898-.109 1.34-.05.24-.127.474-.227.697-.112.252-.27.48-.467.672-.216.206-.48.355-.767.434l-.106.028-.098.018c-.065.01-.13.024-.195.03-.131.014-.263.02-.395.017a3.763 3.763 0 01-1.47-.35 6.192 6.192 0 01-.934-.523 7.953 7.953 0 01-.836-.642 9.754 9.754 0 01-1.343-1.582l.008.003zM60.58 47.464c.029.016.06.025.094.028.011 0 .014-.011.022-.01a.096.096 0 00.104-.043.046.046 0 00-.011-.053c-.02-.021-.054-.017-.036-.056a.437.437 0 01.055-.054l.054-.043c.025-.019.052-.037.08-.053.11-.073.246-.105.279-.052a.44.44 0 01-.045.558 1.09 1.09 0 01-.227.213.611.611 0 01-.292.062.884.884 0 01-.164-.021c-.078-.016-.147-.05-.217-.065a.78.78 0 00-.171 0 .169.169 0 01-.038 0c-.04-.01-.039-.044.007-.168l.032-.085a.353.353 0 01.126-.18.346.346 0 01.243-.018c.041.01.073.026.101.032l.003.008z" fill="#000"></path><path d="M53.72 44.759c-.39.181-.867.296-1.223.046a1.255 1.255 0 01-.418-.678c-.327-1.055.604-1.506 1.467-1.383 1.13.16 1.213 1.54.174 2.015zM46.524 42.177a.583.583 0 01-.113-.04c-.538-.259-.999-1.75-.035-1.688 1.111.07.897 1.905.148 1.728z" fill="#FFD6D6"></path><path d="M52.011 81.87c-.265.125-.351.483-.726.24a1.074 1.074 0 01-.351-.493 8.87 8.87 0 01-.363-.967c-.156-.503-.279-1.047-.654-1.42a.349.349 0 00-.191-.112c-.19-.022-.291.219-.303.409-.041.644.2 1.275.2 1.92 0 .128-.048.297-.176.3-.105 0-.17-.11-.21-.208-.377-.935-.53-1.837-1.014-2.738-.071-.139-.169-.279-.321-.292-.232-.017-.335.287-.333.518 0 .802.345 1.556.594 2.32.051.157.051.397-.113.418-.75-.3-.75-1.573-1.527-1.792-.828-.234.365 2.091-.193 2.278-.391.14-.54-.867-1.084-.792-.254.035-.43.294-.45.55-.005.257.059.512.183.737.5 1.074 1.356 2.033 2.57 2.245 2.231.392 4.88-1.07 5.005-3.507" fill="#fff"></path><path d="M45.877 82.55a.665.665 0 00.508.044l.04-.016c.011-.014.027-.015.04-.023l.074-.043a.529.529 0 00.11-.106.724.724 0 00.128-.25c.06-.26.057-.531-.007-.79-.03-.154-.067-.314-.102-.47l-.06-.271a2.662 2.662 0 01-.04-.223.744.744 0 01-.01-.139l-.045-.008a.547.547 0 01-.09-.03.206.206 0 01-.055-.022l-.026-.018h-.013c-.044-.041 0-.014 0 .056a.3.3 0 010 .07v.125c0 .002 0 0 0 0a.547.547 0 00.056.019c.02.014.04.025.064.043l.161.199.305.545c.115.198.26.377.43.531.088.077.18.148.277.214l.103.069c.093.01.186.01.279 0a.348.348 0 00.175-.106.385.385 0 00.075-.118 1.688 1.688 0 00.053-.5c0-.03-.007-.073-.011-.11a.504.504 0 00-.023-.126l-.039-.149c-.014-.051-.039-.115-.057-.17-.08-.234-.167-.47-.236-.696a3.805 3.805 0 01-.09-.327c-.014-.054-.028-.107-.038-.161l-.018-.096a2.728 2.728 0 01-.036-.332v-.062a.303.303 0 01.022-.138v-.01l-.012-.01a.278.278 0 01-.07-.077c-.007-.014 0-.008-.007-.015-.007-.007 0 0 0 .014a.04.04 0 010 .018v-.017.009a.21.21 0 01-.018.036.206.206 0 01-.017.026l-.012.017a.583.583 0 01.088.124c.056.103.11.208.162.317.199.453.371.917.517 1.39.082.242.169.486.269.728l.039.096c.02.043.042.085.068.125a.541.541 0 00.139.139.417.417 0 00.268.078.416.416 0 00.26-.12c.05-.05.087-.11.111-.177.018-.049.03-.1.037-.151a.623.623 0 000-.072v-.063c0-.061 0-.124-.01-.184 0-.03 0-.06-.009-.09v-.05c-.008-.053-.016-.107-.026-.161-.02-.107-.04-.216-.05-.322a.62.62 0 01.025-.304.103.103 0 01.125-.064c.049.027.09.065.118.113.077.115.133.243.164.378l.046.197.024.085.017.053.036.106c.049.139.103.278.16.417.029.068.058.139.092.204.016.036.034.072.054.11l.032.056.041.07c.117.189.3.328.514.391.102.03.21.027.311-.008a.755.755 0 00.26-.178.828.828 0 00.1-.114.14.14 0 00.023-.054.14.14 0 00-.014-.099.16.16 0 00-.11-.078 1.067 1.067 0 00-.212 0 .298.298 0 01-.176-.044.25.25 0 01-.09-.162.16.16 0 010-.065c0-.011.01-.01 0-.036l-.021-.08a5.418 5.418 0 00-.14-.418l-.07-.193-.034-.098-.065-.201c-.086-.278-.168-.575-.269-.816a2.525 2.525 0 00-.315-.565 1.353 1.353 0 00-.333-.325.696.696 0 00-.827.039.823.823 0 00-.215.293c-.066.147-.1.306-.103.467-.004.25.016.501.06.748l.076.428.035.213c.01.067.02.157.022.171 0 .063.012.126.015.184a.213.213 0 000 .037l.05.012c.038.01.075.024.111.038.051.02.096.052.13.095 0 0 0 .01 0 0a.342.342 0 01.112-.128l.064-.044.038-.024.02-.013-.008-.01a.212.212 0 01-.013-.031l-.021-.049-.04-.094-.078-.197c-.052-.13-.1-.265-.15-.4-.098-.278-.195-.556-.308-.834a8.083 8.083 0 00-.48-1.025.894.894 0 00-.304-.327.568.568 0 00-.643.039.766.766 0 00-.257.417 1.156 1.156 0 00-.035.192v.178c0 .102.011.203.024.302 0 .05.011.1.02.147l.013.078c.011.057.027.113.043.168.035.113.077.22.121.345a.26.26 0 01.018.08.083.083 0 01-.024.076c-.012.01-.023 0-.034 0a.28.28 0 01-.086-.056 1.308 1.308 0 01-.167-.27.711.711 0 00-.103-.139.364.364 0 00-.036-.029l-.008-.007-.031-.02-.068-.04a.602.602 0 00-.15-.07l-.08-.028c-.03-.01-.066-.016-.1-.022a.595.595 0 00-.282.036.454.454 0 00-.203.175l-.032.062a.806.806 0 00-.056.376c.014.176.042.351.084.523l.026.117.013.05.025.103c.018.07.032.142.04.215a.455.455 0 010 .115.097.097 0 01-.07.082.123.123 0 01-.118-.05c-.03-.036-.055-.073-.083-.11a.699.699 0 00-.121-.133l-.015-.011h-.007l-.024-.013a1.168 1.168 0 00-.113-.05.674.674 0 00-.594.104.844.844 0 00-.262.346.922.922 0 00-.07.404c.007.124.03.247.07.365.066.187.148.368.243.542.091.17.192.337.302.496.221.324.487.615.79.864.309.25.663.439 1.043.556.188.059.382.097.578.115.192.025.385.036.579.035a4.935 4.935 0 001.744-.332 4.362 4.362 0 001.51-.964c.194-.188.366-.397.513-.624.064-.111.12-.214.172-.309.052-.094.075-.19.106-.278.053-.137.085-.282.096-.428a.607.607 0 00-.018-.292.567.567 0 00-.099-.2.695.695 0 00-.118-.138c-.071-.047-.15.02-.224.168-.04.074-.064.171-.12.278-.055.107-.086.238-.16.37-.376.814-1.133 1.432-2.009 1.76-.44.166-.904.255-1.374.265l-.35-.01-.333-.063a2.24 2.24 0 01-.611-.205c-.579-.294-1.052-.846-1.377-1.483a2.176 2.176 0 01-.185-.438.463.463 0 01-.017-.139.164.164 0 01.021-.065l.011-.018-.015-.021a.294.294 0 01-.021-.036c-.011-.021-.008-.03-.01-.016v-.023-.014a.08.08 0 010 .01.92.92 0 01-.035.097.007.007 0 01-.004.002c-.002 0-.004 0-.005-.002l.087.104c.07.08.14.196.205.278.03.043.065.083.101.12l.096.089a.99.99 0 00.162.102l-.009-.04z" fill="#000"></path></svg>